<svg width="823" height="302" viewBox="0 0 823 302" fill="none" xmlns="http://www.w3.org/2000/svg">
<g clip-path="url(#clip0)">
<path d="M922.574 -47.0277H-98.2051V597.529H922.574V-47.0277Z" fill="white"/>
<path d="M25.3942 27.7742C27.5265 27.7742 29.0291 26.6284 29.0291 24.752C29.0291 22.7038 27.3405 22.1738 25.7521 21.6725C24.2351 21.2141 23.8488 20.8847 23.8488 20.2687C23.8488 19.6958 24.3354 19.2661 25.1653 19.2661C26.1814 19.2661 26.7251 19.7961 27.0828 20.5552L28.7429 19.5956C28.0703 18.1919 26.811 17.3468 25.1653 17.3468C23.4481 17.3468 21.8741 18.4353 21.8741 20.326C21.8741 22.231 23.3622 22.8756 24.8934 23.3196C26.3817 23.7493 27.0543 24.0358 27.0543 24.7806C27.0543 25.3393 26.6392 25.8406 25.4515 25.8406C24.2065 25.8406 23.5054 25.239 23.1477 24.308L21.459 25.2963C22.0028 26.786 23.348 27.7742 25.3942 27.7742ZM31.9864 24.752H37.3813C37.4242 24.5086 37.4528 24.265 37.4528 23.9929C37.4528 21.8873 35.9503 20.2115 33.8324 20.2115C31.5857 20.2115 30.0545 21.8587 30.0545 23.9929C30.0545 26.127 31.5715 27.7742 33.9756 27.7742C35.3493 27.7742 36.4225 27.2157 37.095 26.2417L35.6069 25.3822C35.2921 25.7977 34.7196 26.0984 34.0042 26.0984C33.031 26.0984 32.244 25.6974 31.9864 24.752ZM31.9578 23.3196C32.1725 22.403 32.845 21.8729 33.8324 21.8729C34.6052 21.8729 35.378 22.2883 35.6069 23.3196H31.9578ZM40.5879 21.6437V20.412H38.742V27.5737H40.5879V24.1505C40.5879 22.6464 41.8043 22.2168 42.763 22.3313V20.2687C41.8616 20.2687 40.96 20.6699 40.5879 21.6437ZM48.5503 20.412L46.8044 25.4252L45.0729 20.412H43.0408L45.7597 27.5737H47.8634L50.5823 20.412H48.5503ZM52.7526 24.752H58.1474C58.1904 24.5086 58.2191 24.265 58.2191 23.9929C58.2191 21.8873 56.7165 20.2115 54.5986 20.2115C52.3519 20.2115 50.8208 21.8587 50.8208 23.9929C50.8208 26.127 52.3375 27.7742 54.7416 27.7742C56.1154 27.7742 57.1887 27.2157 57.8612 26.2417L56.3731 25.3822C56.0583 25.7977 55.4858 26.0984 54.7703 26.0984C53.7972 26.0984 53.0102 25.6974 52.7526 24.752ZM52.724 23.3196C52.9387 22.403 53.6112 21.8729 54.5986 21.8729C55.3712 21.8729 56.144 22.2883 56.3731 23.3196H52.724ZM61.354 21.6437V20.412H59.508V27.5737H61.354V24.1505C61.354 22.6464 62.5704 22.2168 63.5292 22.3313V20.2687C62.6276 20.2687 61.7261 20.6699 61.354 21.6437ZM70.2465 25.683V17.5474H68.2718V27.5737H74.0673V25.683H70.2465ZM76.0195 19.5525C76.6491 19.5525 77.1642 19.0369 77.1642 18.421C77.1642 17.8052 76.6491 17.2751 76.0195 17.2751C75.4041 17.2751 74.8889 17.8052 74.8889 18.421C74.8889 19.0369 75.4041 19.5525 76.0195 19.5525ZM75.1035 27.5737H76.9495V20.412H75.1035V27.5737ZM80.2861 22.446C80.2861 22.0593 80.6582 21.8587 81.1162 21.8587C81.6456 21.8587 82.0463 22.1308 82.261 22.5891L83.8351 21.7298C83.277 20.7414 82.2753 20.2115 81.1162 20.2115C79.6423 20.2115 78.3973 21.028 78.3973 22.4889C78.3973 25.0098 82.0892 24.4369 82.0892 25.4825C82.0892 25.8978 81.6885 26.0984 81.1018 26.0984C80.3864 26.0984 79.8998 25.7547 79.6994 25.1674L78.0967 26.0698C78.6119 27.1727 79.6709 27.7742 81.1018 27.7742C82.6329 27.7742 83.9781 27.0294 83.9781 25.4825C83.9781 22.847 80.2861 23.5059 80.2861 22.446ZM89.0481 22.1882V20.412H87.431V18.4067L85.5851 18.9654V20.412H84.3401V22.1882H85.5851V25.1674C85.5851 27.101 86.458 27.8603 89.0481 27.5737V25.8978C87.9891 25.9552 87.431 25.9408 87.431 25.1674V22.1882H89.0481Z" fill="black"/>
<path d="M800.94 45.478H23.4299C22.1127 45.478 21.0449 46.5469 21.0449 47.8654V60.3984C21.0449 61.7168 22.1127 62.7856 23.4299 62.7856H800.94C802.256 62.7856 803.324 61.7168 803.324 60.3984V47.8654C803.324 46.5469 802.256 45.478 800.94 45.478Z" fill="#F5F5F5"/>
<path d="M38.0738 57.5395C39.4065 57.5395 40.3455 56.8235 40.3455 55.6507C40.3455 54.3706 39.2902 54.0393 38.2975 53.726C37.3494 53.4396 37.1079 53.2336 37.1079 52.8487C37.1079 52.4906 37.412 52.2219 37.9308 52.2219C38.5658 52.2219 38.9056 52.5532 39.1292 53.0276L40.1667 52.4279C39.7463 51.5506 38.9593 51.0225 37.9308 51.0225C36.8575 51.0225 35.8737 51.7028 35.8737 52.8845C35.8737 54.0751 36.8038 54.4779 37.7608 54.7555C38.691 55.024 39.1113 55.2031 39.1113 55.6685C39.1113 56.0178 38.852 56.3311 38.1096 56.3311C37.3315 56.3311 36.8933 55.9551 36.6698 55.3732L35.6143 55.991C35.9542 56.922 36.7949 57.5395 38.0738 57.5395ZM42.194 55.6507H45.5657C45.5926 55.4985 45.6104 55.3463 45.6104 55.1763C45.6104 53.8603 44.6714 52.8128 43.3477 52.8128C41.9435 52.8128 40.9865 53.8423 40.9865 55.1763C40.9865 56.5101 41.9345 57.5395 43.437 57.5395C44.2957 57.5395 44.9666 57.1904 45.3869 56.5817L44.4567 56.0446C44.2599 56.3042 43.9022 56.4922 43.455 56.4922C42.8469 56.4922 42.3549 56.2416 42.194 55.6507ZM42.176 54.7555C42.3102 54.1826 42.7305 53.8513 43.3477 53.8513C43.8307 53.8513 44.3136 54.1109 44.4567 54.7555H42.176ZM47.5697 53.708V52.9382H46.416V57.4142H47.5697V55.2747C47.5697 54.3347 48.33 54.0661 48.9292 54.1378V52.8487C48.3657 52.8487 47.8022 53.0993 47.5697 53.708ZM52.5466 52.9382L51.4554 56.0714L50.3732 52.9382H49.1033L50.8026 57.4142H52.1173L53.8166 52.9382H52.5466ZM55.1731 55.6507H58.5449C58.5717 55.4985 58.5895 55.3463 58.5895 55.1763C58.5895 53.8603 57.6505 52.8128 56.3268 52.8128C54.9226 52.8128 53.9657 53.8423 53.9657 55.1763C53.9657 56.5101 54.9138 57.5395 56.4163 57.5395C57.2748 57.5395 57.9457 57.1904 58.366 56.5817L57.4358 56.0446C57.2391 56.3042 56.8813 56.4922 56.4341 56.4922C55.826 56.4922 55.3341 56.2416 55.1731 55.6507ZM55.1553 54.7555C55.2894 54.1826 55.7098 53.8513 56.3268 53.8513C56.8098 53.8513 57.2928 54.1109 57.4358 54.7555H55.1553ZM60.5489 53.708V52.9382H59.3951V57.4142H60.5489V55.2747C60.5489 54.3347 61.3091 54.0661 61.9083 54.1378V52.8487C61.3448 52.8487 60.7814 53.0993 60.5489 53.708ZM68.8969 57.4142H70.2386L68.0384 51.1478H66.509L64.3178 57.4142H65.6503L66.026 56.2863H68.5214L68.8969 57.4142ZM66.4195 55.1314L67.2782 52.5712L68.1367 55.1314H66.4195ZM74.0606 51.1478V53.4664C73.7386 53.0546 73.2645 52.8128 72.6115 52.8128C71.4132 52.8128 70.4293 53.8423 70.4293 55.1763C70.4293 56.5101 71.4132 57.5395 72.6115 57.5395C73.2645 57.5395 73.7386 57.2979 74.0606 56.8861V57.4142H75.2143V51.1478H74.0606ZM72.8262 56.4385C72.1107 56.4385 71.583 55.9282 71.583 55.1763C71.583 54.4242 72.1107 53.914 72.8262 53.914C73.5327 53.914 74.0606 54.4242 74.0606 55.1763C74.0606 55.9282 73.5327 56.4385 72.8262 56.4385ZM79.6587 51.1478V53.4664C79.3366 53.0546 78.8626 52.8128 78.2098 52.8128C77.0113 52.8128 76.0276 53.8423 76.0276 55.1763C76.0276 56.5101 77.0113 57.5395 78.2098 57.5395C78.8626 57.5395 79.3366 57.2979 79.6587 56.8861V57.4142H80.8124V51.1478H79.6587ZM78.4245 56.4385C77.7089 56.4385 77.1813 55.9282 77.1813 55.1763C77.1813 54.4242 77.7089 53.914 78.4245 53.914C79.131 53.914 79.6587 54.4242 79.6587 55.1763C79.6587 55.9282 79.131 56.4385 78.4245 56.4385ZM83.0215 53.708V52.9382H81.8677V57.4142H83.0215V55.2747C83.0215 54.3347 83.7817 54.0661 84.3809 54.1378V52.8487C83.8176 52.8487 83.2541 53.0993 83.0215 53.708ZM85.8644 55.6507H89.2363C89.2631 55.4985 89.2809 55.3463 89.2809 55.1763C89.2809 53.8603 88.3419 52.8128 87.0182 52.8128C85.614 52.8128 84.657 53.8423 84.657 55.1763C84.657 56.5101 85.605 57.5395 87.1076 57.5395C87.9662 57.5395 88.6369 57.1904 89.0573 56.5817L88.1272 56.0446C87.9304 56.3042 87.5727 56.4922 87.1256 56.4922C86.5174 56.4922 86.0254 56.2416 85.8644 55.6507ZM85.8465 54.7555C85.9807 54.1826 86.4011 53.8513 87.0182 53.8513C87.5011 53.8513 87.9841 54.1109 88.1272 54.7555H85.8465ZM90.976 54.2094C90.976 53.9676 91.2087 53.8423 91.4948 53.8423C91.8257 53.8423 92.0762 54.0125 92.2104 54.2989L93.1941 53.7618C92.8454 53.1441 92.2192 52.8128 91.4948 52.8128C90.5737 52.8128 89.7955 53.3231 89.7955 54.2363C89.7955 55.8118 92.103 55.4537 92.103 56.1073C92.103 56.3669 91.8525 56.4922 91.4859 56.4922C91.0387 56.4922 90.7347 56.2774 90.6093 55.9103L89.6076 56.4742C89.9296 57.1636 90.5915 57.5395 91.4859 57.5395C92.4429 57.5395 93.2836 57.0741 93.2836 56.1073C93.2836 54.4601 90.976 54.8718 90.976 54.2094ZM94.8542 54.2094C94.8542 53.9676 95.0867 53.8423 95.3728 53.8423C95.7037 53.8423 95.9542 54.0125 96.0883 54.2989L97.0721 53.7618C96.7234 53.1441 96.0972 52.8128 95.3728 52.8128C94.4516 52.8128 93.6735 53.3231 93.6735 54.2363C93.6735 55.8118 95.981 55.4537 95.981 56.1073C95.981 56.3669 95.7305 56.4922 95.3638 56.4922C94.9167 56.4922 94.6126 56.2774 94.4873 55.9103L93.4856 56.4742C93.8076 57.1636 94.4695 57.5395 95.3638 57.5395C96.3209 57.5395 97.1616 57.0741 97.1616 56.1073C97.1616 54.4601 94.8542 54.8718 94.8542 54.2094Z" fill="black"/>
<path d="M271.803 57.5395C273.135 57.5395 274.075 56.8235 274.075 55.6507C274.075 54.3706 273.019 54.0393 272.026 53.726C271.079 53.4396 270.837 53.2336 270.837 52.8487C270.837 52.4906 271.141 52.2219 271.66 52.2219C272.294 52.2219 272.635 52.5532 272.859 53.0276L273.896 52.4279C273.476 51.5506 272.689 51.0225 271.66 51.0225C270.586 51.0225 269.603 51.7028 269.603 52.8845C269.603 54.0751 270.532 54.4779 271.489 54.7555C272.42 55.024 272.841 55.2031 272.841 55.6685C272.841 56.0178 272.581 56.3311 271.839 56.3311C271.061 56.3311 270.622 55.9551 270.4 55.3732L269.343 55.991C269.683 56.922 270.524 57.5395 271.803 57.5395ZM277.253 54.0483V52.9382H276.242V51.6849L275.088 52.034V52.9382H274.31V54.0483H275.088V55.9103C275.088 57.1188 275.633 57.5934 277.253 57.4142V56.3669C276.591 56.4027 276.242 56.3937 276.242 55.9103V54.0483H277.253ZM281.325 52.9382V53.4664C281.003 53.0635 280.52 52.8128 279.867 52.8128C278.678 52.8128 277.694 53.8423 277.694 55.1763C277.694 56.5101 278.678 57.5395 279.867 57.5395C280.52 57.5395 281.003 57.2889 281.325 56.8861V57.4142H282.479V52.9382H281.325ZM280.082 56.4385C279.375 56.4385 278.848 55.9282 278.848 55.1763C278.848 54.4242 279.375 53.914 280.082 53.914C280.797 53.914 281.325 54.4242 281.325 55.1763C281.325 55.9282 280.797 56.4385 280.082 56.4385ZM286.083 54.0483V52.9382H285.072V51.6849L283.919 52.034V52.9382H283.141V54.0483H283.919V55.9103C283.919 57.1188 284.465 57.5934 286.083 57.4142V56.3669C285.421 56.4027 285.072 56.3937 285.072 55.9103V54.0483H286.083ZM287.732 55.6507H291.104C291.13 55.4985 291.148 55.3463 291.148 55.1763C291.148 53.8603 290.209 52.8128 288.886 52.8128C287.482 52.8128 286.525 53.8423 286.525 55.1763C286.525 56.5101 287.472 57.5395 288.976 57.5395C289.833 57.5395 290.504 57.1904 290.924 56.5817L289.995 56.0446C289.798 56.3042 289.44 56.4922 288.993 56.4922C288.385 56.4922 287.892 56.2416 287.732 55.6507ZM287.714 54.7555C287.848 54.1826 288.269 53.8513 288.886 53.8513C289.368 53.8513 289.851 54.1109 289.995 54.7555H287.714Z" fill="black"/>
<path d="M403.863 56.2326V51.1478H402.629V57.4142H406.251V56.2326H403.863ZM408.939 57.5397C410.254 57.5397 411.31 56.5101 411.31 55.1763C411.31 53.8423 410.254 52.8128 408.939 52.8128C407.625 52.8128 406.578 53.8423 406.578 55.1763C406.578 56.5101 407.625 57.5397 408.939 57.5397ZM408.939 56.4117C408.26 56.4117 407.731 55.9013 407.731 55.1763C407.731 54.4511 408.26 53.9408 408.939 53.9408C409.628 53.9408 410.156 54.4511 410.156 55.1763C410.156 55.9013 409.628 56.4117 408.939 56.4117ZM414.25 57.5397C415.127 57.5397 415.887 57.0741 416.271 56.3759L415.27 55.8028C415.091 56.1699 414.707 56.3937 414.241 56.3937C413.553 56.3937 413.043 55.8835 413.043 55.1763C413.043 54.4601 413.553 53.9498 414.241 53.9498C414.697 53.9498 415.082 54.1826 415.261 54.5496L416.253 53.9677C415.887 53.2784 415.127 52.8128 414.25 52.8128C412.891 52.8128 411.889 53.8423 411.889 55.1763C411.889 56.5101 412.891 57.5397 414.25 57.5397ZM420.21 52.9382V53.4664C419.888 53.0635 419.405 52.8128 418.752 52.8128C417.563 52.8128 416.58 53.8423 416.58 55.1763C416.58 56.5101 417.563 57.5397 418.752 57.5397C419.405 57.5397 419.888 57.2889 420.21 56.8861V57.4142H421.364V52.9382H420.21ZM418.967 56.4385C418.26 56.4385 417.733 55.9283 417.733 55.1763C417.733 54.4242 418.26 53.914 418.967 53.914C419.682 53.914 420.21 54.4242 420.21 55.1763C420.21 55.9283 419.682 56.4385 418.967 56.4385ZM424.968 54.0483V52.9382H423.957V51.6849L422.804 52.034V52.9382H422.026V54.0483H422.804V55.9103C422.804 57.1189 423.35 57.5934 424.968 57.4142V56.3669C424.306 56.4027 423.957 56.3937 423.957 55.9103V54.0483H424.968ZM426.354 52.4011C426.747 52.4011 427.069 52.0788 427.069 51.6939C427.069 51.3089 426.747 50.9777 426.354 50.9777C425.97 50.9777 425.648 51.3089 425.648 51.6939C425.648 52.0788 425.97 52.4011 426.354 52.4011ZM425.782 57.4142H426.935V52.9382H425.782V57.4142ZM430.119 57.5397C431.435 57.5397 432.49 56.5101 432.49 55.1763C432.49 53.8423 431.435 52.8128 430.119 52.8128C428.805 52.8128 427.758 53.8423 427.758 55.1763C427.758 56.5101 428.805 57.5397 430.119 57.5397ZM430.119 56.4117C429.44 56.4117 428.912 55.9013 428.912 55.1763C428.912 54.4511 429.44 53.9408 430.119 53.9408C430.808 53.9408 431.337 54.4511 431.337 55.1763C431.337 55.9013 430.808 56.4117 430.119 56.4117ZM435.788 52.8128C435.189 52.8128 434.724 53.0366 434.456 53.4396V52.9382H433.302V57.4142H434.456V54.9972C434.456 54.2184 434.876 53.8872 435.439 53.8872C435.958 53.8872 436.324 54.2004 436.324 54.8092V57.4142H437.478V54.666C437.478 53.4754 436.736 52.8128 435.788 52.8128Z" fill="black"/>
<path d="M540.927 51.1479H536.324V52.3296H538.006V57.4144H539.24V52.3296H540.927V51.1479ZM543.843 52.9383L542.847 55.9463L541.684 52.9383H540.427L542.257 57.2712C542.042 57.871 541.72 58.1396 541.088 58.1306V59.2049C542.221 59.2676 542.984 58.7035 543.449 57.4144L545.077 52.9383H543.843ZM548.225 52.813C547.575 52.813 547.099 53.0546 546.777 53.4666V52.9383H545.626V59.2049H546.777V56.8863C547.099 57.2981 547.575 57.5397 548.225 57.5397C549.424 57.5397 550.408 56.5102 550.408 55.1764C550.408 53.8425 549.424 52.813 548.225 52.813ZM548.011 56.4386C547.307 56.4386 546.777 55.9283 546.777 55.1764C546.777 54.4244 547.307 53.9141 548.011 53.9141C548.726 53.9141 549.257 54.4244 549.257 55.1764C549.257 55.9283 548.726 56.4386 548.011 56.4386ZM552.196 55.6509H555.571C555.595 55.4987 555.613 55.3464 555.613 55.1764C555.613 53.8603 554.676 52.813 553.352 52.813C551.946 52.813 550.991 53.8425 550.991 55.1764C550.991 56.5102 551.94 57.5397 553.442 57.5397C554.301 57.5397 554.969 57.1906 555.393 56.5819L554.462 56.0448C554.265 56.3044 553.907 56.4924 553.46 56.4924C552.852 56.4924 552.358 56.2417 552.196 55.6509ZM552.178 54.7557C552.315 54.1826 552.733 53.8515 553.352 53.8515C553.837 53.8515 554.319 54.1111 554.462 54.7557H552.178Z" fill="black"/>
<path d="M640.392 57.4144H641.722L640.338 55.0511C641.054 54.7198 641.543 54.0126 641.543 53.2248C641.543 52.079 640.612 51.1479 639.462 51.1479H636.958V57.4144H638.192V55.2391H639.128L640.392 57.4144ZM638.192 52.3028H639.462C639.928 52.3028 640.308 52.7055 640.308 53.2248C640.308 53.744 639.928 54.1558 639.462 54.1558H638.192V52.3028ZM646.474 57.4144H647.816L645.615 51.1479H644.083L641.895 57.4144H643.224L643.6 56.2864H646.098L646.474 57.4144ZM643.994 55.1316L644.852 52.5712L645.711 55.1316H643.994ZM654.548 51.1479H653.277L651.488 54.1111L649.694 51.1479H648.423V57.4144H649.658V53.3591L651.416 56.2596H651.56L653.325 53.3501V57.4144H654.548V51.1479Z" fill="black"/>
<path d="M794.976 72.6332H29.3921C24.9465 72.6332 21.3428 76.2403 21.3428 80.6901V100.982C21.3428 105.431 24.9465 109.039 29.3921 109.039H794.976C799.421 109.039 803.026 105.431 803.026 100.982V80.6901C803.026 76.2403 799.421 72.6332 794.976 72.6332Z" fill="white" stroke="#E6E6E6"/>
<path d="M319.766 81.8837H278.029C273.089 81.8837 269.085 85.8917 269.085 90.8358C269.085 95.78 273.089 99.788 278.029 99.788H319.766C324.705 99.788 328.709 95.78 328.709 90.8358C328.709 85.8917 324.705 81.8837 319.766 81.8837Z" fill="#009D5B" fill-opacity="0.1"/>
<path d="M36.6935 91.9398H40.4409C40.4587 91.8235 40.4677 91.7071 40.4677 91.5907C40.4677 90.3374 39.5912 89.2273 38.2407 89.2273C36.8455 89.2273 35.8975 90.2568 35.8975 91.5817C35.8975 92.9247 36.8545 93.9362 38.2944 93.9362C39.1889 93.9362 39.8685 93.5334 40.2621 92.9247L39.6002 92.5486C39.3765 92.9157 38.9294 93.2021 38.3123 93.2021C37.4805 93.2021 36.8455 92.7455 36.6935 91.9398ZM38.2407 89.9615C38.9115 89.9615 39.5465 90.3733 39.6807 91.2595H36.6935C36.8187 90.4806 37.4 89.9615 38.2407 89.9615ZM45.0344 93.8198L43.3262 91.5101L44.9361 89.3438H44.0237L42.87 90.9014L41.7163 89.3438H40.7951L42.4138 91.5191L40.6966 93.8198H41.609L42.87 92.1278L44.1222 93.8198H45.0344ZM49.1438 89.3438V90.1137C48.786 89.5676 48.2136 89.2273 47.4534 89.2273C46.2102 89.2273 45.1907 90.2568 45.1907 91.5817C45.1907 92.9067 46.2102 93.9362 47.4534 93.9362C48.2136 93.9362 48.786 93.5961 49.1438 93.05V93.8198H49.9218V89.3438H49.1438ZM47.5518 93.1842C46.6574 93.1842 45.9687 92.4949 45.9687 91.5817C45.9687 90.6687 46.6574 89.9793 47.5518 89.9793C48.4551 89.9793 49.1438 90.6687 49.1438 91.5817C49.1438 92.4949 48.4551 93.1842 47.5518 93.1842ZM55.9303 89.2273C55.349 89.2273 54.8391 89.4781 54.5261 89.9883C54.2668 89.5049 53.8196 89.2273 53.2114 89.2273C52.6658 89.2273 52.2007 89.4423 51.8787 89.9435V89.3438H51.1007V93.8198H51.8787V91.3311C51.8787 90.3643 52.4243 89.9704 53.0236 89.9704C53.6049 89.9704 53.9716 90.3553 53.9716 91.0625V93.8198H54.7496V91.3311C54.7496 90.3643 55.2237 89.9704 55.8498 89.9704C56.44 89.9704 56.8337 90.3553 56.8337 91.0625V93.8198H57.6117V91.0357C57.6117 89.9167 56.923 89.2273 55.9303 89.2273ZM61.1594 89.2273C60.3992 89.2273 59.8267 89.5676 59.469 90.1137V89.3438H58.6908V95.6102H59.469V93.05C59.8267 93.5961 60.3992 93.9362 61.1594 93.9362C62.4026 93.9362 63.4221 92.9067 63.4221 91.5817C63.4221 90.2568 62.4026 89.2273 61.1594 89.2273ZM61.061 93.1842C60.1577 93.1842 59.469 92.4949 59.469 91.5817C59.469 90.6687 60.1577 89.9793 61.061 89.9793C61.9554 89.9793 62.6441 90.6687 62.6441 91.5817C62.6441 92.4949 61.9554 93.1842 61.061 93.1842ZM64.3505 93.8198H65.1287V87.2848H64.3505V93.8198ZM66.8614 91.9398H70.6088C70.6266 91.8235 70.6356 91.7071 70.6356 91.5907C70.6356 90.3374 69.7591 89.2273 68.4086 89.2273C67.0134 89.2273 66.0654 90.2568 66.0654 91.5817C66.0654 92.9247 67.0224 93.9362 68.4622 93.9362C69.3566 93.9362 70.0363 93.5334 70.4298 92.9247L69.768 92.5486C69.5444 92.9157 69.0973 93.2021 68.4801 93.2021C67.6484 93.2021 67.0134 92.7455 66.8614 91.9398ZM68.4086 89.9615C69.0794 89.9615 69.7144 90.3733 69.8485 91.2595H66.8614C66.9865 90.4806 67.5679 89.9615 68.4086 89.9615ZM71.6641 93.9183C71.995 93.9183 72.2455 93.6587 72.2455 93.3364C72.2455 93.0142 71.995 92.7545 71.6641 92.7545C71.3421 92.7545 71.0828 93.0142 71.0828 93.3364C71.0828 93.6587 71.3421 93.9183 71.6641 93.9183ZM76.4323 89.3438V91.7161C76.4323 92.7724 75.851 93.1931 75.1355 93.1931C74.4468 93.1931 74.0265 92.7814 74.0265 92.0473V89.3438H73.2483V92.092C73.2483 93.238 73.937 93.9362 74.9835 93.9362C75.6095 93.9362 76.1013 93.7034 76.4323 93.1753V93.8198H77.2104V89.3438H76.4323ZM79.057 90.5523C79.057 90.1495 79.4506 89.9525 79.8529 89.9525C80.2466 89.9525 80.6401 90.1225 80.8099 90.5254L81.4628 90.1583C81.1766 89.5764 80.5864 89.2273 79.8529 89.2273C78.9497 89.2273 78.2699 89.7734 78.2699 90.5612C78.2699 92.1816 80.7741 91.6356 80.7741 92.5934C80.7741 93.032 80.3628 93.2021 79.8887 93.2021C79.3342 93.2021 78.9229 92.9335 78.7797 92.5039L78.1089 92.8888C78.3684 93.5064 78.9944 93.9362 79.8887 93.9362C80.8458 93.9362 81.5613 93.4259 81.5613 92.5934C81.5613 90.9462 79.057 91.5101 79.057 90.5523ZM82.2141 93.8198H86.2567V93.0142H83.4215L85.0225 91.4206C85.6395 90.8029 86.1404 90.1315 86.1404 89.3526C86.1404 88.1173 85.1655 87.4369 84.1907 87.4369C83.3768 87.4369 82.6166 87.8397 82.2141 88.6724L82.9118 89.0842C83.18 88.5201 83.6273 88.2426 84.1997 88.2426C84.781 88.2426 85.3087 88.6276 85.3087 89.3616C85.3087 89.8899 84.9152 90.3911 84.4232 90.8835L82.2141 93.1395V93.8198ZM87.6906 93.9183C88.0216 93.9183 88.272 93.6587 88.272 93.3364C88.272 93.0142 88.0216 92.7545 87.6906 92.7545C87.3686 92.7545 87.1093 93.0142 87.1093 93.3364C87.1093 93.6587 87.3686 93.9183 87.6906 93.9183ZM94.2034 89.2273C93.6221 89.2273 93.1124 89.4781 92.7994 89.9883C92.5399 89.5049 92.0927 89.2273 91.4845 89.2273C90.939 89.2273 90.474 89.4423 90.152 89.9435V89.3438H89.3738V93.8198H90.152V91.3311C90.152 90.3643 90.6975 89.9704 91.2968 89.9704C91.8782 89.9704 92.2449 90.3553 92.2449 91.0625V93.8198H93.0229V91.3311C93.0229 90.3643 93.4969 89.9704 94.1229 89.9704C94.7133 89.9704 95.1068 90.3553 95.1068 91.0625V93.8198H95.885V91.0357C95.885 89.9167 95.1963 89.2273 94.2034 89.2273ZM97.3571 88.5291C97.6432 88.5291 97.8757 88.2963 97.8757 88.0098C97.8757 87.7234 97.6432 87.4816 97.3571 87.4816C97.0619 87.4816 96.8294 87.7234 96.8294 88.0098C96.8294 88.2963 97.0619 88.5291 97.3571 88.5291ZM96.9635 93.8198H97.7416V89.3438H96.9635V93.8198ZM101.156 89.2273C100.53 89.2273 100.038 89.4601 99.7069 89.9883V89.3438H98.9288V93.8198H99.7069V91.4474C99.7069 90.3911 100.288 89.9704 101.004 89.9704C101.692 89.9704 102.113 90.3821 102.113 91.1163V93.8198H102.891V91.0715C102.891 89.9257 102.202 89.2273 101.156 89.2273ZM104.523 91.9398H108.27C108.288 91.8235 108.297 91.7071 108.297 91.5907C108.297 90.3374 107.421 89.2273 106.07 89.2273C104.675 89.2273 103.727 90.2568 103.727 91.5817C103.727 92.9247 104.684 93.9362 106.124 93.9362C107.018 93.9362 107.698 93.5334 108.091 92.9247L107.429 92.5486C107.206 92.9157 106.759 93.2021 106.142 93.2021C105.31 93.2021 104.675 92.7455 104.523 91.9398ZM106.07 89.9615C106.741 89.9615 107.376 90.3733 107.51 91.2595H104.523C104.648 90.4806 105.229 89.9615 106.07 89.9615ZM111.359 87.4369C110.08 87.4369 109.4 88.0188 109.4 89.2095V89.3438H108.685V90.0957H109.4V93.8198H110.178V90.0957H111.108V89.3438H110.178V89.2095C110.178 88.4306 110.581 88.1352 111.359 88.1352C111.511 88.1352 111.672 88.1442 111.833 88.1531V93.8198H112.611V87.5712C112.182 87.4906 111.788 87.4369 111.359 87.4369ZM114.349 91.9398H118.096C118.114 91.8235 118.123 91.7071 118.123 91.5907C118.123 90.3374 117.247 89.2273 115.896 89.2273C114.501 89.2273 113.553 90.2568 113.553 91.5817C113.553 92.9247 114.51 93.9362 115.95 93.9362C116.844 93.9362 117.524 93.5334 117.917 92.9247L117.256 92.5486C117.032 92.9157 116.585 93.2021 115.968 93.2021C115.136 93.2021 114.501 92.7455 114.349 91.9398ZM115.896 89.9615C116.567 89.9615 117.202 90.3733 117.336 91.2595H114.349C114.474 90.4806 115.056 89.9615 115.896 89.9615ZM122.689 93.8198L120.981 91.5101L122.591 89.3438H121.679L120.525 90.9014L119.371 89.3438H118.45L120.069 91.5191L118.352 93.8198H119.264L120.525 92.1278L121.777 93.8198H122.689ZM123.903 93.9183C124.234 93.9183 124.484 93.6587 124.484 93.3364C124.484 93.0142 124.234 92.7545 123.903 92.7545C123.581 92.7545 123.321 93.0142 123.321 93.3364C123.321 93.6587 123.581 93.9183 123.903 93.9183ZM125.979 88.5291C126.265 88.5291 126.498 88.2963 126.498 88.0098C126.498 87.7234 126.265 87.4816 125.979 87.4816C125.684 87.4816 125.451 87.7234 125.451 88.0098C125.451 88.2963 125.684 88.5291 125.979 88.5291ZM125.585 93.8198H126.363V89.3438H125.585V93.8198ZM129.652 93.9362C130.958 93.9362 132.013 92.9067 132.013 91.5817C132.013 90.2568 130.958 89.2273 129.652 89.2273C128.347 89.2273 127.3 90.2568 127.3 91.5817C127.3 92.9067 128.347 93.9362 129.652 93.9362ZM129.652 93.1753C128.767 93.1753 128.078 92.4859 128.078 91.5817C128.078 90.6776 128.767 89.9883 129.652 89.9883C130.547 89.9883 131.235 90.6776 131.235 91.5817C131.235 92.4859 130.547 93.1753 129.652 93.1753Z" fill="black"/>
<path d="M406.338 90.5702C406.748 90.2837 407.017 89.8273 407.017 89.2632C407.017 88.2964 406.239 87.5533 405.264 87.5533H402.761V93.8199H405.461C406.472 93.8199 407.277 93.0499 407.277 92.0474C407.277 91.367 406.901 90.8388 406.338 90.5702ZM405.264 88.3322C405.783 88.3322 406.195 88.762 406.195 89.29C406.195 89.8273 405.783 90.2479 405.264 90.2479H403.592V88.3322H405.264ZM405.461 93.0411H403.592V91.0089H405.461C406.015 91.0089 406.454 91.4565 406.454 92.0204C406.454 92.5935 406.015 93.0411 405.461 93.0411ZM412.136 87.5533V90.2122H409.094V87.5533H408.263V93.8199H409.094V90.9999H412.136V93.8199H412.959V87.5533H412.136ZM416.223 93.9363C417.503 93.9363 418.388 93.238 418.388 92.1369C418.388 90.9283 417.359 90.606 416.269 90.2479C415.392 89.9704 414.953 89.7556 414.953 89.1737C414.953 88.6008 415.418 88.2427 416.089 88.2427C416.85 88.2427 417.288 88.6723 417.511 89.2095L418.209 88.8066C417.861 88.0189 417.118 87.437 416.089 87.437C415.043 87.437 414.122 88.0816 414.122 89.2095C414.122 90.3733 415.088 90.6866 416.089 91.0089C417.01 91.2954 417.565 91.5102 417.565 92.1547C417.565 92.7188 417.126 93.1216 416.241 93.1216C415.33 93.1216 414.793 92.674 414.569 91.9847L413.854 92.3965C414.184 93.3365 415.034 93.9363 416.223 93.9363Z" fill="black"/>
<path d="M289.452 93.8198H290.785L289.398 91.4565C290.115 91.1252 290.606 90.418 290.606 89.6302C290.606 88.4844 289.676 87.5533 288.523 87.5533H286.018V93.8198H287.251V91.6445H288.191L289.452 93.8198ZM287.251 88.7082H288.523C288.987 88.7082 289.372 89.1109 289.372 89.6302C289.372 90.1494 288.987 90.5612 288.523 90.5612H287.251V88.7082ZM292.206 92.0563H295.578C295.604 91.9041 295.622 91.7518 295.622 91.5818C295.622 90.2659 294.683 89.2184 293.359 89.2184C291.956 89.2184 290.998 90.2479 290.998 91.5818C290.998 92.9156 291.946 93.9451 293.449 93.9451C294.307 93.9451 294.978 93.596 295.398 92.9873L294.469 92.4502C294.272 92.7098 293.914 92.8978 293.467 92.8978C292.859 92.8978 292.366 92.6471 292.206 92.0563ZM292.188 91.1611C292.322 90.5882 292.743 90.2569 293.359 90.2569C293.842 90.2569 294.325 90.5165 294.469 91.1611H292.188ZM299.791 89.3437V89.872C299.469 89.469 298.986 89.2184 298.333 89.2184C297.144 89.2184 296.16 90.2479 296.16 91.5818C296.16 92.9156 297.144 93.9451 298.333 93.9451C298.986 93.9451 299.469 93.6945 299.791 93.2917V93.8198H300.945V89.3437H299.791ZM298.548 92.8441C297.841 92.8441 297.314 92.3337 297.314 91.5818C297.314 90.8298 297.841 90.3196 298.548 90.3196C299.263 90.3196 299.791 90.8298 299.791 91.5818C299.791 92.3337 299.263 92.8441 298.548 92.8441ZM305.381 87.5533V89.872C305.06 89.4602 304.585 89.2184 303.932 89.2184C302.733 89.2184 301.75 90.2479 301.75 91.5818C301.75 92.9156 302.733 93.9451 303.932 93.9451C304.585 93.9451 305.06 93.7035 305.381 93.2917V93.8198H306.534V87.5533H305.381ZM304.147 92.8441C303.432 92.8441 302.903 92.3337 302.903 91.5818C302.903 90.8298 303.432 90.3196 304.147 90.3196C304.854 90.3196 305.381 90.8298 305.381 91.5818C305.381 92.3337 304.854 92.8441 304.147 92.8441ZM310.505 89.3437L309.512 92.3517L308.35 89.3437H307.089L308.921 93.6766C308.707 94.2764 308.386 94.545 307.75 94.536V95.6103C308.887 95.673 309.646 95.1089 310.111 93.8198L311.739 89.3437H310.505Z" fill="#00874E"/>
<path d="M538.583 93.8198H539.519L541.767 87.5533H540.861L539.055 92.7814L537.241 87.5533H536.348L538.583 93.8198ZM545.589 89.3438V90.1136C545.232 89.5676 544.659 89.2273 543.901 89.2273C542.655 89.2273 541.636 90.2568 541.636 91.5817C541.636 92.9067 542.655 93.9362 543.901 93.9362C544.659 93.9362 545.232 93.5961 545.589 93.05V93.8198H546.37V89.3438H545.589ZM543.997 93.1841C543.103 93.1841 542.417 92.4949 542.417 91.5817C542.417 90.6687 543.103 89.9793 543.997 89.9793C544.904 89.9793 545.589 90.6687 545.589 91.5817C545.589 92.4949 544.904 93.1841 543.997 93.1841ZM549.774 89.2273C549.149 89.2273 548.654 89.4601 548.326 89.9883V89.3438H547.544V93.8198H548.326V91.4474C548.326 90.3911 548.904 89.9704 549.619 89.9704C550.311 89.9704 550.728 90.3821 550.728 91.1163V93.8198H551.51V91.0715C551.51 89.9257 550.818 89.2273 549.774 89.2273ZM552.989 88.5291C553.275 88.5291 553.507 88.2963 553.507 88.0098C553.507 87.7234 553.275 87.4816 552.989 87.4816C552.697 87.4816 552.464 87.7234 552.464 88.0098C552.464 88.2963 552.697 88.5291 552.989 88.5291ZM552.594 93.8198H553.376V89.3438H552.594V93.8198ZM554.563 93.8198H555.337V87.2848H554.563V93.8198ZM556.524 93.8198H557.305V87.2848H556.524V93.8198ZM562.195 89.3438V90.1136C561.837 89.5676 561.264 89.2273 560.501 89.2273C559.261 89.2273 558.242 90.2568 558.242 91.5817C558.242 92.9067 559.261 93.9362 560.501 93.9362C561.264 93.9362 561.837 93.5961 562.195 93.05V93.8198H562.97V89.3438H562.195ZM560.603 93.1841C559.708 93.1841 559.016 92.4949 559.016 91.5817C559.016 90.6687 559.708 89.9793 560.603 89.9793C561.503 89.9793 562.195 90.6687 562.195 91.5817C562.195 92.4949 561.503 93.1841 560.603 93.1841Z" fill="black"/>
<path d="M638.168 87.5533L636.522 88.1262L636.731 88.8425L638.062 88.4485V93.8199H638.884V87.5533H638.168ZM648.531 90.7135H645.401V91.4655H647.697C647.535 92.4054 646.766 93.1216 645.473 93.1216C643.976 93.1216 642.986 92.0474 642.986 90.6866C642.986 89.3169 643.987 88.2427 645.437 88.2427C646.319 88.2427 647.083 88.6993 647.44 89.3707L648.156 88.9499C647.638 88.0547 646.617 87.437 645.443 87.437C643.541 87.437 642.163 88.8873 642.163 90.6866C642.163 92.477 643.53 93.9363 645.461 93.9363C647.351 93.9363 648.531 92.683 648.531 91.0894V90.7135Z" fill="black"/>
<path d="M780.07 82.1821H752.045C747.27 82.1821 743.4 86.0565 743.4 90.8358C743.4 95.6152 747.27 99.4896 752.045 99.4896H780.07C784.844 99.4896 788.716 95.6152 788.716 90.8358C788.716 86.0565 784.844 82.1821 780.07 82.1821Z" fill="white" stroke="#E6E6E6"/>
<path d="M765.426 92.8745V91.7502H767.322V90.819H765.426V89.752H767.502V88.8066H764.437V93.8198H767.536V92.8745H765.426ZM770.823 88.8066V90.6615C770.565 90.3321 770.184 90.1388 769.665 90.1388C768.705 90.1388 767.918 90.9623 767.918 92.0294C767.918 93.0965 768.705 93.9201 769.665 93.9201C770.184 93.9201 770.565 93.7267 770.823 93.3974V93.8198H771.747V88.8066H770.823ZM769.832 93.0393C769.26 93.0393 768.843 92.631 768.843 92.0294C768.843 91.4279 769.26 91.0196 769.832 91.0196C770.399 91.0196 770.823 91.4279 770.823 92.0294C770.823 92.631 770.399 93.0393 769.832 93.0393ZM773.047 89.8093C773.362 89.8093 773.618 89.5515 773.618 89.2434C773.618 88.9356 773.362 88.6705 773.047 88.6705C772.742 88.6705 772.48 88.9356 772.48 89.2434C772.48 89.5515 772.742 89.8093 773.047 89.8093ZM772.588 93.8198H773.512V90.2389H772.588V93.8198ZM776.404 91.127V90.2389H775.592V89.2364L774.673 89.5156V90.2389H774.048V91.127H774.673V92.6167C774.673 93.5835 775.109 93.9631 776.404 93.8198V92.9819C775.873 93.0105 775.592 93.0034 775.592 92.6167V91.127H776.404Z" fill="black"/>
<path d="M760.96 89.3306L761.414 88.8788C761.634 88.6556 761.646 88.3996 761.438 88.1895L761.252 87.9992C761.043 87.789 760.782 87.8081 760.561 88.0265L760.101 88.4783L760.96 89.3306ZM756.256 94.043L760.543 89.7406L759.696 88.8884L755.41 93.1907L755.039 94.1504C754.98 94.3086 755.141 94.4579 755.284 94.4064L756.256 94.043Z" fill="black"/>
<path d="M794.976 119.184H29.3921C24.9465 119.184 21.3428 122.791 21.3428 127.241V147.533C21.3428 151.983 24.9465 155.59 29.3921 155.59H794.976C799.421 155.59 803.026 151.983 803.026 147.533V127.241C803.026 122.791 799.421 119.184 794.976 119.184Z" fill="white" stroke="#E6E6E6"/>
<path d="M780.07 128.733H752.045C747.27 128.733 743.4 132.608 743.4 137.387C743.4 142.166 747.27 146.041 752.045 146.041H780.07C784.844 146.041 788.716 142.166 788.716 137.387C788.716 132.608 784.844 128.733 780.07 128.733Z" fill="white" stroke="#E6E6E6"/>
<path d="M765.426 139.426V138.302H767.322V137.371H765.426V136.303H767.502V135.358H764.437V140.371H767.536V139.426H765.426ZM770.823 135.358V137.213C770.565 136.884 770.184 136.69 769.665 136.69C768.705 136.69 767.918 137.514 767.918 138.581C767.918 139.648 768.705 140.472 769.665 140.472C770.184 140.472 770.565 140.278 770.823 139.949V140.371H771.747V135.358H770.823ZM769.832 139.591C769.26 139.591 768.843 139.183 768.843 138.581C768.843 137.979 769.26 137.571 769.832 137.571C770.399 137.571 770.823 137.979 770.823 138.581C770.823 139.183 770.399 139.591 769.832 139.591ZM773.047 136.361C773.362 136.361 773.618 136.103 773.618 135.795C773.618 135.487 773.362 135.222 773.047 135.222C772.742 135.222 772.48 135.487 772.48 135.795C772.48 136.103 772.742 136.361 773.047 136.361ZM772.588 140.371H773.512V136.79H772.588V140.371ZM776.404 137.678V136.79H775.592V135.788L774.673 136.067V136.79H774.048V137.678H774.673V139.168C774.673 140.134 775.109 140.515 776.404 140.371V139.533C775.873 139.562 775.592 139.555 775.592 139.168V137.678H776.404Z" fill="black"/>
<path d="M760.96 135.882L761.414 135.43C761.634 135.207 761.646 134.951 761.438 134.741L761.252 134.551C761.043 134.34 760.782 134.36 760.561 134.578L760.101 135.03L760.96 135.882ZM756.256 140.595L760.543 136.292L759.696 135.44L755.41 139.742L755.039 140.701C754.98 140.861 755.141 141.01 755.284 140.957L756.256 140.595Z" fill="black"/>
<path d="M36.6935 138.491H40.4409C40.4587 138.375 40.4677 138.259 40.4677 138.142C40.4677 136.889 39.5912 135.779 38.2407 135.779C36.8455 135.779 35.8975 136.808 35.8975 138.133C35.8975 139.476 36.8545 140.487 38.2944 140.487C39.1889 140.487 39.8685 140.085 40.2621 139.476L39.6002 139.1C39.3765 139.468 38.9294 139.754 38.3123 139.754C37.4805 139.754 36.8455 139.298 36.6935 138.491ZM38.2407 136.513C38.9115 136.513 39.5465 136.925 39.6807 137.811H36.6935C36.8187 137.032 37.4 136.513 38.2407 136.513ZM45.0344 140.371L43.3262 138.062L44.9361 135.895H44.0237L42.87 137.453L41.7163 135.895H40.7951L42.4138 138.071L40.6966 140.371H41.609L42.87 138.679L44.1222 140.371H45.0344ZM49.1438 135.895V136.665C48.786 136.119 48.2136 135.779 47.4534 135.779C46.2102 135.779 45.1907 136.808 45.1907 138.133C45.1907 139.458 46.2102 140.487 47.4534 140.487C48.2136 140.487 48.786 140.147 49.1438 139.602V140.371H49.9218V135.895H49.1438ZM47.5518 139.736C46.6574 139.736 45.9687 139.046 45.9687 138.133C45.9687 137.22 46.6574 136.531 47.5518 136.531C48.4551 136.531 49.1438 137.22 49.1438 138.133C49.1438 139.046 48.4551 139.736 47.5518 139.736ZM55.9303 135.779C55.349 135.779 54.8391 136.029 54.5261 136.54C54.2668 136.056 53.8196 135.779 53.2114 135.779C52.6658 135.779 52.2007 135.994 51.8787 136.495V135.895H51.1007V140.371H51.8787V137.882C51.8787 136.916 52.4243 136.522 53.0236 136.522C53.6049 136.522 53.9716 136.907 53.9716 137.614V140.371H54.7496V137.882C54.7496 136.916 55.2237 136.522 55.8498 136.522C56.44 136.522 56.8337 136.907 56.8337 137.614V140.371H57.6117V137.587C57.6117 136.468 56.923 135.779 55.9303 135.779ZM61.1594 135.779C60.3992 135.779 59.8267 136.119 59.469 136.665V135.895H58.6908V142.162H59.469V139.602C59.8267 140.147 60.3992 140.487 61.1594 140.487C62.4026 140.487 63.4221 139.458 63.4221 138.133C63.4221 136.808 62.4026 135.779 61.1594 135.779ZM61.061 139.736C60.1577 139.736 59.469 139.046 59.469 138.133C59.469 137.22 60.1577 136.531 61.061 136.531C61.9554 136.531 62.6441 137.22 62.6441 138.133C62.6441 139.046 61.9554 139.736 61.061 139.736ZM64.3505 140.371H65.1287V133.836H64.3505V140.371ZM66.8614 138.491H70.6088C70.6266 138.375 70.6356 138.259 70.6356 138.142C70.6356 136.889 69.7591 135.779 68.4086 135.779C67.0134 135.779 66.0654 136.808 66.0654 138.133C66.0654 139.476 67.0224 140.487 68.4622 140.487C69.3566 140.487 70.0363 140.085 70.4298 139.476L69.768 139.1C69.5444 139.468 69.0973 139.754 68.4801 139.754C67.6484 139.754 67.0134 139.298 66.8614 138.491ZM68.4086 136.513C69.0794 136.513 69.7144 136.925 69.8485 137.811H66.8614C66.9865 137.032 67.5679 136.513 68.4086 136.513ZM71.6641 140.469C71.995 140.469 72.2455 140.211 72.2455 139.888C72.2455 139.566 71.995 139.306 71.6641 139.306C71.3421 139.306 71.0828 139.566 71.0828 139.888C71.0828 140.211 71.3421 140.469 71.6641 140.469ZM76.4323 135.895V138.268C76.4323 139.324 75.851 139.744 75.1355 139.744C74.4468 139.744 74.0265 139.332 74.0265 138.599V135.895H73.2483V138.643C73.2483 139.79 73.937 140.487 74.9835 140.487C75.6095 140.487 76.1013 140.255 76.4323 139.726V140.371H77.2104V135.895H76.4323ZM79.057 137.104C79.057 136.701 79.4506 136.504 79.8529 136.504C80.2466 136.504 80.6401 136.674 80.8099 137.077L81.4628 136.71C81.1766 136.128 80.5864 135.779 79.8529 135.779C78.9497 135.779 78.2699 136.325 78.2699 137.113C78.2699 138.733 80.7741 138.187 80.7741 139.145C80.7741 139.584 80.3628 139.754 79.8887 139.754C79.3342 139.754 78.9229 139.484 78.7797 139.056L78.1089 139.44C78.3684 140.058 78.9944 140.487 79.8887 140.487C80.8458 140.487 81.5613 139.977 81.5613 139.145C81.5613 137.498 79.057 138.062 79.057 137.104ZM82.2141 140.371H86.2567V139.566H83.4215L85.0225 137.972C85.6395 137.354 86.1404 136.683 86.1404 135.904C86.1404 134.669 85.1655 133.988 84.1907 133.988C83.3768 133.988 82.6166 134.391 82.2141 135.224L82.9118 135.636C83.18 135.072 83.6273 134.794 84.1997 134.794C84.781 134.794 85.3087 135.179 85.3087 135.913C85.3087 136.441 84.9152 136.943 84.4232 137.435L82.2141 139.69V140.371ZM87.6906 140.469C88.0216 140.469 88.272 140.211 88.272 139.888C88.272 139.566 88.0216 139.306 87.6906 139.306C87.3686 139.306 87.1093 139.566 87.1093 139.888C87.1093 140.211 87.3686 140.469 87.6906 140.469ZM94.2034 135.779C93.6221 135.779 93.1124 136.029 92.7994 136.54C92.5399 136.056 92.0927 135.779 91.4845 135.779C90.939 135.779 90.474 135.994 90.152 136.495V135.895H89.3738V140.371H90.152V137.882C90.152 136.916 90.6975 136.522 91.2968 136.522C91.8782 136.522 92.2449 136.907 92.2449 137.614V140.371H93.0229V137.882C93.0229 136.916 93.4969 136.522 94.1229 136.522C94.7133 136.522 95.1068 136.907 95.1068 137.614V140.371H95.885V137.587C95.885 136.468 95.1963 135.779 94.2034 135.779ZM97.3571 135.08C97.6432 135.08 97.8757 134.848 97.8757 134.561C97.8757 134.275 97.6432 134.033 97.3571 134.033C97.0619 134.033 96.8294 134.275 96.8294 134.561C96.8294 134.848 97.0619 135.08 97.3571 135.08ZM96.9635 140.371H97.7416V135.895H96.9635V140.371ZM101.156 135.779C100.53 135.779 100.038 136.011 99.7069 136.54V135.895H98.9288V140.371H99.7069V137.999C99.7069 136.943 100.288 136.522 101.004 136.522C101.692 136.522 102.113 136.934 102.113 137.668V140.371H102.891V137.623C102.891 136.477 102.202 135.779 101.156 135.779ZM104.523 138.491H108.27C108.288 138.375 108.297 138.259 108.297 138.142C108.297 136.889 107.421 135.779 106.07 135.779C104.675 135.779 103.727 136.808 103.727 138.133C103.727 139.476 104.684 140.487 106.124 140.487C107.018 140.487 107.698 140.085 108.091 139.476L107.429 139.1C107.206 139.468 106.759 139.754 106.142 139.754C105.31 139.754 104.675 139.298 104.523 138.491ZM106.07 136.513C106.741 136.513 107.376 136.925 107.51 137.811H104.523C104.648 137.032 105.229 136.513 106.07 136.513ZM111.359 133.988C110.08 133.988 109.4 134.57 109.4 135.761V135.895H108.685V136.647H109.4V140.371H110.178V136.647H111.108V135.895H110.178V135.761C110.178 134.982 110.581 134.687 111.359 134.687C111.511 134.687 111.672 134.696 111.833 134.705V140.371H112.611V134.123C112.182 134.042 111.788 133.988 111.359 133.988ZM114.349 138.491H118.096C118.114 138.375 118.123 138.259 118.123 138.142C118.123 136.889 117.247 135.779 115.896 135.779C114.501 135.779 113.553 136.808 113.553 138.133C113.553 139.476 114.51 140.487 115.95 140.487C116.844 140.487 117.524 140.085 117.917 139.476L117.256 139.1C117.032 139.468 116.585 139.754 115.968 139.754C115.136 139.754 114.501 139.298 114.349 138.491ZM115.896 136.513C116.567 136.513 117.202 136.925 117.336 137.811H114.349C114.474 137.032 115.056 136.513 115.896 136.513ZM122.689 140.371L120.981 138.062L122.591 135.895H121.679L120.525 137.453L119.371 135.895H118.45L120.069 138.071L118.352 140.371H119.264L120.525 138.679L121.777 140.371H122.689ZM123.903 140.469C124.234 140.469 124.484 140.211 124.484 139.888C124.484 139.566 124.234 139.306 123.903 139.306C123.581 139.306 123.321 139.566 123.321 139.888C123.321 140.211 123.581 140.469 123.903 140.469ZM125.979 135.08C126.265 135.08 126.498 134.848 126.498 134.561C126.498 134.275 126.265 134.033 125.979 134.033C125.684 134.033 125.451 134.275 125.451 134.561C125.451 134.848 125.684 135.08 125.979 135.08ZM125.585 140.371H126.363V135.895H125.585V140.371ZM129.652 140.487C130.958 140.487 132.013 139.458 132.013 138.133C132.013 136.808 130.958 135.779 129.652 135.779C128.347 135.779 127.3 136.808 127.3 138.133C127.3 139.458 128.347 140.487 129.652 140.487ZM129.652 139.726C128.767 139.726 128.078 139.038 128.078 138.133C128.078 137.229 128.767 136.54 129.652 136.54C130.547 136.54 131.235 137.229 131.235 138.133C131.235 139.038 130.547 139.726 129.652 139.726Z" fill="black"/>
<path d="M406.338 137.122C406.748 136.835 407.017 136.379 407.017 135.815C407.017 134.848 406.239 134.105 405.264 134.105H402.761V140.371H405.461C406.472 140.371 407.277 139.602 407.277 138.599C407.277 137.918 406.901 137.39 406.338 137.122ZM405.264 134.884C405.783 134.884 406.195 135.313 406.195 135.842C406.195 136.379 405.783 136.799 405.264 136.799H403.592V134.884H405.264ZM405.461 139.592H403.592V137.56H405.461C406.015 137.56 406.454 138.008 406.454 138.571C406.454 139.145 406.015 139.592 405.461 139.592ZM412.136 134.105V136.764H409.094V134.105H408.263V140.371H409.094V137.551H412.136V140.371H412.959V134.105H412.136ZM416.223 140.487C417.503 140.487 418.388 139.79 418.388 138.689C418.388 137.48 417.359 137.158 416.269 136.799C415.392 136.522 414.953 136.307 414.953 135.725C414.953 135.152 415.418 134.794 416.089 134.794C416.85 134.794 417.288 135.224 417.511 135.761L418.209 135.358C417.861 134.57 417.118 133.988 416.089 133.988C415.043 133.988 414.122 134.633 414.122 135.761C414.122 136.925 415.088 137.238 416.089 137.56C417.01 137.847 417.565 138.062 417.565 138.706C417.565 139.27 417.126 139.672 416.241 139.672C415.33 139.672 414.793 139.226 414.569 138.537L413.854 138.948C414.184 139.888 415.034 140.487 416.223 140.487Z" fill="black"/>
<path d="M319.766 128.435H278.029C273.089 128.435 269.085 132.443 269.085 137.387C269.085 142.331 273.089 146.339 278.029 146.339H319.766C324.705 146.339 328.709 142.331 328.709 137.387C328.709 132.443 324.705 128.435 319.766 128.435Z" fill="white"/>
<path d="M319.766 128.435H278.029C273.089 128.435 269.085 132.443 269.085 137.387C269.085 142.331 273.089 146.339 278.029 146.339H319.766C324.705 146.339 328.709 142.331 328.709 137.387C328.709 132.443 324.705 128.435 319.766 128.435Z" fill="#FF0000" fill-opacity="0.1"/>
<path d="M283.825 140.497C285.158 140.497 286.096 139.78 286.096 138.607C286.096 137.327 285.04 136.996 284.049 136.683C283.1 136.396 282.859 136.191 282.859 135.805C282.859 135.447 283.163 135.179 283.682 135.179C284.317 135.179 284.656 135.51 284.88 135.985L285.917 135.385C285.497 134.507 284.71 133.979 283.682 133.979C282.609 133.979 281.624 134.66 281.624 135.841C281.624 137.032 282.555 137.435 283.512 137.712C284.441 137.981 284.862 138.16 284.862 138.625C284.862 138.975 284.603 139.288 283.86 139.288C283.082 139.288 282.645 138.912 282.421 138.331L281.365 138.948C281.705 139.878 282.545 140.497 283.825 140.497ZM289.276 137.005V135.895H288.264V134.642L287.111 134.991V135.895H286.332V137.005H287.111V138.867C287.111 140.076 287.656 140.551 289.276 140.371V139.324C288.613 139.36 288.264 139.35 288.264 138.867V137.005H289.276ZM292.076 140.497C293.392 140.497 294.447 139.466 294.447 138.133C294.447 136.799 293.392 135.77 292.076 135.77C290.762 135.77 289.715 136.799 289.715 138.133C289.715 139.466 290.762 140.497 292.076 140.497ZM292.076 139.368C291.397 139.368 290.869 138.858 290.869 138.133C290.869 137.408 291.397 136.898 292.076 136.898C292.765 136.898 293.294 137.408 293.294 138.133C293.294 138.858 292.765 139.368 292.076 139.368ZM297.861 135.77C297.208 135.77 296.735 136.011 296.413 136.423V135.895H295.259V142.162H296.413V139.842C296.735 140.255 297.208 140.497 297.861 140.497C299.06 140.497 300.044 139.466 300.044 138.133C300.044 136.799 299.06 135.77 297.861 135.77ZM297.647 139.396C296.94 139.396 296.413 138.885 296.413 138.133C296.413 137.381 296.94 136.871 297.647 136.871C298.363 136.871 298.89 137.381 298.89 138.133C298.89 138.885 298.363 139.396 297.647 139.396ZM303.46 135.77C302.807 135.77 302.333 136.011 302.01 136.423V135.895H300.857V142.162H302.01V139.842C302.333 140.255 302.807 140.497 303.46 140.497C304.658 140.497 305.643 139.466 305.643 138.133C305.643 136.799 304.658 135.77 303.46 135.77ZM303.246 139.396C302.539 139.396 302.01 138.885 302.01 138.133C302.01 137.381 302.539 136.871 303.246 136.871C303.961 136.871 304.488 137.381 304.488 138.133C304.488 138.885 303.961 139.396 303.246 139.396ZM307.431 138.607H310.802C310.829 138.455 310.847 138.303 310.847 138.133C310.847 136.817 309.908 135.77 308.585 135.77C307.181 135.77 306.224 136.799 306.224 138.133C306.224 139.466 307.171 140.497 308.674 140.497C309.532 140.497 310.203 140.147 310.623 139.538L309.694 139.002C309.496 139.262 309.139 139.45 308.691 139.45C308.084 139.45 307.591 139.198 307.431 138.607ZM307.413 137.712C307.547 137.139 307.968 136.808 308.585 136.808C309.067 136.808 309.55 137.068 309.694 137.712H307.413ZM315.007 134.105V136.423C314.686 136.011 314.211 135.77 313.558 135.77C312.359 135.77 311.376 136.799 311.376 138.133C311.376 139.466 312.359 140.497 313.558 140.497C314.211 140.497 314.686 140.255 315.007 139.842V140.371H316.162V134.105H315.007ZM313.773 139.396C313.058 139.396 312.529 138.885 312.529 138.133C312.529 137.381 313.058 136.871 313.773 136.871C314.48 136.871 315.007 137.381 315.007 138.133C315.007 138.885 314.48 139.396 313.773 139.396Z" fill="#CE0000"/>
<path d="M538.583 140.371H539.519L541.767 134.105H540.861L539.055 139.332L537.241 134.105H536.348L538.583 140.371ZM545.589 135.895V136.665C545.232 136.119 544.659 135.779 543.901 135.779C542.655 135.779 541.636 136.808 541.636 138.133C541.636 139.458 542.655 140.487 543.901 140.487C544.659 140.487 545.232 140.147 545.589 139.602V140.371H546.37V135.895H545.589ZM543.997 139.736C543.103 139.736 542.417 139.046 542.417 138.133C542.417 137.22 543.103 136.531 543.997 136.531C544.904 136.531 545.589 137.22 545.589 138.133C545.589 139.046 544.904 139.736 543.997 139.736ZM549.774 135.779C549.149 135.779 548.654 136.012 548.326 136.54V135.895H547.544V140.371H548.326V137.999C548.326 136.943 548.904 136.522 549.619 136.522C550.311 136.522 550.728 136.934 550.728 137.668V140.371H551.51V137.623C551.51 136.477 550.818 135.779 549.774 135.779ZM552.989 135.08C553.275 135.08 553.507 134.848 553.507 134.561C553.507 134.275 553.275 134.033 552.989 134.033C552.697 134.033 552.464 134.275 552.464 134.561C552.464 134.848 552.697 135.08 552.989 135.08ZM552.594 140.371H553.376V135.895H552.594V140.371ZM554.563 140.371H555.337V133.836H554.563V140.371ZM556.524 140.371H557.305V133.836H556.524V140.371ZM562.195 135.895V136.665C561.837 136.119 561.264 135.779 560.501 135.779C559.261 135.779 558.242 136.808 558.242 138.133C558.242 139.458 559.261 140.487 560.501 140.487C561.264 140.487 561.837 140.147 562.195 139.602V140.371H562.97V135.895H562.195ZM560.603 139.736C559.708 139.736 559.016 139.046 559.016 138.133C559.016 137.22 559.708 136.531 560.603 136.531C561.503 136.531 562.195 137.22 562.195 138.133C562.195 139.046 561.503 139.736 560.603 139.736Z" fill="black"/>
<path d="M638.168 134.105L636.522 134.678L636.731 135.394L638.062 135V140.371H638.884V134.105H638.168ZM648.531 137.265H645.401V138.017H647.697C647.535 138.957 646.766 139.672 645.473 139.672C643.976 139.672 642.986 138.599 642.986 137.238C642.986 135.868 643.987 134.794 645.437 134.794C646.319 134.794 647.083 135.251 647.44 135.922L648.156 135.501C647.638 134.606 646.617 133.988 645.443 133.988C643.541 133.988 642.163 135.439 642.163 137.238C642.163 139.028 643.53 140.487 645.461 140.487C647.351 140.487 648.531 139.234 648.531 137.641V137.265Z" fill="black"/>
<path d="M794.976 165.735H29.3921C24.9465 165.735 21.3428 169.343 21.3428 173.792V194.085C21.3428 198.535 24.9465 202.142 29.3921 202.142H794.976C799.421 202.142 803.026 198.535 803.026 194.085V173.792C803.026 169.343 799.421 165.735 794.976 165.735Z" fill="white" stroke="#E6E6E6"/>
<path d="M780.07 175.285H752.045C747.27 175.285 743.4 179.159 743.4 183.938C743.4 188.718 747.27 192.593 752.045 192.593H780.07C784.844 192.593 788.716 188.718 788.716 183.938C788.716 179.159 784.844 175.285 780.07 175.285Z" fill="white" stroke="#E6E6E6"/>
<path d="M765.426 185.977V184.852H767.322V183.921H765.426V182.855H767.502V181.909H764.437V186.923H767.536V185.977H765.426ZM770.823 181.909V183.764C770.565 183.434 770.184 183.241 769.665 183.241C768.705 183.241 767.918 184.065 767.918 185.132C767.918 186.199 768.705 187.022 769.665 187.022C770.184 187.022 770.565 186.829 770.823 186.5V186.923H771.747V181.909H770.823ZM769.832 186.141C769.26 186.141 768.843 185.733 768.843 185.132C768.843 184.53 769.26 184.122 769.832 184.122C770.399 184.122 770.823 184.53 770.823 185.132C770.823 185.733 770.399 186.141 769.832 186.141ZM773.047 182.912C773.362 182.912 773.618 182.654 773.618 182.346C773.618 182.039 773.362 181.773 773.047 181.773C772.742 181.773 772.48 182.039 772.48 182.346C772.48 182.654 772.742 182.912 773.047 182.912ZM772.588 186.923H773.512V183.342H772.588V186.923ZM776.404 184.23V183.342H775.592V182.339L774.673 182.618V183.342H774.048V184.23H774.673V185.719C774.673 186.686 775.109 187.065 776.404 186.923V186.085C775.873 186.114 775.592 186.105 775.592 185.719V184.23H776.404Z" fill="black"/>
<path d="M760.96 182.433L761.414 181.982C761.634 181.758 761.646 181.502 761.438 181.292L761.252 181.103C761.043 180.892 760.782 180.91 760.561 181.129L760.101 181.581L760.96 182.433ZM756.256 187.146L760.543 182.844L759.696 181.991L755.41 186.294L755.039 187.254C754.98 187.411 755.141 187.561 755.284 187.509L756.256 187.146Z" fill="black"/>
<path d="M319.766 174.986H278.029C273.089 174.986 269.085 178.995 269.085 183.938C269.085 188.883 273.089 192.891 278.029 192.891H319.766C324.705 192.891 328.709 188.883 328.709 183.938C328.709 178.995 324.705 174.986 319.766 174.986Z" fill="white"/>
<path d="M319.766 174.986H278.029C273.089 174.986 269.085 178.995 269.085 183.938C269.085 188.883 273.089 192.891 278.029 192.891H319.766C324.705 192.891 328.709 188.883 328.709 183.938C328.709 178.995 324.705 174.986 319.766 174.986Z" fill="#FF7B00" fill-opacity="0.1"/>
<path d="M36.6935 185.043H40.4409C40.4587 184.926 40.4677 184.809 40.4677 184.693C40.4677 183.44 39.5912 182.329 38.2407 182.329C36.8455 182.329 35.8975 183.36 35.8975 184.685C35.8975 186.028 36.8545 187.039 38.2944 187.039C39.1889 187.039 39.8685 186.637 40.2621 186.028L39.6002 185.652C39.3765 186.018 38.9294 186.305 38.3123 186.305C37.4805 186.305 36.8455 185.848 36.6935 185.043ZM38.2407 183.064C38.9115 183.064 39.5465 183.476 39.6807 184.363H36.6935C36.8187 183.584 37.4 183.064 38.2407 183.064ZM45.0344 186.923L43.3262 184.613L44.9361 182.447H44.0237L42.87 184.004L41.7163 182.447H40.7951L42.4138 184.621L40.6966 186.923H41.609L42.87 185.23L44.1222 186.923H45.0344ZM49.1438 182.447V183.216C48.786 182.67 48.2136 182.329 47.4534 182.329C46.2102 182.329 45.1907 183.36 45.1907 184.685C45.1907 186.01 46.2102 187.039 47.4534 187.039C48.2136 187.039 48.786 186.699 49.1438 186.152V186.923H49.9218V182.447H49.1438ZM47.5518 186.287C46.6574 186.287 45.9687 185.598 45.9687 184.685C45.9687 183.772 46.6574 183.082 47.5518 183.082C48.4551 183.082 49.1438 183.772 49.1438 184.685C49.1438 185.598 48.4551 186.287 47.5518 186.287ZM55.9303 182.329C55.349 182.329 54.8391 182.581 54.5261 183.092C54.2668 182.607 53.8196 182.329 53.2114 182.329C52.6658 182.329 52.2007 182.545 51.8787 183.046V182.447H51.1007V186.923H51.8787V184.433C51.8787 183.466 52.4243 183.074 53.0236 183.074C53.6049 183.074 53.9716 183.458 53.9716 184.165V186.923H54.7496V184.433C54.7496 183.466 55.2237 183.074 55.8498 183.074C56.44 183.074 56.8337 183.458 56.8337 184.165V186.923H57.6117V184.139C57.6117 183.02 56.923 182.329 55.9303 182.329ZM61.1594 182.329C60.3992 182.329 59.8267 182.67 59.469 183.216V182.447H58.6908V188.713H59.469V186.152C59.8267 186.699 60.3992 187.039 61.1594 187.039C62.4026 187.039 63.4221 186.01 63.4221 184.685C63.4221 183.36 62.4026 182.329 61.1594 182.329ZM61.061 186.287C60.1577 186.287 59.469 185.598 59.469 184.685C59.469 183.772 60.1577 183.082 61.061 183.082C61.9554 183.082 62.6441 183.772 62.6441 184.685C62.6441 185.598 61.9554 186.287 61.061 186.287ZM64.3505 186.923H65.1287V180.387H64.3505V186.923ZM66.8614 185.043H70.6088C70.6266 184.926 70.6356 184.809 70.6356 184.693C70.6356 183.44 69.7591 182.329 68.4086 182.329C67.0134 182.329 66.0654 183.36 66.0654 184.685C66.0654 186.028 67.0224 187.039 68.4622 187.039C69.3566 187.039 70.0363 186.637 70.4298 186.028L69.768 185.652C69.5444 186.018 69.0973 186.305 68.4801 186.305C67.6484 186.305 67.0134 185.848 66.8614 185.043ZM68.4086 183.064C69.0794 183.064 69.7144 183.476 69.8485 184.363H66.8614C66.9865 183.584 67.5679 183.064 68.4086 183.064ZM71.6641 187.021C71.995 187.021 72.2455 186.761 72.2455 186.439C72.2455 186.117 71.995 185.858 71.6641 185.858C71.3421 185.858 71.0828 186.117 71.0828 186.439C71.0828 186.761 71.3421 187.021 71.6641 187.021ZM76.4323 182.447V184.819C76.4323 185.874 75.851 186.296 75.1355 186.296C74.4468 186.296 74.0265 185.884 74.0265 185.15V182.447H73.2483V185.195C73.2483 186.341 73.937 187.039 74.9835 187.039C75.6095 187.039 76.1013 186.807 76.4323 186.278V186.923H77.2104V182.447H76.4323ZM79.057 183.654C79.057 183.252 79.4506 183.056 79.8529 183.056C80.2466 183.056 80.6401 183.226 80.8099 183.628L81.4628 183.262C81.1766 182.679 80.5864 182.329 79.8529 182.329C78.9497 182.329 78.2699 182.876 78.2699 183.664C78.2699 185.284 80.7741 184.739 80.7741 185.696C80.7741 186.135 80.3628 186.305 79.8887 186.305C79.3342 186.305 78.9229 186.036 78.7797 185.606L78.1089 185.992C78.3684 186.609 78.9944 187.039 79.8887 187.039C80.8458 187.039 81.5613 186.529 81.5613 185.696C81.5613 184.049 79.057 184.613 79.057 183.654ZM82.2141 186.923H86.2567V186.117H83.4215L85.0225 184.523C85.6395 183.906 86.1404 183.234 86.1404 182.455C86.1404 181.22 85.1655 180.54 84.1907 180.54C83.3768 180.54 82.6166 180.942 82.2141 181.775L82.9118 182.187C83.18 181.623 83.6273 181.346 84.1997 181.346C84.781 181.346 85.3087 181.731 85.3087 182.465C85.3087 182.992 84.9152 183.494 84.4232 183.986L82.2141 186.242V186.923ZM87.6906 187.021C88.0216 187.021 88.272 186.761 88.272 186.439C88.272 186.117 88.0216 185.858 87.6906 185.858C87.3686 185.858 87.1093 186.117 87.1093 186.439C87.1093 186.761 87.3686 187.021 87.6906 187.021ZM94.2034 182.329C93.6221 182.329 93.1124 182.581 92.7994 183.092C92.5399 182.607 92.0927 182.329 91.4845 182.329C90.939 182.329 90.474 182.545 90.152 183.046V182.447H89.3738V186.923H90.152V184.433C90.152 183.466 90.6975 183.074 91.2968 183.074C91.8782 183.074 92.2449 183.458 92.2449 184.165V186.923H93.0229V184.433C93.0229 183.466 93.4969 183.074 94.1229 183.074C94.7133 183.074 95.1068 183.458 95.1068 184.165V186.923H95.885V184.139C95.885 183.02 95.1963 182.329 94.2034 182.329ZM97.3571 181.632C97.6432 181.632 97.8757 181.399 97.8757 181.112C97.8757 180.826 97.6432 180.584 97.3571 180.584C97.0619 180.584 96.8294 180.826 96.8294 181.112C96.8294 181.399 97.0619 181.632 97.3571 181.632ZM96.9635 186.923H97.7416V182.447H96.9635V186.923ZM101.156 182.329C100.53 182.329 100.038 182.563 99.7069 183.092V182.447H98.9288V186.923H99.7069V184.551C99.7069 183.494 100.288 183.074 101.004 183.074C101.692 183.074 102.113 183.484 102.113 184.219V186.923H102.891V184.175C102.891 183.028 102.202 182.329 101.156 182.329ZM104.523 185.043H108.27C108.288 184.926 108.297 184.809 108.297 184.693C108.297 183.44 107.421 182.329 106.07 182.329C104.675 182.329 103.727 183.36 103.727 184.685C103.727 186.028 104.684 187.039 106.124 187.039C107.018 187.039 107.698 186.637 108.091 186.028L107.429 185.652C107.206 186.018 106.759 186.305 106.142 186.305C105.31 186.305 104.675 185.848 104.523 185.043ZM106.07 183.064C106.741 183.064 107.376 183.476 107.51 184.363H104.523C104.648 183.584 105.229 183.064 106.07 183.064ZM111.359 180.54C110.08 180.54 109.4 181.122 109.4 182.313V182.447H108.685V183.198H109.4V186.923H110.178V183.198H111.108V182.447H110.178V182.313C110.178 181.533 110.581 181.238 111.359 181.238C111.511 181.238 111.672 181.246 111.833 181.256V186.923H112.611V180.674C112.182 180.594 111.788 180.54 111.359 180.54ZM114.349 185.043H118.096C118.114 184.926 118.123 184.809 118.123 184.693C118.123 183.44 117.247 182.329 115.896 182.329C114.501 182.329 113.553 183.36 113.553 184.685C113.553 186.028 114.51 187.039 115.95 187.039C116.844 187.039 117.524 186.637 117.917 186.028L117.256 185.652C117.032 186.018 116.585 186.305 115.968 186.305C115.136 186.305 114.501 185.848 114.349 185.043ZM115.896 183.064C116.567 183.064 117.202 183.476 117.336 184.363H114.349C114.474 183.584 115.056 183.064 115.896 183.064ZM122.689 186.923L120.981 184.613L122.591 182.447H121.679L120.525 184.004L119.371 182.447H118.45L120.069 184.621L118.352 186.923H119.264L120.525 185.23L121.777 186.923H122.689ZM123.903 187.021C124.234 187.021 124.484 186.761 124.484 186.439C124.484 186.117 124.234 185.858 123.903 185.858C123.581 185.858 123.321 186.117 123.321 186.439C123.321 186.761 123.581 187.021 123.903 187.021ZM125.979 181.632C126.265 181.632 126.498 181.399 126.498 181.112C126.498 180.826 126.265 180.584 125.979 180.584C125.684 180.584 125.451 180.826 125.451 181.112C125.451 181.399 125.684 181.632 125.979 181.632ZM125.585 186.923H126.363V182.447H125.585V186.923ZM129.652 187.039C130.958 187.039 132.013 186.01 132.013 184.685C132.013 183.36 130.958 182.329 129.652 182.329C128.347 182.329 127.3 183.36 127.3 184.685C127.3 186.01 128.347 187.039 129.652 187.039ZM129.652 186.278C128.767 186.278 128.078 185.588 128.078 184.685C128.078 183.78 128.767 183.092 129.652 183.092C130.547 183.092 131.235 183.78 131.235 184.685C131.235 185.588 130.547 186.278 129.652 186.278Z" fill="black"/>
<path d="M406.338 183.672C406.748 183.386 407.017 182.93 407.017 182.365C407.017 181.398 406.239 180.656 405.264 180.656H402.761V186.923H405.461C406.472 186.923 407.277 186.152 407.277 185.15C407.277 184.469 406.901 183.942 406.338 183.672ZM405.264 181.434C405.783 181.434 406.195 181.865 406.195 182.393C406.195 182.93 405.783 183.35 405.264 183.35H403.592V181.434H405.264ZM405.461 186.144H403.592V184.112H405.461C406.015 184.112 406.454 184.559 406.454 185.123C406.454 185.696 406.015 186.144 405.461 186.144ZM412.136 180.656V183.316H409.094V180.656H408.263V186.923H409.094V184.103H412.136V186.923H412.959V180.656H412.136ZM416.223 187.039C417.503 187.039 418.388 186.341 418.388 185.24C418.388 184.031 417.359 183.708 416.269 183.35C415.392 183.074 414.953 182.858 414.953 182.277C414.953 181.704 415.418 181.346 416.089 181.346C416.85 181.346 417.288 181.775 417.511 182.313L418.209 181.909C417.861 181.122 417.118 180.54 416.089 180.54C415.043 180.54 414.122 181.184 414.122 182.313C414.122 183.476 415.088 183.79 416.089 184.112C417.01 184.399 417.565 184.613 417.565 185.258C417.565 185.822 417.126 186.224 416.241 186.224C415.33 186.224 414.793 185.776 414.569 185.087L413.854 185.5C414.184 186.439 415.034 187.039 416.223 187.039Z" fill="black"/>
<path d="M281.537 186.923H282.869L281.483 184.559C282.198 184.228 282.691 183.52 282.691 182.733C282.691 181.587 281.76 180.656 280.606 180.656H278.103V186.923H279.336V184.747H280.275L281.537 186.923ZM279.336 181.811H280.606C281.071 181.811 281.455 182.213 281.455 182.733C281.455 183.252 281.071 183.664 280.606 183.664H279.336V181.811ZM284.289 185.159H287.662C287.688 185.007 287.706 184.855 287.706 184.685C287.706 183.368 286.767 182.321 285.443 182.321C284.039 182.321 283.082 183.35 283.082 184.685C283.082 186.018 284.031 187.047 285.533 187.047C286.392 187.047 287.063 186.699 287.483 186.09L286.552 185.554C286.356 185.812 285.998 186 285.551 186C284.942 186 284.451 185.75 284.289 185.159ZM284.271 184.264C284.406 183.69 284.826 183.36 285.443 183.36C285.927 183.36 286.41 183.62 286.552 184.264H284.271ZM289.402 183.718C289.402 183.476 289.634 183.35 289.92 183.35C290.251 183.35 290.501 183.52 290.635 183.808L291.619 183.27C291.27 182.653 290.645 182.321 289.92 182.321C288.999 182.321 288.22 182.831 288.22 183.744C288.22 185.32 290.529 184.962 290.529 185.616C290.529 185.876 290.279 186 289.911 186C289.464 186 289.16 185.786 289.035 185.419L288.034 185.982C288.355 186.673 289.017 187.047 289.911 187.047C290.868 187.047 291.709 186.583 291.709 185.616C291.709 183.968 289.402 184.381 289.402 183.718ZM294.878 183.556V182.447H293.867V181.194L292.713 181.542V182.447H291.934V183.556H292.713V185.419C292.713 186.627 293.258 187.101 294.878 186.923V185.876C294.215 185.91 293.867 185.902 293.867 185.419V183.556H294.878ZM298.95 182.447V182.975C298.627 182.571 298.145 182.321 297.492 182.321C296.302 182.321 295.319 183.35 295.319 184.685C295.319 186.018 296.302 187.047 297.492 187.047C298.145 187.047 298.627 186.797 298.95 186.394V186.923H300.103V182.447H298.95ZM297.706 185.946C296.999 185.946 296.472 185.436 296.472 184.685C296.472 183.932 296.999 183.422 297.706 183.422C298.423 183.422 298.95 183.932 298.95 184.685C298.95 185.436 298.423 185.946 297.706 185.946ZM302.304 183.216V182.447H301.15V186.923H302.304V184.783C302.304 183.843 303.063 183.574 303.664 183.646V182.357C303.099 182.357 302.536 182.607 302.304 183.216ZM307.018 183.556V182.447H306.008V181.194L304.854 181.542V182.447H304.076V183.556H304.854V185.419C304.854 186.627 305.399 187.101 307.018 186.923V185.876C306.357 185.91 306.008 185.902 306.008 185.419V183.556H307.018ZM308.404 181.909C308.798 181.909 309.119 181.587 309.119 181.202C309.119 180.818 308.798 180.486 308.404 180.486C308.019 180.486 307.697 180.818 307.697 181.202C307.697 181.587 308.019 181.909 308.404 181.909ZM307.831 186.923H308.985V182.447H307.831V186.923ZM312.527 182.321C311.928 182.321 311.463 182.545 311.195 182.948V182.447H310.041V186.923H311.195V184.505C311.195 183.726 311.615 183.396 312.178 183.396C312.697 183.396 313.064 183.708 313.064 184.317V186.923H314.218V184.175C314.218 182.984 313.476 182.321 312.527 182.321ZM318.628 182.447V183.002C318.315 182.581 317.833 182.321 317.198 182.321C315.928 182.321 314.971 183.36 314.971 184.613C314.971 185.876 315.928 186.905 317.198 186.905C317.833 186.905 318.315 186.645 318.628 186.224V186.708C318.628 187.415 318.181 187.809 317.457 187.809C316.768 187.809 316.473 187.531 316.285 187.183L315.302 187.746C315.694 188.472 316.463 188.839 317.421 188.839C318.602 188.839 319.755 188.176 319.755 186.708V182.447H318.628ZM317.376 185.84C316.651 185.84 316.124 185.329 316.124 184.613C316.124 183.906 316.651 183.396 317.376 183.396C318.101 183.396 318.628 183.906 318.628 184.613C318.628 185.329 318.101 185.84 317.376 185.84Z" fill="#D06400"/>
<path d="M538.583 186.923H539.519L541.767 180.656H540.861L539.055 185.884L537.241 180.656H536.348L538.583 186.923ZM545.589 182.447V183.216C545.232 182.67 544.659 182.329 543.901 182.329C542.655 182.329 541.636 183.36 541.636 184.685C541.636 186.01 542.655 187.039 543.901 187.039C544.659 187.039 545.232 186.699 545.589 186.152V186.923H546.37V182.447H545.589ZM543.997 186.287C543.103 186.287 542.417 185.598 542.417 184.685C542.417 183.772 543.103 183.082 543.997 183.082C544.904 183.082 545.589 183.772 545.589 184.685C545.589 185.598 544.904 186.287 543.997 186.287ZM549.774 182.329C549.149 182.329 548.654 182.563 548.326 183.092V182.447H547.544V186.923H548.326V184.551C548.326 183.494 548.904 183.074 549.619 183.074C550.311 183.074 550.728 183.484 550.728 184.219V186.923H551.51V184.175C551.51 183.028 550.818 182.329 549.774 182.329ZM552.989 181.632C553.275 181.632 553.507 181.399 553.507 181.112C553.507 180.826 553.275 180.584 552.989 180.584C552.697 180.584 552.464 180.826 552.464 181.112C552.464 181.399 552.697 181.632 552.989 181.632ZM552.594 186.923H553.376V182.447H552.594V186.923ZM554.563 186.923H555.337V180.387H554.563V186.923ZM556.524 186.923H557.305V180.387H556.524V186.923ZM562.195 182.447V183.216C561.837 182.67 561.264 182.329 560.501 182.329C559.261 182.329 558.242 183.36 558.242 184.685C558.242 186.01 559.261 187.039 560.501 187.039C561.264 187.039 561.837 186.699 562.195 186.152V186.923H562.97V182.447H562.195ZM560.603 186.287C559.708 186.287 559.016 185.598 559.016 184.685C559.016 183.772 559.708 183.082 560.603 183.082C561.503 183.082 562.195 183.772 562.195 184.685C562.195 185.598 561.503 186.287 560.603 186.287Z" fill="black"/>
<path d="M638.168 180.656L636.522 181.228L636.731 181.945L638.062 181.551V186.923H638.884V180.656H638.168ZM648.531 183.816H645.401V184.569H647.697C647.535 185.508 646.766 186.224 645.473 186.224C643.976 186.224 642.986 185.15 642.986 183.79C642.986 182.419 643.987 181.346 645.437 181.346C646.319 181.346 647.083 181.802 647.44 182.473L648.156 182.053C647.638 181.158 646.617 180.54 645.443 180.54C643.541 180.54 642.163 181.991 642.163 183.79C642.163 185.58 643.53 187.039 645.461 187.039C647.351 187.039 648.531 185.786 648.531 184.193V183.816Z" fill="black"/>
<path d="M799.15 14.8915H746.68C744.622 14.8915 742.954 16.5615 742.954 18.6216V26.9769C742.954 29.037 744.622 30.7071 746.68 30.7071H799.15C801.208 30.7071 802.877 29.037 802.877 26.9769V18.6216C802.877 16.5615 801.208 14.8915 799.15 14.8915Z" stroke="#0047FF" stroke-width="1.5"/>
<path d="M758.206 25.7834H759.279L757.521 20.7701H756.298L754.546 25.7834H755.607L755.911 24.881H757.908L758.206 25.7834ZM756.226 23.957L756.912 21.9088L757.599 23.957H756.226ZM762.339 20.7701V22.625C762.081 22.2956 761.7 22.1022 761.175 22.1022C760.221 22.1022 759.434 22.9257 759.434 23.9929C759.434 25.06 760.221 25.8837 761.175 25.8837C761.7 25.8837 762.081 25.6903 762.339 25.3608V25.7834H763.263V20.7701H762.339ZM761.348 25.0027C760.776 25.0027 760.352 24.5945 760.352 23.9929C760.352 23.3913 760.776 22.9832 761.348 22.9832C761.915 22.9832 762.339 23.3913 762.339 23.9929C762.339 24.5945 761.915 25.0027 761.348 25.0027ZM766.816 20.7701V22.625C766.56 22.2956 766.178 22.1022 765.66 22.1022C764.7 22.1022 763.913 22.9257 763.913 23.9929C763.913 25.06 764.7 25.8837 765.66 25.8837C766.178 25.8837 766.56 25.6903 766.816 25.3608V25.7834H767.74V20.7701H766.816ZM765.827 25.0027C765.254 25.0027 764.837 24.5945 764.837 23.9929C764.837 23.3913 765.254 22.9832 765.827 22.9832C766.393 22.9832 766.816 23.3913 766.816 23.9929C766.816 24.5945 766.393 25.0027 765.827 25.0027ZM772.123 25.8837C773.19 25.8837 773.941 25.3106 773.941 24.3725C773.941 23.3483 773.101 23.0834 772.302 22.8327C771.545 22.6035 771.354 22.4389 771.354 22.1308C771.354 21.8444 771.598 21.6296 772.01 21.6296C772.516 21.6296 772.79 21.8945 772.97 22.2741L773.798 21.7943C773.465 21.0924 772.833 20.6698 772.01 20.6698C771.151 20.6698 770.364 21.2142 770.364 22.1595C770.364 23.1121 771.109 23.4343 771.873 23.6563C772.617 23.8711 772.957 24.0144 772.957 24.3868C772.957 24.6661 772.748 24.9168 772.152 24.9168C771.533 24.9168 771.181 24.616 771.001 24.1504L770.155 24.6446C770.429 25.3894 771.104 25.8837 772.123 25.8837ZM775.421 24.3725H778.121C778.139 24.2507 778.157 24.129 778.157 23.9929C778.157 22.9401 777.406 22.1022 776.345 22.1022C775.223 22.1022 774.454 22.9257 774.454 23.9929C774.454 25.06 775.212 25.8837 776.415 25.8837C777.101 25.8837 777.638 25.6043 777.978 25.1172L777.233 24.6876C777.072 24.8952 776.786 25.0457 776.428 25.0457C775.945 25.0457 775.551 24.8452 775.421 24.3725ZM775.408 23.6563C775.516 23.198 775.849 22.9329 776.345 22.9329C776.732 22.9329 777.119 23.1407 777.233 23.6563H775.408ZM779.72 22.8184V22.2025H778.801V25.7834H779.72V24.0717C779.72 23.3197 780.327 23.1049 780.809 23.1621V22.1308C780.357 22.1308 779.91 22.3314 779.72 22.8184ZM783.702 22.2025L782.832 24.7091L781.967 22.2025H780.948L782.306 25.7834H783.361L784.721 22.2025H783.702ZM785.807 24.3725H788.501C788.526 24.2507 788.537 24.129 788.537 23.9929C788.537 22.9401 787.786 22.1022 786.725 22.1022C785.604 22.1022 784.841 22.9257 784.841 23.9929C784.841 25.06 785.598 25.8837 786.796 25.8837C787.489 25.8837 788.024 25.6043 788.359 25.1172L787.613 24.6876C787.458 24.8952 787.172 25.0457 786.814 25.0457C786.326 25.0457 785.931 24.8452 785.807 24.3725ZM785.789 23.6563C785.897 23.198 786.236 22.9329 786.725 22.9329C787.113 22.9329 787.5 23.1407 787.613 23.6563H785.789ZM790.106 22.8184V22.2025H789.182V25.7834H790.106V24.0717C790.106 23.3197 790.714 23.1049 791.19 23.1621V22.1308C790.743 22.1308 790.291 22.3314 790.106 22.8184Z" fill="#0047FF"/>
</g>
<defs>
<clipPath id="clip0">
<rect width="822.986" height="587.847" fill="white"/>
</clipPath>
</defs>
</svg>
