<svg width="595" height="425" viewBox="0 0 595 425" fill="none" xmlns="http://www.w3.org/2000/svg">
<path d="M667 -34H-71V432H667V-34Z" fill="white"/>
<path d="M18.3597 20.0801C19.9013 20.0801 20.9876 19.2517 20.9876 17.8951C20.9876 16.4143 19.7668 16.0311 18.6184 15.6687C17.5217 15.3373 17.2424 15.0991 17.2424 14.6538C17.2424 14.2396 17.5942 13.9289 18.1942 13.9289C18.9288 13.9289 19.3219 14.3121 19.5805 14.8609L20.7807 14.1671C20.2944 13.1523 19.384 12.5413 18.1942 12.5413C16.9527 12.5413 15.8147 13.3283 15.8147 14.6952C15.8147 16.0725 16.8906 16.5385 17.9976 16.8595C19.0736 17.1702 19.5599 17.3773 19.5599 17.9158C19.5599 18.3197 19.2598 18.6821 18.4011 18.6821C17.501 18.6821 16.9941 18.2472 16.7355 17.5741L15.5146 18.2886C15.9078 19.3656 16.8803 20.0801 18.3597 20.0801ZM23.1257 17.8951H27.0261C27.0571 17.7191 27.0778 17.543 27.0778 17.3463C27.0778 15.824 25.9915 14.6124 24.4603 14.6124C22.836 14.6124 21.729 15.8033 21.729 17.3463C21.729 18.8892 22.8257 20.0801 24.5638 20.0801C25.557 20.0801 26.3329 19.6763 26.8191 18.9721L25.7432 18.3507C25.5156 18.6511 25.1017 18.8685 24.5845 18.8685C23.8809 18.8685 23.3119 18.5786 23.1257 17.8951ZM23.105 16.8595C23.2602 16.1968 23.7464 15.8136 24.4603 15.8136C25.019 15.8136 25.5777 16.1139 25.7432 16.8595H23.105ZM29.3444 15.6479V14.7574H28.0098V19.9351H29.3444V17.4602C29.3444 16.3728 30.2238 16.0622 30.9169 16.145V14.6538C30.2652 14.6538 29.6134 14.9438 29.3444 15.6479ZM35.101 14.7574L33.8388 18.3818L32.5869 14.7574H31.1178L33.0835 19.9351H34.6044L36.5701 14.7574H35.101ZM38.1392 17.8951H42.0395C42.0706 17.7191 42.0913 17.543 42.0913 17.3463C42.0913 15.824 41.005 14.6124 39.4738 14.6124C37.8495 14.6124 36.7425 15.8033 36.7425 17.3463C36.7425 18.8892 37.8391 20.0801 39.5772 20.0801C40.5704 20.0801 41.3464 19.6763 41.8326 18.9721L40.7567 18.3507C40.5291 18.6511 40.1152 18.8685 39.5979 18.8685C38.8944 18.8685 38.3254 18.5786 38.1392 17.8951ZM38.1185 16.8595C38.2737 16.1968 38.7599 15.8136 39.4738 15.8136C40.0324 15.8136 40.5911 16.1139 40.7567 16.8595H38.1185ZM44.3578 15.6479V14.7574H43.0232V19.9351H44.3578V17.4602C44.3578 16.3728 45.2372 16.0622 45.9304 16.145V14.6538C45.2786 14.6538 44.6268 14.9438 44.3578 15.6479ZM50.7869 18.5682V12.6863H49.3592V19.9351H53.5492V18.5682H50.7869ZM54.9606 14.136C55.4158 14.136 55.7882 13.7632 55.7882 13.3179C55.7882 12.8727 55.4158 12.4895 54.9606 12.4895C54.5157 12.4895 54.1432 12.8727 54.1432 13.3179C54.1432 13.7632 54.5157 14.136 54.9606 14.136ZM54.2984 19.9351H55.633V14.7574H54.2984V19.9351ZM58.0453 16.2279C58.0453 15.9483 58.3143 15.8033 58.6454 15.8033C59.0282 15.8033 59.3179 16 59.4731 16.3314L60.6111 15.7101C60.2076 14.9955 59.4834 14.6124 58.6454 14.6124C57.5798 14.6124 56.6797 15.2027 56.6797 16.2589C56.6797 18.0815 59.3489 17.6673 59.3489 18.4232C59.3489 18.7235 59.0592 18.8685 58.635 18.8685C58.1178 18.8685 57.766 18.62 57.6211 18.1954L56.4624 18.8478C56.8349 19.6452 57.6005 20.0801 58.635 20.0801C59.742 20.0801 60.7145 19.5416 60.7145 18.4232C60.7145 16.5178 58.0453 16.9942 58.0453 16.2279ZM64.38 16.0415V14.7574H63.2109V13.3076L61.8763 13.7115V14.7574H60.9762V16.0415H61.8763V18.1954C61.8763 19.5934 62.5074 20.1423 64.38 19.9351V18.7235C63.6144 18.765 63.2109 18.7546 63.2109 18.1954V16.0415H64.38Z" fill="black"/>
<path d="M579.061 32.8796H16.9391C15.9868 32.8796 15.2148 33.6524 15.2148 34.6056V43.6667C15.2148 44.6199 15.9868 45.3926 16.9391 45.3926H579.061C580.013 45.3926 580.785 44.6199 580.785 43.6667V34.6056C580.785 33.6524 580.013 32.8796 579.061 32.8796Z" fill="#F5F5F5"/>
<path d="M27.5262 41.5998C28.4897 41.5998 29.1686 41.0821 29.1686 40.2342C29.1686 39.3087 28.4056 39.0692 27.6879 38.8427C27.0025 38.6356 26.8279 38.4867 26.8279 38.2084C26.8279 37.9495 27.0477 37.7553 27.4228 37.7553C27.8819 37.7553 28.1276 37.9948 28.2892 38.3378L29.0393 37.9042C28.7354 37.2699 28.1664 36.8881 27.4228 36.8881C26.6468 36.8881 25.9356 37.38 25.9356 38.2343C25.9356 39.0951 26.608 39.3863 27.2999 39.587C27.9724 39.7811 28.2763 39.9106 28.2763 40.2471C28.2763 40.4996 28.0888 40.7261 27.5521 40.7261C26.9895 40.7261 26.6727 40.4543 26.5111 40.0336L25.748 40.4802C25.9938 41.1533 26.6016 41.5998 27.5262 41.5998ZM30.505 40.2342H32.9427C32.9621 40.1242 32.975 40.0141 32.975 39.8912C32.975 38.9398 32.2961 38.1825 31.3391 38.1825C30.3239 38.1825 29.632 38.9268 29.632 39.8912C29.632 40.8555 30.3174 41.5998 31.4037 41.5998C32.0245 41.5998 32.5095 41.3474 32.8134 40.9073L32.1409 40.519C31.9986 40.7067 31.74 40.8426 31.4167 40.8426C30.977 40.8426 30.6213 40.6614 30.505 40.2342ZM30.492 39.587C30.589 39.1728 30.8929 38.9333 31.3391 38.9333C31.6883 38.9333 32.0374 39.121 32.1409 39.587H30.492ZM34.3915 38.8297V38.2731H33.5574V41.5092H34.3915V39.9624C34.3915 39.2828 34.9412 39.0886 35.3744 39.1404V38.2084C34.967 38.2084 34.5596 38.3896 34.3915 38.8297ZM37.9897 38.2731L37.2008 40.5384L36.4184 38.2731H35.5003L36.7288 41.5092H37.6793L38.9079 38.2731H37.9897ZM39.8886 40.2342H42.3263C42.3457 40.1242 42.3586 40.0141 42.3586 39.8912C42.3586 38.9398 41.6797 38.1825 40.7227 38.1825C39.7075 38.1825 39.0157 38.9268 39.0157 39.8912C39.0157 40.8555 39.7011 41.5998 40.7874 41.5998C41.4081 41.5998 41.8931 41.3474 42.197 40.9073L41.5245 40.519C41.3823 40.7067 41.1236 40.8426 40.8003 40.8426C40.3606 40.8426 40.005 40.6614 39.8886 40.2342ZM39.8757 39.587C39.9727 39.1728 40.2766 38.9333 40.7227 38.9333C41.0719 38.9333 41.4211 39.121 41.5245 39.587H39.8757ZM43.7752 38.8297V38.2731H42.941V41.5092H43.7752V39.9624C43.7752 39.2828 44.3248 39.0886 44.758 39.1404V38.2084C44.3506 38.2084 43.9433 38.3896 43.7752 38.8297ZM49.8106 41.5092H50.7806L49.1899 36.9787H48.0842L46.5 41.5092H47.4634L47.735 40.6937H49.5391L49.8106 41.5092ZM48.0195 39.8588L48.6403 38.0078L49.261 39.8588H48.0195ZM53.5438 36.9787V38.655C53.311 38.3573 52.9683 38.1825 52.4962 38.1825C51.6298 38.1825 50.9185 38.9268 50.9185 39.8912C50.9185 40.8555 51.6298 41.5998 52.4962 41.5998C52.9683 41.5998 53.311 41.4251 53.5438 41.1274V41.5092H54.3779V36.9787H53.5438ZM52.6514 40.8038C52.1341 40.8038 51.7526 40.4348 51.7526 39.8912C51.7526 39.3475 52.1341 38.9786 52.6514 38.9786C53.1622 38.9786 53.5438 39.3475 53.5438 39.8912C53.5438 40.4348 53.1622 40.8038 52.6514 40.8038ZM57.5911 36.9787V38.655C57.3583 38.3573 57.0156 38.1825 56.5436 38.1825C55.6771 38.1825 54.9659 38.9268 54.9659 39.8912C54.9659 40.8555 55.6771 41.5998 56.5436 41.5998C57.0156 41.5998 57.3583 41.4251 57.5911 41.1274V41.5092H58.4252V36.9787H57.5911ZM56.6988 40.8038C56.1815 40.8038 55.8 40.4348 55.8 39.8912C55.8 39.3475 56.1815 38.9786 56.6988 38.9786C57.2096 38.9786 57.5911 39.3475 57.5911 39.8912C57.5911 40.4348 57.2096 40.8038 56.6988 40.8038ZM60.0224 38.8297V38.2731H59.1882V41.5092H60.0224V39.9624C60.0224 39.2828 60.572 39.0886 61.0052 39.1404V38.2084C60.5979 38.2084 60.1905 38.3896 60.0224 38.8297ZM62.0777 40.2342H64.5155C64.5349 40.1242 64.5478 40.0141 64.5478 39.8912C64.5478 38.9398 63.8689 38.1825 62.9119 38.1825C61.8967 38.1825 61.2048 38.9268 61.2048 39.8912C61.2048 40.8555 61.8902 41.5998 62.9765 41.5998C63.5973 41.5998 64.0822 41.3474 64.3861 40.9073L63.7137 40.519C63.5714 40.7067 63.3128 40.8426 62.9895 40.8426C62.5498 40.8426 62.1941 40.6614 62.0777 40.2342ZM62.0648 39.587C62.1618 39.1728 62.4657 38.9333 62.9119 38.9333C63.261 38.9333 63.6102 39.121 63.7137 39.587H62.0648ZM65.7733 39.1922C65.7733 39.0174 65.9415 38.9268 66.1484 38.9268C66.3876 38.9268 66.5687 39.0498 66.6657 39.2569L67.3769 38.8686C67.1248 38.422 66.6721 38.1825 66.1484 38.1825C65.4824 38.1825 64.9198 38.5514 64.9198 39.2116C64.9198 40.3507 66.5881 40.0918 66.5881 40.5643C66.5881 40.752 66.407 40.8426 66.1419 40.8426C65.8186 40.8426 65.5988 40.6873 65.5082 40.4219L64.784 40.8296C65.0168 41.328 65.4953 41.5998 66.1419 41.5998C66.8338 41.5998 67.4416 41.2633 67.4416 40.5643C67.4416 39.3734 65.7733 39.6711 65.7733 39.1922ZM68.5771 39.1922C68.5771 39.0174 68.7452 38.9268 68.9521 38.9268C69.1913 38.9268 69.3724 39.0498 69.4694 39.2569L70.1806 38.8686C69.9285 38.422 69.4758 38.1825 68.9521 38.1825C68.2861 38.1825 67.7235 38.5514 67.7235 39.2116C67.7235 40.3507 69.3918 40.0918 69.3918 40.5643C69.3918 40.752 69.2107 40.8426 68.9456 40.8426C68.6223 40.8426 68.4025 40.6873 68.3119 40.4219L67.5877 40.8296C67.8205 41.328 68.299 41.5998 68.9456 41.5998C69.6375 41.5998 70.2453 41.2633 70.2453 40.5643C70.2453 39.3734 68.5771 39.6711 68.5771 39.1922Z" fill="black"/>
<path d="M196.508 41.5998C197.471 41.5998 198.15 41.0821 198.15 40.2342C198.15 39.3087 197.387 39.0692 196.669 38.8427C195.984 38.6356 195.809 38.4867 195.809 38.2084C195.809 37.9495 196.029 37.7553 196.404 37.7553C196.863 37.7553 197.109 37.9948 197.271 38.3378L198.021 37.9042C197.717 37.2699 197.148 36.8881 196.404 36.8881C195.628 36.8881 194.917 37.38 194.917 38.2343C194.917 39.0951 195.589 39.3863 196.281 39.587C196.954 39.7811 197.258 39.9106 197.258 40.2471C197.258 40.4996 197.07 40.7261 196.534 40.7261C195.971 40.7261 195.654 40.4543 195.493 40.0336L194.729 40.4802C194.975 41.1533 195.583 41.5998 196.508 41.5998ZM200.448 39.0757V38.2731H199.717V37.367L198.883 37.6194V38.2731H198.32V39.0757H198.883V40.4219C198.883 41.2956 199.277 41.6387 200.448 41.5092V40.752C199.969 40.7779 199.717 40.7714 199.717 40.4219V39.0757H200.448ZM203.392 38.2731V38.655C203.159 38.3637 202.81 38.1825 202.338 38.1825C201.478 38.1825 200.767 38.9268 200.767 39.8912C200.767 40.8555 201.478 41.5998 202.338 41.5998C202.81 41.5998 203.159 41.4186 203.392 41.1274V41.5092H204.226V38.2731H203.392ZM202.493 40.8038C201.982 40.8038 201.601 40.4348 201.601 39.8912C201.601 39.3475 201.982 38.9786 202.493 38.9786C203.01 38.9786 203.392 39.3475 203.392 39.8912C203.392 40.4348 203.01 40.8038 202.493 40.8038ZM206.832 39.0757V38.2731H206.101V37.367L205.267 37.6194V38.2731H204.705V39.0757H205.267V40.4219C205.267 41.2956 205.662 41.6387 206.832 41.5092V40.752C206.353 40.7779 206.101 40.7714 206.101 40.4219V39.0757H206.832ZM208.024 40.2342H210.462C210.481 40.1242 210.494 40.0141 210.494 39.8912C210.494 38.9398 209.815 38.1825 208.858 38.1825C207.843 38.1825 207.151 38.9268 207.151 39.8912C207.151 40.8555 207.836 41.5998 208.923 41.5998C209.543 41.5998 210.028 41.3474 210.332 40.9073L209.66 40.519C209.518 40.7067 209.259 40.8426 208.936 40.8426C208.496 40.8426 208.14 40.6614 208.024 40.2342ZM208.011 39.587C208.108 39.1728 208.412 38.9333 208.858 38.9333C209.207 38.9333 209.556 39.121 209.66 39.587H208.011Z" fill="black"/>
<path d="M291.984 40.6549V36.9787H291.092V41.5092H293.711V40.6549H291.984ZM295.654 41.5999C296.605 41.5999 297.368 40.8555 297.368 39.8912C297.368 38.9268 296.605 38.1825 295.654 38.1825C294.704 38.1825 293.947 38.9268 293.947 39.8912C293.947 40.8555 294.704 41.5999 295.654 41.5999ZM295.654 40.7844C295.163 40.7844 294.781 40.4154 294.781 39.8912C294.781 39.3669 295.163 38.998 295.654 38.998C296.152 38.998 296.534 39.3669 296.534 39.8912C296.534 40.4154 296.152 40.7844 295.654 40.7844ZM299.494 41.5999C300.128 41.5999 300.677 41.2633 300.955 40.7585L300.231 40.3442C300.102 40.6096 299.824 40.7714 299.487 40.7714C298.99 40.7714 298.621 40.4025 298.621 39.8912C298.621 39.3734 298.99 39.0045 299.487 39.0045C299.817 39.0045 300.095 39.1728 300.225 39.4381L300.942 39.0174C300.677 38.5191 300.128 38.1825 299.494 38.1825C298.511 38.1825 297.787 38.9268 297.787 39.8912C297.787 40.8555 298.511 41.5999 299.494 41.5999ZM303.803 38.2731V38.655C303.57 38.3637 303.221 38.1825 302.749 38.1825C301.889 38.1825 301.178 38.9268 301.178 39.8912C301.178 40.8555 301.889 41.5999 302.749 41.5999C303.221 41.5999 303.57 41.4186 303.803 41.1274V41.5092H304.637V38.2731H303.803ZM302.904 40.8038C302.393 40.8038 302.012 40.4349 302.012 39.8912C302.012 39.3475 302.393 38.9786 302.904 38.9786C303.421 38.9786 303.803 39.3475 303.803 39.8912C303.803 40.4349 303.421 40.8038 302.904 40.8038ZM307.243 39.0757V38.2731H306.512V37.367L305.678 37.6194V38.2731H305.116V39.0757H305.678V40.4219C305.678 41.2957 306.073 41.6387 307.243 41.5092V40.752C306.764 40.7779 306.512 40.7714 306.512 40.4219V39.0757H307.243ZM308.245 37.8848C308.529 37.8848 308.762 37.6518 308.762 37.3735C308.762 37.0952 308.529 36.8557 308.245 36.8557C307.967 36.8557 307.734 37.0952 307.734 37.3735C307.734 37.6518 307.967 37.8848 308.245 37.8848ZM307.831 41.5092H308.665V38.2731H307.831V41.5092ZM310.967 41.5999C311.918 41.5999 312.681 40.8555 312.681 39.8912C312.681 38.9268 311.918 38.1825 310.967 38.1825C310.017 38.1825 309.26 38.9268 309.26 39.8912C309.26 40.8555 310.017 41.5999 310.967 41.5999ZM310.967 40.7844C310.476 40.7844 310.094 40.4154 310.094 39.8912C310.094 39.3669 310.476 38.998 310.967 38.998C311.465 38.998 311.847 39.3669 311.847 39.8912C311.847 40.4154 311.465 40.7844 310.967 40.7844ZM315.065 38.1825C314.632 38.1825 314.296 38.3443 314.102 38.6356V38.2731H313.268V41.5092H314.102V39.7617C314.102 39.1987 314.406 38.9592 314.813 38.9592C315.188 38.9592 315.453 39.1857 315.453 39.6258V41.5092H316.287V39.5223C316.287 38.6615 315.751 38.1825 315.065 38.1825Z" fill="black"/>
<path d="M391.078 36.9788H387.75V37.8331H388.966V41.5093H389.858V37.8331H391.078V36.9788ZM393.186 38.2732L392.466 40.4479L391.625 38.2732H390.716L392.039 41.4058C391.884 41.8394 391.651 42.0336 391.194 42.0271V42.8038C392.013 42.8491 392.565 42.4413 392.901 41.5093L394.078 38.2732H393.186ZM396.354 38.1826C395.884 38.1826 395.54 38.3573 395.307 38.6551V38.2732H394.475V42.8038H395.307V41.1275C395.54 41.4252 395.884 41.5999 396.354 41.5999C397.221 41.5999 397.932 40.8556 397.932 39.8913C397.932 38.9269 397.221 38.1826 396.354 38.1826ZM396.199 40.8038C395.69 40.8038 395.307 40.4349 395.307 39.8913C395.307 39.3476 395.69 38.9787 396.199 38.9787C396.716 38.9787 397.1 39.3476 397.1 39.8913C397.1 40.4349 396.716 40.8038 396.199 40.8038ZM399.225 40.2343H401.665C401.682 40.1243 401.695 40.0142 401.695 39.8913C401.695 38.9398 401.018 38.1826 400.061 38.1826C399.044 38.1826 398.354 38.9269 398.354 39.8913C398.354 40.8556 399.04 41.5999 400.126 41.5999C400.747 41.5999 401.23 41.3475 401.536 40.9074L400.863 40.5191C400.721 40.7068 400.462 40.8427 400.139 40.8427C399.699 40.8427 399.342 40.6615 399.225 40.2343ZM399.212 39.5871C399.311 39.1728 399.613 38.9334 400.061 38.9334C400.411 38.9334 400.76 39.1211 400.863 39.5871H399.212Z" fill="black"/>
<path d="M462.989 41.5093H463.95L462.95 39.8007C463.467 39.5612 463.821 39.0499 463.821 38.4803C463.821 37.6519 463.148 36.9788 462.316 36.9788H460.506V41.5093H461.398V39.9366H462.075L462.989 41.5093ZM461.398 37.8137H462.316C462.653 37.8137 462.928 38.1049 462.928 38.4803C462.928 38.8557 462.653 39.1534 462.316 39.1534H461.398V37.8137ZM467.386 41.5093H468.356L466.765 36.9788H465.657L464.075 41.5093H465.036L465.308 40.6938H467.114L467.386 41.5093ZM465.593 39.8589L466.213 38.0078L466.834 39.8589H465.593ZM473.223 36.9788H472.304L471.011 39.1211L469.714 36.9788H468.795V41.5093H469.688V38.5774L470.959 40.6744H471.063L472.339 38.5709V41.5093H473.223V36.9788Z" fill="black"/>
<path d="M574.75 52.5121H21.2502C18.0361 52.5121 15.4307 55.12 15.4307 58.3371V73.0075C15.4307 76.2245 18.0361 78.8325 21.2502 78.8325H574.75C577.964 78.8325 580.57 76.2245 580.57 73.0075V58.3371C580.57 55.12 577.964 52.5121 574.75 52.5121Z" fill="white" stroke="#E6E6E6"/>
<path d="M231.183 59.2H201.008C197.437 59.2 194.542 62.0977 194.542 65.6722C194.542 69.2467 197.437 72.1444 201.008 72.1444H231.183C234.754 72.1444 237.649 69.2467 237.649 65.6722C237.649 62.0977 234.754 59.2 231.183 59.2Z" fill="#009D5B" fill-opacity="0.1"/>
<path d="M26.5286 66.4704H29.2379C29.2508 66.3863 29.2573 66.3021 29.2573 66.218C29.2573 65.3119 28.6236 64.5093 27.6472 64.5093C26.6385 64.5093 25.9531 65.2536 25.9531 66.2115C25.9531 67.1824 26.645 67.9137 27.686 67.9137C28.3327 67.9137 28.8241 67.6225 29.1086 67.1824L28.6301 66.9105C28.4684 67.1759 28.1451 67.383 27.699 67.383C27.0976 67.383 26.6385 67.0529 26.5286 66.4704ZM27.6472 65.0401C28.1322 65.0401 28.5913 65.3378 28.6883 65.9785H26.5286C26.6191 65.4154 27.0394 65.0401 27.6472 65.0401ZM32.5589 67.8296L31.3239 66.1597L32.4878 64.5935H31.8282L30.9941 65.7196L30.16 64.5935H29.494L30.6643 66.1662L29.4228 67.8296H30.0824L30.9941 66.6063L31.8994 67.8296H32.5589ZM35.5299 64.5935V65.1501C35.2712 64.7553 34.8574 64.5093 34.3078 64.5093C33.409 64.5093 32.6719 65.2536 32.6719 66.2115C32.6719 67.1694 33.409 67.9137 34.3078 67.9137C34.8574 67.9137 35.2712 67.6678 35.5299 67.273V67.8296H36.0924V64.5935H35.5299ZM34.3789 67.37C33.7323 67.37 33.2344 66.8717 33.2344 66.2115C33.2344 65.5514 33.7323 65.053 34.3789 65.053C35.032 65.053 35.5299 65.5514 35.5299 66.2115C35.5299 66.8717 35.032 67.37 34.3789 67.37ZM40.4364 64.5093C40.0161 64.5093 39.6475 64.6906 39.4212 65.0595C39.2337 64.71 38.9104 64.5093 38.4707 64.5093C38.0762 64.5093 37.74 64.6647 37.5072 65.0271V64.5935H36.9447V67.8296H37.5072V66.0303C37.5072 65.3313 37.9016 65.0465 38.3349 65.0465C38.7552 65.0465 39.0203 65.3248 39.0203 65.8361V67.8296H39.5828V66.0303C39.5828 65.3313 39.9255 65.0465 40.3782 65.0465C40.8049 65.0465 41.0895 65.3248 41.0895 65.8361V67.8296H41.652V65.8167C41.652 65.0077 41.1541 64.5093 40.4364 64.5093ZM44.2169 64.5093C43.6673 64.5093 43.2534 64.7553 42.9948 65.1501V64.5935H42.4322V69.124H42.9948V67.273C43.2534 67.6678 43.6673 67.9137 44.2169 67.9137C45.1157 67.9137 45.8528 67.1694 45.8528 66.2115C45.8528 65.2536 45.1157 64.5093 44.2169 64.5093ZM44.1458 67.37C43.4927 67.37 42.9948 66.8717 42.9948 66.2115C42.9948 65.5514 43.4927 65.053 44.1458 65.053C44.7924 65.053 45.2903 65.5514 45.2903 66.2115C45.2903 66.8717 44.7924 67.37 44.1458 67.37ZM46.524 67.8296H47.0866V63.1049H46.524V67.8296ZM48.3393 66.4704H51.0486C51.0615 66.3863 51.068 66.3021 51.068 66.218C51.068 65.3119 50.4343 64.5093 49.4579 64.5093C48.4492 64.5093 47.7638 65.2536 47.7638 66.2115C47.7638 67.1824 48.4557 67.9137 49.4967 67.9137C50.1433 67.9137 50.6347 67.6225 50.9192 67.1824L50.4407 66.9105C50.2791 67.1759 49.9558 67.383 49.5096 67.383C48.9083 67.383 48.4492 67.0529 48.3393 66.4704ZM49.4579 65.0401C49.9429 65.0401 50.402 65.3378 50.4989 65.9785H48.3393C48.4298 65.4154 48.8501 65.0401 49.4579 65.0401ZM51.8116 67.9008C52.0508 67.9008 52.2319 67.7131 52.2319 67.4801C52.2319 67.2471 52.0508 67.0594 51.8116 67.0594C51.5788 67.0594 51.3913 67.2471 51.3913 67.4801C51.3913 67.7131 51.5788 67.9008 51.8116 67.9008ZM55.2589 64.5935V66.3086C55.2589 67.0723 54.8386 67.3765 54.3213 67.3765C53.8234 67.3765 53.5195 67.0788 53.5195 66.5481V64.5935H52.9569V66.5804C52.9569 67.4089 53.4548 67.9137 54.2114 67.9137C54.664 67.9137 55.0196 67.7454 55.2589 67.3636V67.8296H55.8214V64.5935H55.2589ZM57.1565 65.4672C57.1565 65.176 57.441 65.0336 57.7319 65.0336C58.0165 65.0336 58.301 65.1565 58.4238 65.4478L58.8958 65.1824C58.6889 64.7617 58.2622 64.5093 57.7319 64.5093C57.0789 64.5093 56.5874 64.9041 56.5874 65.4737C56.5874 66.6452 58.3979 66.2504 58.3979 66.9429C58.3979 67.26 58.1005 67.383 57.7578 67.383C57.3569 67.383 57.0595 67.1888 56.956 66.8782L56.471 67.1565C56.6586 67.603 57.1112 67.9137 57.7578 67.9137C58.4497 67.9137 58.967 67.5448 58.967 66.9429C58.967 65.752 57.1565 66.1597 57.1565 65.4672ZM59.439 67.8296H62.3617V67.2471H60.3119L61.4694 66.095C61.9155 65.6484 62.2776 65.163 62.2776 64.5999C62.2776 63.7068 61.5728 63.2149 60.868 63.2149C60.2796 63.2149 59.73 63.5061 59.439 64.1081L59.9434 64.4058C60.1373 63.998 60.4607 63.7974 60.8745 63.7974C61.2948 63.7974 61.6763 64.0757 61.6763 64.6064C61.6763 64.9883 61.3918 65.3507 61.0361 65.7067L59.439 67.3377V67.8296ZM63.3984 67.9008C63.6377 67.9008 63.8187 67.7131 63.8187 67.4801C63.8187 67.2471 63.6377 67.0594 63.3984 67.0594C63.1656 67.0594 62.9781 67.2471 62.9781 67.4801C62.9781 67.7131 63.1656 67.9008 63.3984 67.9008ZM68.107 64.5093C67.6867 64.5093 67.3182 64.6906 67.0919 65.0595C66.9043 64.71 66.581 64.5093 66.1413 64.5093C65.7469 64.5093 65.4107 64.6647 65.1779 65.0271V64.5935H64.6153V67.8296H65.1779V66.0303C65.1779 65.3313 65.5723 65.0465 66.0056 65.0465C66.4259 65.0465 66.691 65.3248 66.691 65.8361V67.8296H67.2535V66.0303C67.2535 65.3313 67.5962 65.0465 68.0488 65.0465C68.4756 65.0465 68.7601 65.3248 68.7601 65.8361V67.8296H69.3227V65.8167C69.3227 65.0077 68.8248 64.5093 68.107 64.5093ZM70.387 64.0045C70.5939 64.0045 70.762 63.8362 70.762 63.6291C70.762 63.422 70.5939 63.2472 70.387 63.2472C70.1736 63.2472 70.0055 63.422 70.0055 63.6291C70.0055 63.8362 70.1736 64.0045 70.387 64.0045ZM70.1025 67.8296H70.665V64.5935H70.1025V67.8296ZM73.1334 64.5093C72.6808 64.5093 72.3251 64.6776 72.0859 65.0595V64.5935H71.5233V67.8296H72.0859V66.1144C72.0859 65.3507 72.5062 65.0465 73.0235 65.0465C73.5213 65.0465 73.8253 65.3442 73.8253 65.875V67.8296H74.3878V65.8426C74.3878 65.0142 73.8899 64.5093 73.1334 64.5093ZM75.5677 66.4704H78.277C78.2899 66.3863 78.2964 66.3021 78.2964 66.218C78.2964 65.3119 77.6627 64.5093 76.6863 64.5093C75.6776 64.5093 74.9922 65.2536 74.9922 66.2115C74.9922 67.1824 75.684 67.9137 76.7251 67.9137C77.3717 67.9137 77.8631 67.6225 78.1476 67.1824L77.6691 66.9105C77.5075 67.1759 77.1842 67.383 76.738 67.383C76.1367 67.383 75.6776 67.0529 75.5677 66.4704ZM76.6863 65.0401C77.1713 65.0401 77.6304 65.3378 77.7273 65.9785H75.5677C75.6582 65.4154 76.0785 65.0401 76.6863 65.0401ZM80.5099 63.2149C79.5853 63.2149 79.0938 63.6356 79.0938 64.4964V64.5935H78.5766V65.1371H79.0938V67.8296H79.6564V65.1371H80.3289V64.5935H79.6564V64.4964C79.6564 63.9333 79.9474 63.7197 80.5099 63.7197C80.6199 63.7197 80.7362 63.7262 80.8526 63.7327V67.8296H81.4152V63.312C81.1048 63.2537 80.8203 63.2149 80.5099 63.2149ZM82.6718 66.4704H85.3811C85.394 66.3863 85.4005 66.3021 85.4005 66.218C85.4005 65.3119 84.7668 64.5093 83.7904 64.5093C82.7817 64.5093 82.0963 65.2536 82.0963 66.2115C82.0963 67.1824 82.7882 67.9137 83.8292 67.9137C84.4758 67.9137 84.9672 67.6225 85.2517 67.1824L84.7732 66.9105C84.6116 67.1759 84.2883 67.383 83.8421 67.383C83.2408 67.383 82.7817 67.0529 82.6718 66.4704ZM83.7904 65.0401C84.2754 65.0401 84.7345 65.3378 84.8314 65.9785H82.6718C82.7623 65.4154 83.1826 65.0401 83.7904 65.0401ZM88.7016 67.8296L87.4666 66.1597L88.6305 64.5935H87.971L87.1368 65.7196L86.3027 64.5935H85.6367L86.8071 66.1662L85.5656 67.8296H86.2251L87.1368 66.6063L88.0421 67.8296H88.7016ZM89.5789 67.9008C89.8181 67.9008 89.9992 67.7131 89.9992 67.4801C89.9992 67.2471 89.8181 67.0594 89.5789 67.0594C89.3461 67.0594 89.1586 67.2471 89.1586 67.4801C89.1586 67.7131 89.3461 67.9008 89.5789 67.9008ZM91.0799 64.0045C91.2868 64.0045 91.4549 63.8362 91.4549 63.6291C91.4549 63.422 91.2868 63.2472 91.0799 63.2472C90.8665 63.2472 90.6984 63.422 90.6984 63.6291C90.6984 63.8362 90.8665 64.0045 91.0799 64.0045ZM90.7954 67.8296H91.3579V64.5935H90.7954V67.8296ZM93.7357 67.9137C94.6798 67.9137 95.4428 67.1694 95.4428 66.2115C95.4428 65.2536 94.6798 64.5093 93.7357 64.5093C92.7917 64.5093 92.0351 65.2536 92.0351 66.2115C92.0351 67.1694 92.7917 67.9137 93.7357 67.9137ZM93.7357 67.3636C93.0956 67.3636 92.5977 66.8652 92.5977 66.2115C92.5977 65.5578 93.0956 65.0595 93.7357 65.0595C94.3823 65.0595 94.8802 65.5578 94.8802 66.2115C94.8802 66.8652 94.3823 67.3636 93.7357 67.3636Z" fill="black"/>
<path d="M293.773 65.4802C294.07 65.2731 294.264 64.9431 294.264 64.5353C294.264 63.8363 293.702 63.2991 292.997 63.2991H291.187V67.8297H293.139C293.87 67.8297 294.452 67.273 294.452 66.5482C294.452 66.0563 294.18 65.6744 293.773 65.4802ZM292.997 63.8622C293.372 63.8622 293.67 64.1729 293.67 64.5547C293.67 64.9431 293.372 65.2472 292.997 65.2472H291.788V63.8622H292.997ZM293.139 67.2666H291.788V65.7974H293.139C293.54 65.7974 293.857 66.121 293.857 66.5287C293.857 66.943 293.54 67.2666 293.139 67.2666ZM297.965 63.2991V65.2214H295.766V63.2991H295.165V67.8297H295.766V65.7909H297.965V67.8297H298.56V63.2991H297.965ZM300.92 67.9138C301.845 67.9138 302.485 67.409 302.485 66.6129C302.485 65.7391 301.741 65.5061 300.953 65.2472C300.319 65.0466 300.002 64.8913 300.002 64.4706C300.002 64.0564 300.338 63.7975 300.823 63.7975C301.373 63.7975 301.69 64.1081 301.851 64.4965L302.356 64.2052C302.104 63.6357 301.567 63.215 300.823 63.215C300.067 63.215 299.401 63.681 299.401 64.4965C299.401 65.3379 300.099 65.5644 300.823 65.7974C301.489 66.0045 301.89 66.1598 301.89 66.6258C301.89 67.0336 301.573 67.3248 300.933 67.3248C300.274 67.3248 299.886 67.0012 299.724 66.5029L299.207 66.8006C299.446 67.4802 300.06 67.9138 300.92 67.9138Z" fill="black"/>
<path d="M209.267 67.8296H210.231L209.228 66.121C209.746 65.8815 210.101 65.3702 210.101 64.8006C210.101 63.9722 209.429 63.2991 208.595 63.2991H206.784V67.8296H207.676V66.2569H208.355L209.267 67.8296ZM207.676 64.134H208.595C208.931 64.134 209.209 64.4252 209.209 64.8006C209.209 65.176 208.931 65.4737 208.595 65.4737H207.676V64.134ZM211.258 66.5546H213.696C213.715 66.4446 213.728 66.3345 213.728 66.2116C213.728 65.2602 213.049 64.5029 212.092 64.5029C211.077 64.5029 210.385 65.2472 210.385 66.2116C210.385 67.1759 211.07 67.9202 212.157 67.9202C212.777 67.9202 213.262 67.6678 213.566 67.2277L212.894 66.8394C212.752 67.0271 212.493 67.163 212.17 67.163C211.73 67.163 211.374 66.9818 211.258 66.5546ZM211.245 65.9074C211.342 65.4932 211.646 65.2537 212.092 65.2537C212.441 65.2537 212.79 65.4414 212.894 65.9074H211.245ZM216.742 64.5935V64.9754C216.509 64.6841 216.16 64.5029 215.688 64.5029C214.828 64.5029 214.117 65.2472 214.117 66.2116C214.117 67.1759 214.828 67.9202 215.688 67.9202C216.16 67.9202 216.509 67.739 216.742 67.4478V67.8296H217.576V64.5935H216.742ZM215.843 67.1242C215.332 67.1242 214.951 66.7552 214.951 66.2116C214.951 65.6679 215.332 65.299 215.843 65.299C216.36 65.299 216.742 65.6679 216.742 66.2116C216.742 66.7552 216.36 67.1242 215.843 67.1242ZM220.783 63.2991V64.9754C220.551 64.6777 220.208 64.5029 219.736 64.5029C218.869 64.5029 218.158 65.2472 218.158 66.2116C218.158 67.1759 218.869 67.9202 219.736 67.9202C220.208 67.9202 220.551 67.7455 220.783 67.4478V67.8296H221.617V63.2991H220.783ZM219.891 67.1242C219.374 67.1242 218.992 66.7552 218.992 66.2116C218.992 65.6679 219.374 65.299 219.891 65.299C220.402 65.299 220.783 65.6679 220.783 66.2116C220.783 66.7552 220.402 67.1242 219.891 67.1242ZM224.488 64.5935L223.77 66.7682L222.93 64.5935H222.018L223.343 67.7261C223.188 68.1597 222.956 68.3539 222.496 68.3474V69.1241C223.318 69.1694 223.867 68.7616 224.203 67.8296L225.38 64.5935H224.488Z" fill="#00874E"/>
<path d="M389.383 67.8296H390.06L391.685 63.299H391.03L389.724 67.0788L388.413 63.299H387.767L389.383 67.8296ZM394.448 64.5935V65.1501C394.19 64.7553 393.776 64.5093 393.228 64.5093C392.327 64.5093 391.59 65.2536 391.59 66.2115C391.59 67.1694 392.327 67.9137 393.228 67.9137C393.776 67.9137 394.19 67.6678 394.448 67.273V67.8296H395.013V64.5935H394.448ZM393.297 67.37C392.651 67.37 392.155 66.8717 392.155 66.2115C392.155 65.5514 392.651 65.053 393.297 65.053C393.953 65.053 394.448 65.5514 394.448 66.2115C394.448 66.8717 393.953 67.37 393.297 67.37ZM397.474 64.5093C397.022 64.5093 396.664 64.6776 396.427 65.0595V64.5935H395.862V67.8296H396.427V66.1144C396.427 65.3507 396.845 65.0465 397.362 65.0465C397.862 65.0465 398.164 65.3442 398.164 65.875V67.8296H398.729V65.8426C398.729 65.0142 398.229 64.5093 397.474 64.5093ZM399.798 64.0045C400.005 64.0045 400.173 63.8362 400.173 63.6291C400.173 63.422 400.005 63.2472 399.798 63.2472C399.587 63.2472 399.419 63.422 399.419 63.6291C399.419 63.8362 399.587 64.0045 399.798 64.0045ZM399.513 67.8296H400.078V64.5935H399.513V67.8296ZM400.936 67.8296H401.496V63.1049H400.936V67.8296ZM402.354 67.8296H402.919V63.1049H402.354V67.8296ZM406.454 64.5935V65.1501C406.195 64.7553 405.781 64.5093 405.229 64.5093C404.333 64.5093 403.596 65.2536 403.596 66.2115C403.596 67.1694 404.333 67.9137 405.229 67.9137C405.781 67.9137 406.195 67.6678 406.454 67.273V67.8296H407.014V64.5935H406.454ZM405.303 67.37C404.656 67.37 404.156 66.8717 404.156 66.2115C404.156 65.5514 404.656 65.053 405.303 65.053C405.954 65.053 406.454 65.5514 406.454 66.2115C406.454 66.8717 405.954 67.37 405.303 67.37Z" fill="black"/>
<path d="M461.381 63.2991L460.191 63.7133L460.342 64.2311L461.304 63.9463V67.8297H461.898V63.2991H461.381ZM468.873 65.5838H466.61V66.1275H468.27C468.153 66.807 467.597 67.3248 466.662 67.3248C465.58 67.3248 464.864 66.5482 464.864 65.5644C464.864 64.5741 465.588 63.7975 466.636 63.7975C467.274 63.7975 467.826 64.1276 468.084 64.613L468.602 64.3088C468.227 63.6616 467.489 63.215 466.64 63.215C465.265 63.215 464.269 64.2635 464.269 65.5644C464.269 66.8588 465.257 67.9138 466.653 67.9138C468.02 67.9138 468.873 67.0077 468.873 65.8556V65.5838Z" fill="black"/>
<path d="M563.973 59.4158H543.712C540.26 59.4158 537.462 62.2169 537.462 65.6722C537.462 69.1276 540.26 71.9287 543.712 71.9287H563.973C567.425 71.9287 570.224 69.1276 570.224 65.6722C570.224 62.2169 567.425 59.4158 563.973 59.4158Z" fill="white" stroke="#E6E6E6"/>
<path d="M553.385 67.1462V66.3333H554.756V65.6601H553.385V64.8887H554.886V64.2052H552.67V67.8296H554.911V67.1462H553.385ZM557.287 64.2052V65.5462C557.101 65.3081 556.825 65.1683 556.45 65.1683C555.756 65.1683 555.187 65.7637 555.187 66.5352C555.187 67.3067 555.756 67.9021 556.45 67.9021C556.825 67.9021 557.101 67.7623 557.287 67.5242V67.8296H557.955V64.2052H557.287ZM556.571 67.2653C556.157 67.2653 555.856 66.9701 555.856 66.5352C555.856 66.1003 556.157 65.8051 556.571 65.8051C556.981 65.8051 557.287 66.1003 557.287 66.5352C557.287 66.9701 556.981 67.2653 556.571 67.2653ZM558.895 64.9301C559.123 64.9301 559.308 64.7437 559.308 64.521C559.308 64.2984 559.123 64.1068 558.895 64.1068C558.675 64.1068 558.485 64.2984 558.485 64.521C558.485 64.7437 558.675 64.9301 558.895 64.9301ZM558.563 67.8296H559.231V65.2407H558.563V67.8296ZM561.322 65.8828V65.2407H560.735V64.5159L560.071 64.7178V65.2407H559.619V65.8828H560.071V66.9598C560.071 67.6588 560.386 67.9332 561.322 67.8296V67.2238C560.938 67.2445 560.735 67.2394 560.735 66.9598V65.8828H561.322Z" fill="black"/>
<path d="M550.157 64.584L550.485 64.2574C550.644 64.096 550.653 63.9109 550.502 63.759L550.368 63.6214C550.217 63.4695 550.028 63.4833 549.868 63.6412L549.536 63.9678L550.157 64.584ZM546.756 67.991L549.855 64.8804L549.243 64.2643L546.144 67.3748L545.876 68.0686C545.833 68.183 545.95 68.2909 546.053 68.2537L546.756 67.991Z" fill="black"/>
<path d="M574.75 86.1676H21.2502C18.0361 86.1676 15.4307 88.7755 15.4307 91.9926V106.663C15.4307 109.88 18.0361 112.488 21.2502 112.488H574.75C577.964 112.488 580.57 109.88 580.57 106.663V91.9926C580.57 88.7755 577.964 86.1676 574.75 86.1676Z" fill="white" stroke="#E6E6E6"/>
<path d="M563.973 93.0713H543.712C540.26 93.0713 537.462 95.8724 537.462 99.3278C537.462 102.783 540.26 105.584 543.712 105.584H563.973C567.425 105.584 570.224 102.783 570.224 99.3278C570.224 95.8724 567.425 93.0713 563.973 93.0713Z" fill="white" stroke="#E6E6E6"/>
<path d="M553.385 100.802V99.9889H554.756V99.3158H553.385V98.5443H554.886V97.8608H552.67V101.485H554.911V100.802H553.385ZM557.287 97.8608V99.2019C557.101 98.9637 556.825 98.8239 556.45 98.8239C555.756 98.8239 555.187 99.4193 555.187 100.191C555.187 100.962 555.756 101.558 556.45 101.558C556.825 101.558 557.101 101.418 557.287 101.18V101.485H557.955V97.8608H557.287ZM556.571 100.921C556.157 100.921 555.856 100.626 555.856 100.191C555.856 99.7559 556.157 99.4608 556.571 99.4608C556.981 99.4608 557.287 99.7559 557.287 100.191C557.287 100.626 556.981 100.921 556.571 100.921ZM558.895 98.5857C559.123 98.5857 559.308 98.3993 559.308 98.1767C559.308 97.954 559.123 97.7625 558.895 97.7625C558.675 97.7625 558.485 97.954 558.485 98.1767C558.485 98.3993 558.675 98.5857 558.895 98.5857ZM558.563 101.485H559.231V98.8964H558.563V101.485ZM561.322 99.5384V98.8964H560.735V98.1715L560.071 98.3734V98.8964H559.619V99.5384H560.071V100.615C560.071 101.314 560.386 101.589 561.322 101.485V100.879C560.938 100.9 560.735 100.895 560.735 100.615V99.5384H561.322Z" fill="black"/>
<path d="M550.157 98.2396L550.485 97.913C550.644 97.7516 550.653 97.5665 550.502 97.4147L550.368 97.277C550.217 97.1251 550.028 97.1389 549.868 97.2969L549.536 97.6235L550.157 98.2396ZM546.756 101.647L549.855 98.5361L549.243 97.9199L546.144 101.03L545.876 101.724C545.833 101.839 545.95 101.947 546.053 101.909L546.756 101.647Z" fill="black"/>
<path d="M26.5286 100.126H29.2379C29.2508 100.042 29.2573 99.9578 29.2573 99.8736C29.2573 98.9675 28.6236 98.165 27.6472 98.165C26.6385 98.165 25.9531 98.9093 25.9531 99.8672C25.9531 100.838 26.645 101.569 27.686 101.569C28.3327 101.569 28.8241 101.278 29.1086 100.838L28.6301 100.566C28.4684 100.832 28.1451 101.039 27.699 101.039C27.0976 101.039 26.6385 100.709 26.5286 100.126ZM27.6472 98.6957C28.1322 98.6957 28.5913 98.9934 28.6883 99.6342H26.5286C26.6191 99.0711 27.0394 98.6957 27.6472 98.6957ZM32.5589 101.485L31.3239 99.8154L32.4878 98.2491H31.8282L30.9941 99.3753L30.16 98.2491H29.494L30.6643 99.8219L29.4228 101.485H30.0824L30.9941 100.262L31.8994 101.485H32.5589ZM35.5299 98.2491V98.8057C35.2712 98.4109 34.8574 98.165 34.3078 98.165C33.409 98.165 32.6719 98.9093 32.6719 99.8672C32.6719 100.825 33.409 101.569 34.3078 101.569C34.8574 101.569 35.2712 101.323 35.5299 100.929V101.485H36.0924V98.2491H35.5299ZM34.3789 101.026C33.7323 101.026 33.2344 100.527 33.2344 99.8672C33.2344 99.207 33.7323 98.7086 34.3789 98.7086C35.032 98.7086 35.5299 99.207 35.5299 99.8672C35.5299 100.527 35.032 101.026 34.3789 101.026ZM40.4364 98.165C40.0161 98.165 39.6475 98.3462 39.4212 98.7151C39.2337 98.3656 38.9104 98.165 38.4707 98.165C38.0762 98.165 37.74 98.3203 37.5072 98.6828V98.2491H36.9447V101.485H37.5072V99.6859C37.5072 98.9869 37.9016 98.7022 38.3349 98.7022C38.7552 98.7022 39.0203 98.9805 39.0203 99.4918V101.485H39.5828V99.6859C39.5828 98.9869 39.9255 98.7022 40.3782 98.7022C40.8049 98.7022 41.0895 98.9805 41.0895 99.4918V101.485H41.652V99.4724C41.652 98.6633 41.1541 98.165 40.4364 98.165ZM44.2169 98.165C43.6673 98.165 43.2534 98.4109 42.9948 98.8057V98.2491H42.4322V102.78H42.9948V100.929C43.2534 101.323 43.6673 101.569 44.2169 101.569C45.1157 101.569 45.8528 100.825 45.8528 99.8672C45.8528 98.9093 45.1157 98.165 44.2169 98.165ZM44.1458 101.026C43.4927 101.026 42.9948 100.527 42.9948 99.8672C42.9948 99.207 43.4927 98.7086 44.1458 98.7086C44.7924 98.7086 45.2903 99.207 45.2903 99.8672C45.2903 100.527 44.7924 101.026 44.1458 101.026ZM46.524 101.485H47.0866V96.7605H46.524V101.485ZM48.3393 100.126H51.0486C51.0615 100.042 51.068 99.9578 51.068 99.8736C51.068 98.9675 50.4343 98.165 49.4579 98.165C48.4492 98.165 47.7638 98.9093 47.7638 99.8672C47.7638 100.838 48.4557 101.569 49.4967 101.569C50.1433 101.569 50.6347 101.278 50.9192 100.838L50.4407 100.566C50.2791 100.832 49.9558 101.039 49.5096 101.039C48.9083 101.039 48.4492 100.709 48.3393 100.126ZM49.4579 98.6957C49.9429 98.6957 50.402 98.9934 50.4989 99.6342H48.3393C48.4298 99.0711 48.8501 98.6957 49.4579 98.6957ZM51.8116 101.556C52.0508 101.556 52.2319 101.369 52.2319 101.136C52.2319 100.903 52.0508 100.715 51.8116 100.715C51.5788 100.715 51.3913 100.903 51.3913 101.136C51.3913 101.369 51.5788 101.556 51.8116 101.556ZM55.2589 98.2491V99.9643C55.2589 100.728 54.8386 101.032 54.3213 101.032C53.8234 101.032 53.5195 100.734 53.5195 100.204V98.2491H52.9569V100.236C52.9569 101.065 53.4548 101.569 54.2114 101.569C54.664 101.569 55.0196 101.401 55.2589 101.019V101.485H55.8214V98.2491H55.2589ZM57.1565 99.1229C57.1565 98.8316 57.441 98.6892 57.7319 98.6892C58.0165 98.6892 58.301 98.8122 58.4238 99.1034L58.8958 98.8381C58.6889 98.4174 58.2622 98.165 57.7319 98.165C57.0789 98.165 56.5874 98.5598 56.5874 99.1293C56.5874 100.301 58.3979 99.906 58.3979 100.599C58.3979 100.916 58.1005 101.039 57.7578 101.039C57.3569 101.039 57.0595 100.844 56.956 100.534L56.471 100.812C56.6586 101.259 57.1112 101.569 57.7578 101.569C58.4497 101.569 58.967 101.2 58.967 100.599C58.967 99.4076 57.1565 99.8154 57.1565 99.1229ZM59.439 101.485H62.3617V100.903H60.3119L61.4694 99.7507C61.9155 99.3041 62.2776 98.8187 62.2776 98.2556C62.2776 97.3624 61.5728 96.8705 60.868 96.8705C60.2796 96.8705 59.73 97.1618 59.439 97.7637L59.9434 98.0614C60.1373 97.6537 60.4607 97.453 60.8745 97.453C61.2948 97.453 61.6763 97.7313 61.6763 98.2621C61.6763 98.6439 61.3918 99.0064 61.0361 99.3623L59.439 100.993V101.485ZM63.3984 101.556C63.6377 101.556 63.8187 101.369 63.8187 101.136C63.8187 100.903 63.6377 100.715 63.3984 100.715C63.1656 100.715 62.9781 100.903 62.9781 101.136C62.9781 101.369 63.1656 101.556 63.3984 101.556ZM68.107 98.165C67.6867 98.165 67.3182 98.3462 67.0919 98.7151C66.9043 98.3656 66.581 98.165 66.1413 98.165C65.7469 98.165 65.4107 98.3203 65.1779 98.6828V98.2491H64.6153V101.485H65.1779V99.6859C65.1779 98.9869 65.5723 98.7022 66.0056 98.7022C66.4259 98.7022 66.691 98.9805 66.691 99.4918V101.485H67.2535V99.6859C67.2535 98.9869 67.5962 98.7022 68.0488 98.7022C68.4756 98.7022 68.7601 98.9805 68.7601 99.4918V101.485H69.3227V99.4724C69.3227 98.6633 68.8248 98.165 68.107 98.165ZM70.387 97.6601C70.5939 97.6601 70.762 97.4919 70.762 97.2848C70.762 97.0776 70.5939 96.9029 70.387 96.9029C70.1736 96.9029 70.0055 97.0776 70.0055 97.2848C70.0055 97.4919 70.1736 97.6601 70.387 97.6601ZM70.1025 101.485H70.665V98.2491H70.1025V101.485ZM73.1334 98.165C72.6808 98.165 72.3251 98.3332 72.0859 98.7151V98.2491H71.5233V101.485H72.0859V99.7701C72.0859 99.0064 72.5062 98.7022 73.0235 98.7022C73.5213 98.7022 73.8253 98.9999 73.8253 99.5306V101.485H74.3878V99.4982C74.3878 98.6698 73.8899 98.165 73.1334 98.165ZM75.5677 100.126H78.277C78.2899 100.042 78.2964 99.9578 78.2964 99.8736C78.2964 98.9675 77.6627 98.165 76.6863 98.165C75.6776 98.165 74.9922 98.9093 74.9922 99.8672C74.9922 100.838 75.684 101.569 76.7251 101.569C77.3717 101.569 77.8631 101.278 78.1476 100.838L77.6691 100.566C77.5075 100.832 77.1842 101.039 76.738 101.039C76.1367 101.039 75.6776 100.709 75.5677 100.126ZM76.6863 98.6957C77.1713 98.6957 77.6304 98.9934 77.7273 99.6342H75.5677C75.6582 99.0711 76.0785 98.6957 76.6863 98.6957ZM80.5099 96.8705C79.5853 96.8705 79.0938 97.2912 79.0938 98.152V98.2491H78.5766V98.7928H79.0938V101.485H79.6564V98.7928H80.3289V98.2491H79.6564V98.152C79.6564 97.5889 79.9474 97.3754 80.5099 97.3754C80.6199 97.3754 80.7362 97.3818 80.8526 97.3883V101.485H81.4152V96.9676C81.1048 96.9094 80.8203 96.8705 80.5099 96.8705ZM82.6718 100.126H85.3811C85.394 100.042 85.4005 99.9578 85.4005 99.8736C85.4005 98.9675 84.7668 98.165 83.7904 98.165C82.7817 98.165 82.0963 98.9093 82.0963 99.8672C82.0963 100.838 82.7882 101.569 83.8292 101.569C84.4758 101.569 84.9672 101.278 85.2517 100.838L84.7732 100.566C84.6116 100.832 84.2883 101.039 83.8421 101.039C83.2408 101.039 82.7817 100.709 82.6718 100.126ZM83.7904 98.6957C84.2754 98.6957 84.7345 98.9934 84.8314 99.6342H82.6718C82.7623 99.0711 83.1826 98.6957 83.7904 98.6957ZM88.7016 101.485L87.4666 99.8154L88.6305 98.2491H87.971L87.1368 99.3753L86.3027 98.2491H85.6367L86.8071 99.8219L85.5656 101.485H86.2251L87.1368 100.262L88.0421 101.485H88.7016ZM89.5789 101.556C89.8181 101.556 89.9992 101.369 89.9992 101.136C89.9992 100.903 89.8181 100.715 89.5789 100.715C89.3461 100.715 89.1586 100.903 89.1586 101.136C89.1586 101.369 89.3461 101.556 89.5789 101.556ZM91.0799 97.6601C91.2868 97.6601 91.4549 97.4919 91.4549 97.2848C91.4549 97.0776 91.2868 96.9029 91.0799 96.9029C90.8665 96.9029 90.6984 97.0776 90.6984 97.2848C90.6984 97.4919 90.8665 97.6601 91.0799 97.6601ZM90.7954 101.485H91.3579V98.2491H90.7954V101.485ZM93.7357 101.569C94.6798 101.569 95.4428 100.825 95.4428 99.8672C95.4428 98.9093 94.6798 98.165 93.7357 98.165C92.7917 98.165 92.0351 98.9093 92.0351 99.8672C92.0351 100.825 92.7917 101.569 93.7357 101.569ZM93.7357 101.019C93.0956 101.019 92.5977 100.521 92.5977 99.8672C92.5977 99.2135 93.0956 98.7151 93.7357 98.7151C94.3823 98.7151 94.8802 99.2135 94.8802 99.8672C94.8802 100.521 94.3823 101.019 93.7357 101.019Z" fill="black"/>
<path d="M293.773 99.1359C294.07 98.9288 294.264 98.5987 294.264 98.1909C294.264 97.4919 293.702 96.9547 292.997 96.9547H291.187V101.485H293.139C293.87 101.485 294.452 100.929 294.452 100.204C294.452 99.7119 294.18 99.3301 293.773 99.1359ZM292.997 97.5178C293.372 97.5178 293.67 97.8285 293.67 98.2104C293.67 98.5987 293.372 98.9029 292.997 98.9029H291.788V97.5178H292.997ZM293.139 100.922H291.788V99.453H293.139C293.54 99.453 293.857 99.7766 293.857 100.184C293.857 100.599 293.54 100.922 293.139 100.922ZM297.965 96.9547V98.877H295.766V96.9547H295.165V101.485H295.766V99.4466H297.965V101.485H298.56V96.9547H297.965ZM300.92 101.569C301.845 101.569 302.485 101.065 302.485 100.269C302.485 99.3948 301.741 99.1618 300.953 98.9029C300.319 98.7023 300.002 98.5469 300.002 98.1262C300.002 97.712 300.338 97.4531 300.823 97.4531C301.373 97.4531 301.69 97.7638 301.851 98.1521L302.356 97.8609C302.104 97.2913 301.567 96.8706 300.823 96.8706C300.067 96.8706 299.401 97.3366 299.401 98.1521C299.401 98.9935 300.099 99.22 300.823 99.453C301.489 99.6601 301.89 99.8155 301.89 100.281C301.89 100.689 301.573 100.98 300.933 100.98C300.274 100.98 299.886 100.657 299.724 100.159L299.207 100.456C299.446 101.136 300.06 101.569 300.92 101.569Z" fill="black"/>
<path d="M231.183 92.8556H201.008C197.437 92.8556 194.542 95.7533 194.542 99.3278C194.542 102.902 197.437 105.8 201.008 105.8H231.183C234.754 105.8 237.649 102.902 237.649 99.3278C237.649 95.7533 234.754 92.8556 231.183 92.8556Z" fill="white"/>
<path d="M231.183 92.8556H201.008C197.437 92.8556 194.542 95.7533 194.542 99.3278C194.542 102.902 197.437 105.8 201.008 105.8H231.183C234.754 105.8 237.649 102.902 237.649 99.3278C237.649 95.7533 234.754 92.8556 231.183 92.8556Z" fill="#FF0000" fill-opacity="0.1"/>
<path d="M205.199 101.576C206.163 101.576 206.841 101.058 206.841 100.21C206.841 99.2846 206.078 99.0452 205.361 98.8186C204.675 98.6115 204.501 98.4627 204.501 98.1843C204.501 97.9255 204.721 97.7313 205.096 97.7313C205.555 97.7313 205.8 97.9708 205.962 98.3138L206.712 97.8801C206.408 97.2459 205.839 96.864 205.096 96.864C204.32 96.864 203.608 97.3559 203.608 98.2102C203.608 99.071 204.281 99.3623 204.973 99.5629C205.645 99.7571 205.949 99.8865 205.949 100.223C205.949 100.476 205.762 100.702 205.225 100.702C204.662 100.702 204.346 100.43 204.184 100.01L203.421 100.456C203.667 101.129 204.274 101.576 205.199 101.576ZM209.14 99.0516V98.2491H208.409V97.343L207.575 97.5954V98.2491H207.012V99.0516H207.575V100.398C207.575 101.272 207.969 101.615 209.14 101.485V100.728C208.661 100.754 208.409 100.747 208.409 100.398V99.0516H209.14ZM211.165 101.576C212.116 101.576 212.879 100.831 212.879 99.8671C212.879 98.9028 212.116 98.1585 211.165 98.1585C210.215 98.1585 209.458 98.9028 209.458 99.8671C209.458 100.831 210.215 101.576 211.165 101.576ZM211.165 100.76C210.674 100.76 210.292 100.391 210.292 99.8671C210.292 99.3429 210.674 98.974 211.165 98.974C211.663 98.974 212.045 99.3429 212.045 99.8671C212.045 100.391 211.663 100.76 211.165 100.76ZM215.347 98.1585C214.875 98.1585 214.533 98.3332 214.3 98.6309V98.2491H213.466V102.78H214.3V101.103C214.533 101.401 214.875 101.576 215.347 101.576C216.214 101.576 216.925 100.831 216.925 99.8671C216.925 98.9028 216.214 98.1585 215.347 98.1585ZM215.192 100.78C214.681 100.78 214.3 100.411 214.3 99.8671C214.3 99.3235 214.681 98.9545 215.192 98.9545C215.71 98.9545 216.091 99.3235 216.091 99.8671C216.091 100.411 215.71 100.78 215.192 100.78ZM219.395 98.1585C218.923 98.1585 218.58 98.3332 218.347 98.6309V98.2491H217.513V102.78H218.347V101.103C218.58 101.401 218.923 101.576 219.395 101.576C220.261 101.576 220.973 100.831 220.973 99.8671C220.973 98.9028 220.261 98.1585 219.395 98.1585ZM219.24 100.78C218.729 100.78 218.347 100.411 218.347 99.8671C218.347 99.3235 218.729 98.9545 219.24 98.9545C219.757 98.9545 220.138 99.3235 220.138 99.8671C220.138 100.411 219.757 100.78 219.24 100.78ZM222.266 100.21H224.703C224.723 100.1 224.736 99.9901 224.736 99.8671C224.736 98.9157 224.057 98.1585 223.1 98.1585C222.085 98.1585 221.393 98.9028 221.393 99.8671C221.393 100.831 222.078 101.576 223.165 101.576C223.785 101.576 224.27 101.323 224.574 100.883L223.902 100.495C223.759 100.683 223.501 100.819 223.177 100.819C222.738 100.819 222.382 100.637 222.266 100.21ZM222.253 99.5629C222.35 99.1487 222.654 98.9092 223.1 98.9092C223.449 98.9092 223.798 99.0969 223.902 99.5629H222.253ZM227.743 96.9546V98.6309C227.511 98.3332 227.168 98.1585 226.696 98.1585C225.829 98.1585 225.118 98.9028 225.118 99.8671C225.118 100.831 225.829 101.576 226.696 101.576C227.168 101.576 227.511 101.401 227.743 101.103V101.485H228.578V96.9546H227.743ZM226.851 100.78C226.334 100.78 225.952 100.411 225.952 99.8671C225.952 99.3235 226.334 98.9545 226.851 98.9545C227.362 98.9545 227.743 99.3235 227.743 99.8671C227.743 100.411 227.362 100.78 226.851 100.78Z" fill="#CE0000"/>
<path d="M389.383 101.485H390.06L391.685 96.9547H391.03L389.724 100.734L388.413 96.9547H387.767L389.383 101.485ZM394.448 98.2491V98.8057C394.19 98.4109 393.776 98.165 393.228 98.165C392.327 98.165 391.59 98.9093 391.59 99.8672C391.59 100.825 392.327 101.569 393.228 101.569C393.776 101.569 394.19 101.323 394.448 100.929V101.485H395.013V98.2491H394.448ZM393.297 101.026C392.651 101.026 392.155 100.527 392.155 99.8672C392.155 99.207 392.651 98.7086 393.297 98.7086C393.953 98.7086 394.448 99.207 394.448 99.8672C394.448 100.527 393.953 101.026 393.297 101.026ZM397.474 98.165C397.022 98.165 396.664 98.3333 396.427 98.7151V98.2491H395.862V101.485H396.427V99.7701C396.427 99.0064 396.845 98.7022 397.362 98.7022C397.862 98.7022 398.164 98.9999 398.164 99.5306V101.485H398.729V99.4983C398.729 98.6698 398.229 98.165 397.474 98.165ZM399.798 97.6601C400.005 97.6601 400.173 97.4919 400.173 97.2848C400.173 97.0776 400.005 96.9029 399.798 96.9029C399.587 96.9029 399.419 97.0776 399.419 97.2848C399.419 97.4919 399.587 97.6601 399.798 97.6601ZM399.513 101.485H400.078V98.2491H399.513V101.485ZM400.936 101.485H401.496V96.7605H400.936V101.485ZM402.354 101.485H402.919V96.7605H402.354V101.485ZM406.454 98.2491V98.8057C406.195 98.4109 405.781 98.165 405.229 98.165C404.333 98.165 403.596 98.9093 403.596 99.8672C403.596 100.825 404.333 101.569 405.229 101.569C405.781 101.569 406.195 101.323 406.454 100.929V101.485H407.014V98.2491H406.454ZM405.303 101.026C404.656 101.026 404.156 100.527 404.156 99.8672C404.156 99.207 404.656 98.7086 405.303 98.7086C405.954 98.7086 406.454 99.207 406.454 99.8672C406.454 100.527 405.954 101.026 405.303 101.026Z" fill="black"/>
<path d="M461.381 96.9547L460.191 97.369L460.342 97.8868L461.304 97.602V101.485H461.898V96.9547H461.381ZM468.873 99.2395H466.61V99.7831H468.27C468.153 100.463 467.597 100.98 466.662 100.98C465.58 100.98 464.864 100.204 464.864 99.22C464.864 98.2298 465.588 97.4531 466.636 97.4531C467.274 97.4531 467.826 97.7832 468.084 98.2686L468.602 97.9644C468.227 97.3172 467.489 96.8706 466.64 96.8706C465.265 96.8706 464.269 97.9191 464.269 99.22C464.269 100.514 465.257 101.569 466.653 101.569C468.02 101.569 468.873 100.663 468.873 99.5113V99.2395Z" fill="black"/>
<path d="M574.75 119.823H21.2502C18.0361 119.823 15.4307 122.431 15.4307 125.648V140.319C15.4307 143.536 18.0361 146.144 21.2502 146.144H574.75C577.964 146.144 580.57 143.536 580.57 140.319V125.648C580.57 122.431 577.964 119.823 574.75 119.823Z" fill="white" stroke="#E6E6E6"/>
<path d="M563.973 126.727H543.712C540.26 126.727 537.462 129.528 537.462 132.983C537.462 136.439 540.26 139.24 543.712 139.24H563.973C567.425 139.24 570.224 136.439 570.224 132.983C570.224 129.528 567.425 126.727 563.973 126.727Z" fill="white" stroke="#E6E6E6"/>
<path d="M553.385 134.457V133.644H554.756V132.971H553.385V132.2H554.886V131.516H552.67V135.141H554.911V134.457H553.385ZM557.287 131.516V132.857C557.101 132.619 556.825 132.479 556.45 132.479C555.756 132.479 555.187 133.075 555.187 133.846C555.187 134.618 555.756 135.213 556.45 135.213C556.825 135.213 557.101 135.073 557.287 134.835V135.141H557.955V131.516H557.287ZM556.571 134.576C556.157 134.576 555.856 134.281 555.856 133.846C555.856 133.411 556.157 133.116 556.571 133.116C556.981 133.116 557.287 133.411 557.287 133.846C557.287 134.281 556.981 134.576 556.571 134.576ZM558.895 132.241C559.123 132.241 559.308 132.055 559.308 131.832C559.308 131.61 559.123 131.418 558.895 131.418C558.675 131.418 558.485 131.61 558.485 131.832C558.485 132.055 558.675 132.241 558.895 132.241ZM558.563 135.141H559.231V132.552H558.563V135.141ZM561.322 133.194V132.552H560.735V131.827L560.071 132.029V132.552H559.619V133.194H560.071V134.271C560.071 134.97 560.386 135.244 561.322 135.141V134.535C560.938 134.556 560.735 134.55 560.735 134.271V133.194H561.322Z" fill="black"/>
<path d="M550.157 131.895L550.485 131.569C550.644 131.407 550.653 131.222 550.502 131.07L550.368 130.933C550.217 130.781 550.028 130.794 549.868 130.952L549.536 131.279L550.157 131.895ZM546.756 135.302L549.855 132.192L549.243 131.575L546.144 134.686L545.876 135.38C545.833 135.494 545.95 135.602 546.053 135.565L546.756 135.302Z" fill="black"/>
<path d="M231.183 126.511H201.008C197.437 126.511 194.542 129.409 194.542 132.983C194.542 136.558 197.437 139.456 201.008 139.456H231.183C234.754 139.456 237.649 136.558 237.649 132.983C237.649 129.409 234.754 126.511 231.183 126.511Z" fill="white"/>
<path d="M231.183 126.511H201.008C197.437 126.511 194.542 129.409 194.542 132.983C194.542 136.558 197.437 139.456 201.008 139.456H231.183C234.754 139.456 237.649 136.558 237.649 132.983C237.649 129.409 234.754 126.511 231.183 126.511Z" fill="#FF7B00" fill-opacity="0.1"/>
<path d="M26.5286 133.782H29.2379C29.2508 133.697 29.2573 133.613 29.2573 133.529C29.2573 132.623 28.6236 131.82 27.6472 131.82C26.6385 131.82 25.9531 132.565 25.9531 133.523C25.9531 134.494 26.645 135.225 27.686 135.225C28.3327 135.225 28.8241 134.934 29.1086 134.494L28.6301 134.222C28.4684 134.487 28.1451 134.694 27.699 134.694C27.0976 134.694 26.6385 134.364 26.5286 133.782ZM27.6472 132.351C28.1322 132.351 28.5913 132.649 28.6883 133.29H26.5286C26.6191 132.727 27.0394 132.351 27.6472 132.351ZM32.5589 135.141L31.3239 133.471L32.4878 131.905H31.8282L30.9941 133.031L30.16 131.905H29.494L30.6643 133.477L29.4228 135.141H30.0824L30.9941 133.917L31.8994 135.141H32.5589ZM35.5299 131.905V132.461C35.2712 132.066 34.8574 131.82 34.3078 131.82C33.409 131.82 32.6719 132.565 32.6719 133.523C32.6719 134.481 33.409 135.225 34.3078 135.225C34.8574 135.225 35.2712 134.979 35.5299 134.584V135.141H36.0924V131.905H35.5299ZM34.3789 134.681C33.7323 134.681 33.2344 134.183 33.2344 133.523C33.2344 132.863 33.7323 132.364 34.3789 132.364C35.032 132.364 35.5299 132.863 35.5299 133.523C35.5299 134.183 35.032 134.681 34.3789 134.681ZM40.4364 131.82C40.0161 131.82 39.6475 132.002 39.4212 132.371C39.2337 132.021 38.9104 131.82 38.4707 131.82C38.0762 131.82 37.74 131.976 37.5072 132.338V131.905H36.9447V135.141H37.5072V133.341C37.5072 132.642 37.9016 132.358 38.3349 132.358C38.7552 132.358 39.0203 132.636 39.0203 133.147V135.141H39.5828V133.341C39.5828 132.642 39.9255 132.358 40.3782 132.358C40.8049 132.358 41.0895 132.636 41.0895 133.147V135.141H41.652V133.128C41.652 132.319 41.1541 131.82 40.4364 131.82ZM44.2169 131.82C43.6673 131.82 43.2534 132.066 42.9948 132.461V131.905H42.4322V136.435H42.9948V134.584C43.2534 134.979 43.6673 135.225 44.2169 135.225C45.1157 135.225 45.8528 134.481 45.8528 133.523C45.8528 132.565 45.1157 131.82 44.2169 131.82ZM44.1458 134.681C43.4927 134.681 42.9948 134.183 42.9948 133.523C42.9948 132.863 43.4927 132.364 44.1458 132.364C44.7924 132.364 45.2903 132.863 45.2903 133.523C45.2903 134.183 44.7924 134.681 44.1458 134.681ZM46.524 135.141H47.0866V130.416H46.524V135.141ZM48.3393 133.782H51.0486C51.0615 133.697 51.068 133.613 51.068 133.529C51.068 132.623 50.4343 131.82 49.4579 131.82C48.4492 131.82 47.7638 132.565 47.7638 133.523C47.7638 134.494 48.4557 135.225 49.4967 135.225C50.1433 135.225 50.6347 134.934 50.9192 134.494L50.4407 134.222C50.2791 134.487 49.9558 134.694 49.5096 134.694C48.9083 134.694 48.4492 134.364 48.3393 133.782ZM49.4579 132.351C49.9429 132.351 50.402 132.649 50.4989 133.29H48.3393C48.4298 132.727 48.8501 132.351 49.4579 132.351ZM51.8116 135.212C52.0508 135.212 52.2319 135.024 52.2319 134.791C52.2319 134.558 52.0508 134.371 51.8116 134.371C51.5788 134.371 51.3913 134.558 51.3913 134.791C51.3913 135.024 51.5788 135.212 51.8116 135.212ZM55.2589 131.905V133.62C55.2589 134.383 54.8386 134.688 54.3213 134.688C53.8234 134.688 53.5195 134.39 53.5195 133.859V131.905H52.9569V133.892C52.9569 134.72 53.4548 135.225 54.2114 135.225C54.664 135.225 55.0196 135.057 55.2589 134.675V135.141H55.8214V131.905H55.2589ZM57.1565 132.778C57.1565 132.487 57.441 132.345 57.7319 132.345C58.0165 132.345 58.301 132.468 58.4238 132.759L58.8958 132.494C58.6889 132.073 58.2622 131.82 57.7319 131.82C57.0789 131.82 56.5874 132.215 56.5874 132.785C56.5874 133.956 58.3979 133.562 58.3979 134.254C58.3979 134.571 58.1005 134.694 57.7578 134.694C57.3569 134.694 57.0595 134.5 56.956 134.189L56.471 134.468C56.6586 134.914 57.1112 135.225 57.7578 135.225C58.4497 135.225 58.967 134.856 58.967 134.254C58.967 133.063 57.1565 133.471 57.1565 132.778ZM59.439 135.141H62.3617V134.558H60.3119L61.4694 133.406C61.9155 132.96 62.2776 132.474 62.2776 131.911C62.2776 131.018 61.5728 130.526 60.868 130.526C60.2796 130.526 59.73 130.817 59.439 131.419L59.9434 131.717C60.1373 131.309 60.4607 131.109 60.8745 131.109C61.2948 131.109 61.6763 131.387 61.6763 131.918C61.6763 132.299 61.3918 132.662 61.0361 133.018L59.439 134.649V135.141ZM63.3984 135.212C63.6377 135.212 63.8187 135.024 63.8187 134.791C63.8187 134.558 63.6377 134.371 63.3984 134.371C63.1656 134.371 62.9781 134.558 62.9781 134.791C62.9781 135.024 63.1656 135.212 63.3984 135.212ZM68.107 131.82C67.6867 131.82 67.3182 132.002 67.0919 132.371C66.9043 132.021 66.581 131.82 66.1413 131.82C65.7469 131.82 65.4107 131.976 65.1779 132.338V131.905H64.6153V135.141H65.1779V133.341C65.1779 132.642 65.5723 132.358 66.0056 132.358C66.4259 132.358 66.691 132.636 66.691 133.147V135.141H67.2535V133.341C67.2535 132.642 67.5962 132.358 68.0488 132.358C68.4756 132.358 68.7601 132.636 68.7601 133.147V135.141H69.3227V133.128C69.3227 132.319 68.8248 131.82 68.107 131.82ZM70.387 131.316C70.5939 131.316 70.762 131.147 70.762 130.94C70.762 130.733 70.5939 130.558 70.387 130.558C70.1736 130.558 70.0055 130.733 70.0055 130.94C70.0055 131.147 70.1736 131.316 70.387 131.316ZM70.1025 135.141H70.665V131.905H70.1025V135.141ZM73.1334 131.82C72.6808 131.82 72.3251 131.989 72.0859 132.371V131.905H71.5233V135.141H72.0859V133.426C72.0859 132.662 72.5062 132.358 73.0235 132.358C73.5213 132.358 73.8253 132.655 73.8253 133.186V135.141H74.3878V133.154C74.3878 132.325 73.8899 131.82 73.1334 131.82ZM75.5677 133.782H78.277C78.2899 133.697 78.2964 133.613 78.2964 133.529C78.2964 132.623 77.6627 131.82 76.6863 131.82C75.6776 131.82 74.9922 132.565 74.9922 133.523C74.9922 134.494 75.684 135.225 76.7251 135.225C77.3717 135.225 77.8631 134.934 78.1476 134.494L77.6691 134.222C77.5075 134.487 77.1842 134.694 76.738 134.694C76.1367 134.694 75.6776 134.364 75.5677 133.782ZM76.6863 132.351C77.1713 132.351 77.6304 132.649 77.7273 133.29H75.5677C75.6582 132.727 76.0785 132.351 76.6863 132.351ZM80.5099 130.526C79.5853 130.526 79.0938 130.947 79.0938 131.808V131.905H78.5766V132.448H79.0938V135.141H79.6564V132.448H80.3289V131.905H79.6564V131.808C79.6564 131.244 79.9474 131.031 80.5099 131.031C80.6199 131.031 80.7362 131.037 80.8526 131.044V135.141H81.4152V130.623C81.1048 130.565 80.8203 130.526 80.5099 130.526ZM82.6718 133.782H85.3811C85.394 133.697 85.4005 133.613 85.4005 133.529C85.4005 132.623 84.7668 131.82 83.7904 131.82C82.7817 131.82 82.0963 132.565 82.0963 133.523C82.0963 134.494 82.7882 135.225 83.8292 135.225C84.4758 135.225 84.9672 134.934 85.2517 134.494L84.7732 134.222C84.6116 134.487 84.2883 134.694 83.8421 134.694C83.2408 134.694 82.7817 134.364 82.6718 133.782ZM83.7904 132.351C84.2754 132.351 84.7345 132.649 84.8314 133.29H82.6718C82.7623 132.727 83.1826 132.351 83.7904 132.351ZM88.7016 135.141L87.4666 133.471L88.6305 131.905H87.971L87.1368 133.031L86.3027 131.905H85.6367L86.8071 133.477L85.5656 135.141H86.2251L87.1368 133.917L88.0421 135.141H88.7016ZM89.5789 135.212C89.8181 135.212 89.9992 135.024 89.9992 134.791C89.9992 134.558 89.8181 134.371 89.5789 134.371C89.3461 134.371 89.1586 134.558 89.1586 134.791C89.1586 135.024 89.3461 135.212 89.5789 135.212ZM91.0799 131.316C91.2868 131.316 91.4549 131.147 91.4549 130.94C91.4549 130.733 91.2868 130.558 91.0799 130.558C90.8665 130.558 90.6984 130.733 90.6984 130.94C90.6984 131.147 90.8665 131.316 91.0799 131.316ZM90.7954 135.141H91.3579V131.905H90.7954V135.141ZM93.7357 135.225C94.6798 135.225 95.4428 134.481 95.4428 133.523C95.4428 132.565 94.6798 131.82 93.7357 131.82C92.7917 131.82 92.0351 132.565 92.0351 133.523C92.0351 134.481 92.7917 135.225 93.7357 135.225ZM93.7357 134.675C93.0956 134.675 92.5977 134.176 92.5977 133.523C92.5977 132.869 93.0956 132.371 93.7357 132.371C94.3823 132.371 94.8802 132.869 94.8802 133.523C94.8802 134.176 94.3823 134.675 93.7357 134.675Z" fill="black"/>
<path d="M293.773 132.791C294.07 132.584 294.264 132.254 294.264 131.846C294.264 131.147 293.702 130.61 292.997 130.61H291.187V135.141H293.139C293.87 135.141 294.452 134.584 294.452 133.859C294.452 133.367 294.18 132.986 293.773 132.791ZM292.997 131.173C293.372 131.173 293.67 131.484 293.67 131.866C293.67 132.254 293.372 132.558 292.997 132.558H291.788V131.173H292.997ZM293.139 134.578H291.788V133.109H293.139C293.54 133.109 293.857 133.432 293.857 133.84C293.857 134.254 293.54 134.578 293.139 134.578ZM297.965 130.61V132.533H295.766V130.61H295.165V135.141H295.766V133.102H297.965V135.141H298.56V130.61H297.965ZM300.92 135.225C301.845 135.225 302.485 134.72 302.485 133.924C302.485 133.05 301.741 132.817 300.953 132.558C300.319 132.358 300.002 132.202 300.002 131.782C300.002 131.368 300.338 131.109 300.823 131.109C301.373 131.109 301.69 131.419 301.851 131.808L302.356 131.516C302.104 130.947 301.567 130.526 300.823 130.526C300.067 130.526 299.401 130.992 299.401 131.808C299.401 132.649 300.099 132.876 300.823 133.109C301.489 133.316 301.89 133.471 301.89 133.937C301.89 134.345 301.573 134.636 300.933 134.636C300.274 134.636 299.886 134.312 299.724 133.814L299.207 134.112C299.446 134.791 300.06 135.225 300.92 135.225Z" fill="black"/>
<path d="M203.545 135.141H204.508L203.506 133.432C204.023 133.193 204.379 132.681 204.379 132.112C204.379 131.283 203.706 130.61 202.872 130.61H201.062V135.141H201.954V133.568H202.633L203.545 135.141ZM201.954 131.445H202.872C203.208 131.445 203.486 131.736 203.486 132.112C203.486 132.487 203.208 132.785 202.872 132.785H201.954V131.445ZM205.535 133.866H207.973C207.992 133.756 208.005 133.646 208.005 133.523C208.005 132.571 207.326 131.814 206.369 131.814C205.354 131.814 204.662 132.558 204.662 133.523C204.662 134.487 205.348 135.231 206.434 135.231C207.055 135.231 207.54 134.979 207.844 134.539L207.171 134.151C207.029 134.338 206.77 134.474 206.447 134.474C206.007 134.474 205.652 134.293 205.535 133.866ZM205.522 133.219C205.619 132.804 205.923 132.565 206.369 132.565C206.719 132.565 207.068 132.753 207.171 133.219H205.522ZM209.231 132.824C209.231 132.649 209.399 132.558 209.606 132.558C209.845 132.558 210.026 132.681 210.123 132.889L210.834 132.5C210.582 132.054 210.13 131.814 209.606 131.814C208.94 131.814 208.377 132.183 208.377 132.843C208.377 133.982 210.046 133.723 210.046 134.196C210.046 134.384 209.865 134.474 209.599 134.474C209.276 134.474 209.056 134.319 208.966 134.054L208.242 134.461C208.474 134.96 208.953 135.231 209.599 135.231C210.291 135.231 210.899 134.895 210.899 134.196C210.899 133.005 209.231 133.303 209.231 132.824ZM213.19 132.707V131.905H212.459V130.999L211.625 131.251V131.905H211.062V132.707H211.625V134.054C211.625 134.927 212.019 135.27 213.19 135.141V134.384C212.711 134.409 212.459 134.403 212.459 134.054V132.707H213.19ZM216.134 131.905V132.287C215.901 131.995 215.552 131.814 215.08 131.814C214.22 131.814 213.509 132.558 213.509 133.523C213.509 134.487 214.22 135.231 215.08 135.231C215.552 135.231 215.901 135.05 216.134 134.759V135.141H216.968V131.905H216.134ZM215.235 134.435C214.724 134.435 214.343 134.066 214.343 133.523C214.343 132.979 214.724 132.61 215.235 132.61C215.753 132.61 216.134 132.979 216.134 133.523C216.134 134.066 215.753 134.435 215.235 134.435ZM218.559 132.461V131.905H217.725V135.141H218.559V133.594C218.559 132.914 219.108 132.72 219.542 132.772V131.84C219.134 131.84 218.727 132.021 218.559 132.461ZM221.967 132.707V131.905H221.237V130.999L220.403 131.251V131.905H219.84V132.707H220.403V134.054C220.403 134.927 220.797 135.27 221.967 135.141V134.384C221.489 134.409 221.237 134.403 221.237 134.054V132.707H221.967ZM222.969 131.516C223.254 131.516 223.486 131.283 223.486 131.005C223.486 130.727 223.254 130.487 222.969 130.487C222.691 130.487 222.458 130.727 222.458 131.005C222.458 131.283 222.691 131.516 222.969 131.516ZM222.555 135.141H223.389V131.905H222.555V135.141ZM225.95 131.814C225.517 131.814 225.181 131.976 224.987 132.267V131.905H224.153V135.141H224.987V133.393C224.987 132.83 225.291 132.591 225.698 132.591C226.073 132.591 226.338 132.817 226.338 133.257V135.141H227.173V133.154C227.173 132.293 226.636 131.814 225.95 131.814ZM230.361 131.905V132.306C230.135 132.002 229.786 131.814 229.327 131.814C228.409 131.814 227.717 132.565 227.717 133.471C227.717 134.384 228.409 135.128 229.327 135.128C229.786 135.128 230.135 134.94 230.361 134.636V134.986C230.361 135.497 230.038 135.782 229.514 135.782C229.016 135.782 228.803 135.581 228.667 135.329L227.956 135.736C228.24 136.261 228.796 136.526 229.488 136.526C230.342 136.526 231.176 136.047 231.176 134.986V131.905H230.361ZM229.456 134.358C228.932 134.358 228.551 133.989 228.551 133.471C228.551 132.96 228.932 132.591 229.456 132.591C229.98 132.591 230.361 132.96 230.361 133.471C230.361 133.989 229.98 134.358 229.456 134.358Z" fill="#D06400"/>
<path d="M389.383 135.141H390.06L391.685 130.61H391.03L389.724 134.39L388.413 130.61H387.767L389.383 135.141ZM394.448 131.905V132.461C394.19 132.066 393.776 131.82 393.228 131.82C392.327 131.82 391.59 132.565 391.59 133.523C391.59 134.481 392.327 135.225 393.228 135.225C393.776 135.225 394.19 134.979 394.448 134.584V135.141H395.013V131.905H394.448ZM393.297 134.681C392.651 134.681 392.155 134.183 392.155 133.523C392.155 132.863 392.651 132.364 393.297 132.364C393.953 132.364 394.448 132.863 394.448 133.523C394.448 134.183 393.953 134.681 393.297 134.681ZM397.474 131.82C397.022 131.82 396.664 131.989 396.427 132.371V131.905H395.862V135.141H396.427V133.426C396.427 132.662 396.845 132.358 397.362 132.358C397.862 132.358 398.164 132.655 398.164 133.186V135.141H398.729V133.154C398.729 132.325 398.229 131.82 397.474 131.82ZM399.798 131.316C400.005 131.316 400.173 131.147 400.173 130.94C400.173 130.733 400.005 130.558 399.798 130.558C399.587 130.558 399.419 130.733 399.419 130.94C399.419 131.147 399.587 131.316 399.798 131.316ZM399.513 135.141H400.078V131.905H399.513V135.141ZM400.936 135.141H401.496V130.416H400.936V135.141ZM402.354 135.141H402.919V130.416H402.354V135.141ZM406.454 131.905V132.461C406.195 132.066 405.781 131.82 405.229 131.82C404.333 131.82 403.596 132.565 403.596 133.523C403.596 134.481 404.333 135.225 405.229 135.225C405.781 135.225 406.195 134.979 406.454 134.584V135.141H407.014V131.905H406.454ZM405.303 134.681C404.656 134.681 404.156 134.183 404.156 133.523C404.156 132.863 404.656 132.364 405.303 132.364C405.954 132.364 406.454 132.863 406.454 133.523C406.454 134.183 405.954 134.681 405.303 134.681Z" fill="black"/>
<path d="M461.381 130.61L460.191 131.024L460.342 131.542L461.304 131.257V135.141H461.898V130.61H461.381ZM468.873 132.895H466.61V133.439H468.27C468.153 134.118 467.597 134.636 466.662 134.636C465.58 134.636 464.864 133.859 464.864 132.876C464.864 131.885 465.588 131.109 466.636 131.109C467.274 131.109 467.826 131.439 468.084 131.924L468.602 131.62C468.227 130.973 467.489 130.526 466.64 130.526C465.265 130.526 464.269 131.575 464.269 132.876C464.269 134.17 465.257 135.225 466.653 135.225C468.02 135.225 468.873 134.319 468.873 133.167V132.895Z" fill="black"/>
<path d="M577.767 10.7662H539.833C538.345 10.7662 537.139 11.9736 537.139 13.463V19.5037C537.139 20.9931 538.345 22.2005 539.833 22.2005H577.767C579.255 22.2005 580.462 20.9931 580.462 19.5037V13.463C580.462 11.9736 579.255 10.7662 577.767 10.7662Z" stroke="#0047FF" stroke-width="1.5"/>
<path d="M548.166 18.6408H548.942L547.671 15.0163H546.787L545.52 18.6408H546.287L546.507 17.9884H547.951L548.166 18.6408ZM546.735 17.3204L547.231 15.8396L547.727 17.3204H546.735ZM551.154 15.0163V16.3574C550.968 16.1192 550.692 15.9794 550.313 15.9794C549.623 15.9794 549.054 16.5748 549.054 17.3463C549.054 18.1178 549.623 18.7133 550.313 18.7133C550.692 18.7133 550.968 18.5735 551.154 18.3353V18.6408H551.822V15.0163H551.154ZM550.438 18.0764C550.024 18.0764 549.718 17.7813 549.718 17.3463C549.718 16.9114 550.024 16.6163 550.438 16.6163C550.848 16.6163 551.154 16.9114 551.154 17.3463C551.154 17.7813 550.848 18.0764 550.438 18.0764ZM554.391 15.0163V16.3574C554.206 16.1192 553.93 15.9794 553.555 15.9794C552.861 15.9794 552.292 16.5748 552.292 17.3463C552.292 18.1178 552.861 18.7133 553.555 18.7133C553.93 18.7133 554.206 18.5735 554.391 18.3353V18.6408H555.059V15.0163H554.391ZM553.676 18.0764C553.262 18.0764 552.96 17.7813 552.96 17.3463C552.96 16.9114 553.262 16.6163 553.676 16.6163C554.085 16.6163 554.391 16.9114 554.391 17.3463C554.391 17.7813 554.085 18.0764 553.676 18.0764ZM558.228 18.7133C558.999 18.7133 559.542 18.299 559.542 17.6208C559.542 16.8803 558.935 16.6888 558.357 16.5075C557.81 16.3418 557.672 16.2228 557.672 16.0001C557.672 15.793 557.848 15.6377 558.146 15.6377C558.512 15.6377 558.71 15.8292 558.84 16.1037L559.439 15.7568C559.198 15.2493 558.741 14.9438 558.146 14.9438C557.525 14.9438 556.956 15.3374 556.956 16.0208C556.956 16.7095 557.495 16.9425 558.047 17.103C558.585 17.2583 558.831 17.3619 558.831 17.6311C558.831 17.833 558.68 18.0143 558.249 18.0143C557.801 18.0143 557.547 17.7968 557.417 17.4602L556.805 17.8175C557.003 18.356 557.491 18.7133 558.228 18.7133ZM560.612 17.6208H562.564C562.577 17.5327 562.59 17.4447 562.59 17.3463C562.59 16.5852 562.047 15.9794 561.28 15.9794C560.469 15.9794 559.913 16.5748 559.913 17.3463C559.913 18.1178 560.461 18.7133 561.331 18.7133C561.827 18.7133 562.215 18.5113 562.461 18.1592L561.922 17.8486C561.806 17.9987 561.599 18.1075 561.34 18.1075C560.991 18.1075 560.706 17.9625 560.612 17.6208ZM560.603 17.103C560.681 16.7716 560.922 16.58 561.28 16.58C561.56 16.58 561.84 16.7302 561.922 17.103H560.603ZM563.72 16.4972V16.0519H563.056V18.6408H563.72V17.4033C563.72 16.8596 564.159 16.7043 564.508 16.7457V16.0001C564.181 16.0001 563.858 16.1451 563.72 16.4972ZM566.599 16.0519L565.97 17.8641L565.345 16.0519H564.608L565.59 18.6408H566.353L567.336 16.0519H566.599ZM568.121 17.6208H570.069C570.087 17.5327 570.095 17.4447 570.095 17.3463C570.095 16.5852 569.552 15.9794 568.785 15.9794C567.974 15.9794 567.423 16.5748 567.423 17.3463C567.423 18.1178 567.97 18.7133 568.836 18.7133C569.337 18.7133 569.724 18.5113 569.966 18.1592L569.427 17.8486C569.315 17.9987 569.108 18.1075 568.849 18.1075C568.496 18.1075 568.211 17.9625 568.121 17.6208ZM568.108 17.103C568.186 16.7716 568.431 16.58 568.785 16.58C569.065 16.58 569.345 16.7302 569.427 17.103H568.108ZM571.229 16.4972V16.0519H570.561V18.6408H571.229V17.4033C571.229 16.8596 571.669 16.7043 572.013 16.7457V16.0001C571.69 16.0001 571.363 16.1451 571.229 16.4972Z" fill="#0047FF"/>
</svg>
