<svg width="33" height="38" viewBox="0 0 33 38" fill="none" xmlns="http://www.w3.org/2000/svg">
<path d="M2.57059 21.4861L0.935324 19.8385C0.242913 19.1408 0.242913 18.0127 0.935324 17.3225L15.2476 2.89434C15.94 2.19668 17.0597 2.19668 17.7447 2.89434L32.057 17.315C32.7494 18.0127 32.7494 19.1408 32.057 19.8311L30.4217 21.4787C29.7219 22.1838 28.5802 22.1689 27.8951 21.449L19.4463 12.5131V33.8436C19.4463 34.8307 18.6581 35.6248 17.6784 35.6248H15.3213C14.3416 35.6248 13.5534 34.8307 13.5534 33.8436V12.5131L5.09715 21.4564C4.41211 22.1838 3.27037 22.1986 2.57059 21.4861V21.4861Z" fill="black"/>
</svg>
