<svg width="1712" height="1080" viewBox="0 0 1712 1080" fill="none" xmlns="http://www.w3.org/2000/svg">
<rect width="1712" height="1080" fill="white"/>
<rect width="1712" height="54" fill="#0047FF"/>
<path d="M22.1057 35H24.5529V29.3144C24.5529 28.0264 24.3321 26.1312 24.2033 24.8432H24.2769L25.3625 28.0448L27.4785 33.7672H29.0425L31.1401 28.0448L32.2441 24.8432H32.3361C32.1889 26.1312 31.9865 28.0264 31.9865 29.3144V35H34.4705V21.3656H31.4529L29.1897 27.7504C28.8953 28.5968 28.6561 29.4984 28.3617 30.3632H28.2697C27.9937 29.4984 27.7361 28.5968 27.4417 27.7504L25.1233 21.3656H22.1057V35ZM37.8103 35H40.5335V21.3656H37.8103V35ZM43.8838 35H46.4598V29.5352C46.4598 27.9712 46.2574 26.26 46.1286 24.788H46.2206L47.6006 27.7136L51.5382 35H54.2982V21.3656H51.7222V26.812C51.7222 28.3576 51.943 30.1608 52.0718 31.5776H51.9798L50.6182 28.6336L46.6622 21.3656H43.8838V35ZM57.6658 35H66.2218V32.7184H60.389V29.0752H65.173V26.7936H60.389V23.6472H66.0194V21.3656H57.6658V35ZM68.9861 35H71.7093V29.48H76.5485V27.1984H71.7093V23.6472H77.3765V21.3656H68.9861V35ZM79.7494 35H88.011V32.7184H82.4726V21.3656H79.7494V35ZM90.3869 35H98.9429V32.7184H93.1101V29.0752H97.8941V26.7936H93.1101V23.6472H98.7405V21.3656H90.3869V35ZM100.29 35H103.179L104.633 31.9824C104.964 31.2832 105.295 30.5656 105.626 29.7376H105.7C106.105 30.5656 106.418 31.2832 106.767 31.9824L108.294 35H111.312L107.485 28.1L111.073 21.3656H108.202L106.914 24.1808C106.62 24.8248 106.344 25.4872 106.013 26.3336H105.921C105.516 25.4872 105.24 24.8248 104.909 24.1808L103.547 21.3656H100.53L104.118 27.9712L100.29 35Z" fill="white"/>
<path d="M207.296 125.336C210.872 125.336 213.392 123.416 213.392 120.272C213.392 116.84 210.56 115.952 207.896 115.112C205.352 114.344 204.704 113.792 204.704 112.76C204.704 111.8 205.52 111.08 206.912 111.08C208.616 111.08 209.528 111.968 210.128 113.24L212.912 111.632C211.784 109.28 209.672 107.864 206.912 107.864C204.032 107.864 201.392 109.688 201.392 112.856C201.392 116.048 203.888 117.128 206.456 117.872C208.952 118.592 210.08 119.072 210.08 120.32C210.08 121.256 209.384 122.096 207.392 122.096C205.304 122.096 204.128 121.088 203.528 119.528L200.696 121.184C201.608 123.68 203.864 125.336 207.296 125.336ZM218.352 120.272H227.4C227.472 119.864 227.52 119.456 227.52 119C227.52 115.472 225 112.664 221.448 112.664C217.68 112.664 215.112 115.424 215.112 119C215.112 122.576 217.656 125.336 221.688 125.336C223.992 125.336 225.792 124.4 226.92 122.768L224.424 121.328C223.896 122.024 222.936 122.528 221.736 122.528C220.104 122.528 218.784 121.856 218.352 120.272ZM218.304 117.872C218.664 116.336 219.792 115.448 221.448 115.448C222.744 115.448 224.04 116.144 224.424 117.872H218.304ZM232.778 115.064V113H229.682V125H232.778V119.264C232.778 116.744 234.818 116.024 236.426 116.216V112.76C234.914 112.76 233.402 113.432 232.778 115.064ZM246.132 113L243.204 121.4L240.3 113H236.892L241.452 125H244.98L249.54 113H246.132ZM253.18 120.272H262.228C262.3 119.864 262.348 119.456 262.348 119C262.348 115.472 259.828 112.664 256.276 112.664C252.508 112.664 249.94 115.424 249.94 119C249.94 122.576 252.484 125.336 256.516 125.336C258.82 125.336 260.62 124.4 261.748 122.768L259.252 121.328C258.724 122.024 257.764 122.528 256.564 122.528C254.932 122.528 253.612 121.856 253.18 120.272ZM253.132 117.872C253.492 116.336 254.62 115.448 256.276 115.448C257.572 115.448 258.868 116.144 259.252 117.872H253.132ZM267.606 115.064V113H264.51V125H267.606V119.264C267.606 116.744 269.646 116.024 271.254 116.216V112.76C269.742 112.76 268.23 113.432 267.606 115.064ZM282.52 121.832V108.2H279.208V125H288.928V121.832H282.52ZM292.202 111.56C293.258 111.56 294.122 110.696 294.122 109.664C294.122 108.632 293.258 107.744 292.202 107.744C291.17 107.744 290.306 108.632 290.306 109.664C290.306 110.696 291.17 111.56 292.202 111.56ZM290.666 125H293.762V113H290.666V125ZM299.358 116.408C299.358 115.76 299.982 115.424 300.75 115.424C301.638 115.424 302.31 115.88 302.67 116.648L305.31 115.208C304.374 113.552 302.694 112.664 300.75 112.664C298.278 112.664 296.19 114.032 296.19 116.48C296.19 120.704 302.382 119.744 302.382 121.496C302.382 122.192 301.71 122.528 300.726 122.528C299.526 122.528 298.71 121.952 298.374 120.968L295.686 122.48C296.55 124.328 298.326 125.336 300.726 125.336C303.294 125.336 305.55 124.088 305.55 121.496C305.55 117.08 299.358 118.184 299.358 116.408ZM314.053 115.976V113H311.341V109.64L308.245 110.576V113H306.157V115.976H308.245V120.968C308.245 124.208 309.709 125.48 314.053 125V122.192C312.277 122.288 311.341 122.264 311.341 120.968V115.976H314.053Z" fill="black"/>
<rect x="200" y="155" width="1312" height="29" rx="4" fill="#F5F5F5"/>
<path d="M228.56 175.21C230.795 175.21 232.37 174.01 232.37 172.045C232.37 169.9 230.6 169.345 228.935 168.82C227.345 168.34 226.94 167.995 226.94 167.35C226.94 166.75 227.45 166.3 228.32 166.3C229.385 166.3 229.955 166.855 230.33 167.65L232.07 166.645C231.365 165.175 230.045 164.29 228.32 164.29C226.52 164.29 224.87 165.43 224.87 167.41C224.87 169.405 226.43 170.08 228.035 170.545C229.595 170.995 230.3 171.295 230.3 172.075C230.3 172.66 229.865 173.185 228.62 173.185C227.315 173.185 226.58 172.555 226.205 171.58L224.435 172.615C225.005 174.175 226.415 175.21 228.56 175.21ZM235.47 172.045H241.125C241.17 171.79 241.2 171.535 241.2 171.25C241.2 169.045 239.625 167.29 237.405 167.29C235.05 167.29 233.445 169.015 233.445 171.25C233.445 173.485 235.035 175.21 237.555 175.21C238.995 175.21 240.12 174.625 240.825 173.605L239.265 172.705C238.935 173.14 238.335 173.455 237.585 173.455C236.565 173.455 235.74 173.035 235.47 172.045ZM235.44 170.545C235.665 169.585 236.37 169.03 237.405 169.03C238.215 169.03 239.025 169.465 239.265 170.545H235.44ZM244.486 168.79V167.5H242.551V175H244.486V171.415C244.486 169.84 245.761 169.39 246.766 169.51V167.35C245.821 167.35 244.876 167.77 244.486 168.79ZM252.833 167.5L251.003 172.75L249.188 167.5H247.058L249.908 175H252.113L254.963 167.5H252.833ZM257.238 172.045H262.893C262.938 171.79 262.968 171.535 262.968 171.25C262.968 169.045 261.393 167.29 259.173 167.29C256.818 167.29 255.213 169.015 255.213 171.25C255.213 173.485 256.803 175.21 259.323 175.21C260.763 175.21 261.888 174.625 262.593 173.605L261.033 172.705C260.703 173.14 260.103 173.455 259.353 173.455C258.333 173.455 257.508 173.035 257.238 172.045ZM257.208 170.545C257.433 169.585 258.138 169.03 259.173 169.03C259.983 169.03 260.793 169.465 261.033 170.545H257.208ZM266.254 168.79V167.5H264.319V175H266.254V171.415C266.254 169.84 267.529 169.39 268.534 169.51V167.35C267.589 167.35 266.644 167.77 266.254 168.79ZM280.255 175H282.505L278.815 164.5H276.25L272.575 175H274.81L275.44 173.11H279.625L280.255 175ZM276.1 171.175L277.54 166.885L278.98 171.175H276.1ZM288.915 164.5V168.385C288.375 167.695 287.58 167.29 286.485 167.29C284.475 167.29 282.825 169.015 282.825 171.25C282.825 173.485 284.475 175.21 286.485 175.21C287.58 175.21 288.375 174.805 288.915 174.115V175H290.85V164.5H288.915ZM286.845 173.365C285.645 173.365 284.76 172.51 284.76 171.25C284.76 169.99 285.645 169.135 286.845 169.135C288.03 169.135 288.915 169.99 288.915 171.25C288.915 172.51 288.03 173.365 286.845 173.365ZM298.304 164.5V168.385C297.764 167.695 296.969 167.29 295.874 167.29C293.864 167.29 292.214 169.015 292.214 171.25C292.214 173.485 293.864 175.21 295.874 175.21C296.969 175.21 297.764 174.805 298.304 174.115V175H300.239V164.5H298.304ZM296.234 173.365C295.034 173.365 294.149 172.51 294.149 171.25C294.149 169.99 295.034 169.135 296.234 169.135C297.419 169.135 298.304 169.99 298.304 171.25C298.304 172.51 297.419 173.365 296.234 173.365ZM303.944 168.79V167.5H302.009V175H303.944V171.415C303.944 169.84 305.219 169.39 306.224 169.51V167.35C305.279 167.35 304.334 167.77 303.944 168.79ZM308.712 172.045H314.367C314.412 171.79 314.442 171.535 314.442 171.25C314.442 169.045 312.867 167.29 310.647 167.29C308.292 167.29 306.687 169.015 306.687 171.25C306.687 173.485 308.277 175.21 310.797 175.21C312.237 175.21 313.362 174.625 314.067 173.605L312.507 172.705C312.177 173.14 311.577 173.455 310.827 173.455C309.807 173.455 308.982 173.035 308.712 172.045ZM308.682 170.545C308.907 169.585 309.612 169.03 310.647 169.03C311.457 169.03 312.267 169.465 312.507 170.545H308.682ZM317.285 169.63C317.285 169.225 317.675 169.015 318.155 169.015C318.71 169.015 319.13 169.3 319.355 169.78L321.005 168.88C320.42 167.845 319.37 167.29 318.155 167.29C316.61 167.29 315.305 168.145 315.305 169.675C315.305 172.315 319.175 171.715 319.175 172.81C319.175 173.245 318.755 173.455 318.14 173.455C317.39 173.455 316.88 173.095 316.67 172.48L314.99 173.425C315.53 174.58 316.64 175.21 318.14 175.21C319.745 175.21 321.155 174.43 321.155 172.81C321.155 170.05 317.285 170.74 317.285 169.63ZM323.789 169.63C323.789 169.225 324.179 169.015 324.659 169.015C325.214 169.015 325.634 169.3 325.859 169.78L327.509 168.88C326.924 167.845 325.874 167.29 324.659 167.29C323.114 167.29 321.809 168.145 321.809 169.675C321.809 172.315 325.679 171.715 325.679 172.81C325.679 173.245 325.259 173.455 324.644 173.455C323.894 173.455 323.384 173.095 323.174 172.48L321.494 173.425C322.034 174.58 323.144 175.21 324.644 175.21C326.249 175.21 327.659 174.43 327.659 172.81C327.659 170.05 323.789 170.74 323.789 169.63Z" fill="black"/>
<path d="M620.56 175.21C622.795 175.21 624.37 174.01 624.37 172.045C624.37 169.9 622.6 169.345 620.935 168.82C619.345 168.34 618.94 167.995 618.94 167.35C618.94 166.75 619.45 166.3 620.32 166.3C621.385 166.3 621.955 166.855 622.33 167.65L624.07 166.645C623.365 165.175 622.045 164.29 620.32 164.29C618.52 164.29 616.87 165.43 616.87 167.41C616.87 169.405 618.43 170.08 620.035 170.545C621.595 170.995 622.3 171.295 622.3 172.075C622.3 172.66 621.865 173.185 620.62 173.185C619.315 173.185 618.58 172.555 618.205 171.58L616.435 172.615C617.005 174.175 618.415 175.21 620.56 175.21ZM629.7 169.36V167.5H628.005V165.4L626.07 165.985V167.5H624.765V169.36H626.07V172.48C626.07 174.505 626.985 175.3 629.7 175V173.245C628.59 173.305 628.005 173.29 628.005 172.48V169.36H629.7ZM636.53 167.5V168.385C635.99 167.71 635.18 167.29 634.085 167.29C632.09 167.29 630.44 169.015 630.44 171.25C630.44 173.485 632.09 175.21 634.085 175.21C635.18 175.21 635.99 174.79 636.53 174.115V175H638.465V167.5H636.53ZM634.445 173.365C633.26 173.365 632.375 172.51 632.375 171.25C632.375 169.99 633.26 169.135 634.445 169.135C635.645 169.135 636.53 169.99 636.53 171.25C636.53 172.51 635.645 173.365 634.445 173.365ZM644.51 169.36V167.5H642.815V165.4L640.88 165.985V167.5H639.575V169.36H640.88V172.48C640.88 174.505 641.795 175.3 644.51 175V173.245C643.4 173.305 642.815 173.29 642.815 172.48V169.36H644.51ZM647.275 172.045H652.93C652.975 171.79 653.005 171.535 653.005 171.25C653.005 169.045 651.43 167.29 649.21 167.29C646.855 167.29 645.25 169.015 645.25 171.25C645.25 173.485 646.84 175.21 649.36 175.21C650.8 175.21 651.925 174.625 652.63 173.605L651.07 172.705C650.74 173.14 650.14 173.455 649.39 173.455C648.37 173.455 647.545 173.035 647.275 172.045ZM647.245 170.545C647.47 169.585 648.175 169.03 649.21 169.03C650.02 169.03 650.83 169.465 651.07 170.545H647.245Z" fill="black"/>
<path d="M842.045 173.02V164.5H839.975V175H846.05V173.02H842.045ZM850.559 175.21C852.764 175.21 854.534 173.485 854.534 171.25C854.534 169.015 852.764 167.29 850.559 167.29C848.354 167.29 846.599 169.015 846.599 171.25C846.599 173.485 848.354 175.21 850.559 175.21ZM850.559 173.32C849.419 173.32 848.534 172.465 848.534 171.25C848.534 170.035 849.419 169.18 850.559 169.18C851.714 169.18 852.599 170.035 852.599 171.25C852.599 172.465 851.714 173.32 850.559 173.32ZM859.466 175.21C860.936 175.21 862.211 174.43 862.856 173.26L861.176 172.3C860.876 172.915 860.231 173.29 859.451 173.29C858.296 173.29 857.441 172.435 857.441 171.25C857.441 170.05 858.296 169.195 859.451 169.195C860.216 169.195 860.861 169.585 861.161 170.2L862.826 169.225C862.211 168.07 860.936 167.29 859.466 167.29C857.186 167.29 855.506 169.015 855.506 171.25C855.506 173.485 857.186 175.21 859.466 175.21ZM869.462 167.5V168.385C868.922 167.71 868.112 167.29 867.017 167.29C865.022 167.29 863.372 169.015 863.372 171.25C863.372 173.485 865.022 175.21 867.017 175.21C868.112 175.21 868.922 174.79 869.462 174.115V175H871.397V167.5H869.462ZM867.377 173.365C866.192 173.365 865.307 172.51 865.307 171.25C865.307 169.99 866.192 169.135 867.377 169.135C868.577 169.135 869.462 169.99 869.462 171.25C869.462 172.51 868.577 173.365 867.377 173.365ZM877.442 169.36V167.5H875.747V165.4L873.812 165.985V167.5H872.507V169.36H873.812V172.48C873.812 174.505 874.727 175.3 877.442 175V173.245C876.332 173.305 875.747 173.29 875.747 172.48V169.36H877.442ZM879.766 166.6C880.426 166.6 880.966 166.06 880.966 165.415C880.966 164.77 880.426 164.215 879.766 164.215C879.121 164.215 878.581 164.77 878.581 165.415C878.581 166.06 879.121 166.6 879.766 166.6ZM878.806 175H880.741V167.5H878.806V175ZM886.082 175.21C888.287 175.21 890.057 173.485 890.057 171.25C890.057 169.015 888.287 167.29 886.082 167.29C883.877 167.29 882.122 169.015 882.122 171.25C882.122 173.485 883.877 175.21 886.082 175.21ZM886.082 173.32C884.942 173.32 884.057 172.465 884.057 171.25C884.057 170.035 884.942 169.18 886.082 169.18C887.237 169.18 888.122 170.035 888.122 171.25C888.122 172.465 887.237 173.32 886.082 173.32ZM895.588 167.29C894.583 167.29 893.803 167.665 893.353 168.34V167.5H891.418V175H893.353V170.95C893.353 169.645 894.058 169.09 895.003 169.09C895.873 169.09 896.488 169.615 896.488 170.635V175H898.423V170.395C898.423 168.4 897.178 167.29 895.588 167.29Z" fill="black"/>
<path d="M1071.92 164.5H1064.2V166.48H1067.02V175H1069.09V166.48H1071.92V164.5ZM1076.81 167.5L1075.14 172.54L1073.19 167.5H1071.08L1074.15 174.76C1073.79 175.765 1073.25 176.215 1072.19 176.2V178C1074.09 178.105 1075.37 177.16 1076.15 175L1078.88 167.5H1076.81ZM1084.16 167.29C1083.07 167.29 1082.27 167.695 1081.73 168.385V167.5H1079.8V178H1081.73V174.115C1082.27 174.805 1083.07 175.21 1084.16 175.21C1086.17 175.21 1087.82 173.485 1087.82 171.25C1087.82 169.015 1086.17 167.29 1084.16 167.29ZM1083.8 173.365C1082.62 173.365 1081.73 172.51 1081.73 171.25C1081.73 169.99 1082.62 169.135 1083.8 169.135C1085 169.135 1085.89 169.99 1085.89 171.25C1085.89 172.51 1085 173.365 1083.8 173.365ZM1090.82 172.045H1096.48C1096.52 171.79 1096.55 171.535 1096.55 171.25C1096.55 169.045 1094.98 167.29 1092.76 167.29C1090.4 167.29 1088.8 169.015 1088.8 171.25C1088.8 173.485 1090.39 175.21 1092.91 175.21C1094.35 175.21 1095.47 174.625 1096.18 173.605L1094.62 172.705C1094.29 173.14 1093.69 173.455 1092.94 173.455C1091.92 173.455 1091.09 173.035 1090.82 172.045ZM1090.79 170.545C1091.02 169.585 1091.72 169.03 1092.76 169.03C1093.57 169.03 1094.38 169.465 1094.62 170.545H1090.79Z" fill="black"/>
<path d="M1238.74 175H1240.97L1238.65 171.04C1239.85 170.485 1240.67 169.3 1240.67 167.98C1240.67 166.06 1239.11 164.5 1237.18 164.5H1232.98V175H1235.05V171.355H1236.62L1238.74 175ZM1235.05 166.435H1237.18C1237.96 166.435 1238.6 167.11 1238.6 167.98C1238.6 168.85 1237.96 169.54 1237.18 169.54H1235.05V166.435ZM1248.94 175H1251.19L1247.5 164.5H1244.93L1241.26 175H1243.49L1244.12 173.11H1248.31L1248.94 175ZM1244.78 171.175L1246.22 166.885L1247.66 171.175H1244.78ZM1262.48 164.5H1260.35L1257.35 169.465L1254.34 164.5H1252.21V175H1254.28V168.205L1257.23 173.065H1257.47L1260.43 168.19V175H1262.48V164.5Z" fill="black"/>
<rect x="200.5" y="200.5" width="1311" height="61" rx="13.5" fill="white" stroke="#E6E6E6"/>
<rect x="616" y="216" width="100" height="30" rx="15" fill="#009D5B" fill-opacity="0.1"/>
<path d="M226.245 232.85H232.53C232.56 232.655 232.575 232.46 232.575 232.265C232.575 230.165 231.105 228.305 228.84 228.305C226.5 228.305 224.91 230.03 224.91 232.25C224.91 234.5 226.515 236.195 228.93 236.195C230.43 236.195 231.57 235.52 232.23 234.5L231.12 233.87C230.745 234.485 229.995 234.965 228.96 234.965C227.565 234.965 226.5 234.2 226.245 232.85ZM228.84 229.535C229.965 229.535 231.03 230.225 231.255 231.71H226.245C226.455 230.405 227.43 229.535 228.84 229.535ZM240.234 236L237.369 232.13L240.069 228.5H238.539L236.604 231.11L234.669 228.5H233.124L235.839 232.145L232.959 236H234.489L236.604 233.165L238.704 236H240.234ZM247.126 228.5V229.79C246.526 228.875 245.566 228.305 244.291 228.305C242.206 228.305 240.496 230.03 240.496 232.25C240.496 234.47 242.206 236.195 244.291 236.195C245.566 236.195 246.526 235.625 247.126 234.71V236H248.431V228.5H247.126ZM244.456 234.935C242.956 234.935 241.801 233.78 241.801 232.25C241.801 230.72 242.956 229.565 244.456 229.565C245.971 229.565 247.126 230.72 247.126 232.25C247.126 233.78 245.971 234.935 244.456 234.935ZM258.508 228.305C257.533 228.305 256.678 228.725 256.153 229.58C255.718 228.77 254.968 228.305 253.948 228.305C253.033 228.305 252.253 228.665 251.713 229.505V228.5H250.408V236H251.713V231.83C251.713 230.21 252.628 229.55 253.633 229.55C254.608 229.55 255.223 230.195 255.223 231.38V236H256.528V231.83C256.528 230.21 257.323 229.55 258.373 229.55C259.363 229.55 260.023 230.195 260.023 231.38V236H261.328V231.335C261.328 229.46 260.173 228.305 258.508 228.305ZM267.278 228.305C266.003 228.305 265.043 228.875 264.443 229.79V228.5H263.138V239H264.443V234.71C265.043 235.625 266.003 236.195 267.278 236.195C269.363 236.195 271.073 234.47 271.073 232.25C271.073 230.03 269.363 228.305 267.278 228.305ZM267.113 234.935C265.598 234.935 264.443 233.78 264.443 232.25C264.443 230.72 265.598 229.565 267.113 229.565C268.613 229.565 269.768 230.72 269.768 232.25C269.768 233.78 268.613 234.935 267.113 234.935ZM272.63 236H273.935V225.05H272.63V236ZM276.841 232.85H283.126C283.156 232.655 283.171 232.46 283.171 232.265C283.171 230.165 281.701 228.305 279.436 228.305C277.096 228.305 275.506 230.03 275.506 232.25C275.506 234.5 277.111 236.195 279.526 236.195C281.026 236.195 282.166 235.52 282.826 234.5L281.716 233.87C281.341 234.485 280.591 234.965 279.556 234.965C278.161 234.965 277.096 234.2 276.841 232.85ZM279.436 229.535C280.561 229.535 281.626 230.225 281.851 231.71H276.841C277.051 230.405 278.026 229.535 279.436 229.535ZM284.896 236.165C285.451 236.165 285.871 235.73 285.871 235.19C285.871 234.65 285.451 234.215 284.896 234.215C284.356 234.215 283.921 234.65 283.921 235.19C283.921 235.73 284.356 236.165 284.896 236.165ZM292.893 228.5V232.475C292.893 234.245 291.918 234.95 290.718 234.95C289.563 234.95 288.858 234.26 288.858 233.03V228.5H287.553V233.105C287.553 235.025 288.708 236.195 290.463 236.195C291.513 236.195 292.338 235.805 292.893 234.92V236H294.198V228.5H292.893ZM297.295 230.525C297.295 229.85 297.955 229.52 298.63 229.52C299.29 229.52 299.95 229.805 300.235 230.48L301.33 229.865C300.85 228.89 299.86 228.305 298.63 228.305C297.115 228.305 295.975 229.22 295.975 230.54C295.975 233.255 300.175 232.34 300.175 233.945C300.175 234.68 299.485 234.965 298.69 234.965C297.76 234.965 297.07 234.515 296.83 233.795L295.705 234.44C296.14 235.475 297.19 236.195 298.69 236.195C300.295 236.195 301.495 235.34 301.495 233.945C301.495 231.185 297.295 232.13 297.295 230.525ZM302.59 236H309.37V234.65H304.615L307.3 231.98C308.335 230.945 309.175 229.82 309.175 228.515C309.175 226.445 307.54 225.305 305.905 225.305C304.54 225.305 303.265 225.98 302.59 227.375L303.76 228.065C304.21 227.12 304.96 226.655 305.92 226.655C306.895 226.655 307.78 227.3 307.78 228.53C307.78 229.415 307.12 230.255 306.295 231.08L302.59 234.86V236ZM311.775 236.165C312.33 236.165 312.75 235.73 312.75 235.19C312.75 234.65 312.33 234.215 311.775 234.215C311.235 234.215 310.8 234.65 310.8 235.19C310.8 235.73 311.235 236.165 311.775 236.165ZM322.698 228.305C321.723 228.305 320.868 228.725 320.343 229.58C319.908 228.77 319.158 228.305 318.138 228.305C317.223 228.305 316.443 228.665 315.903 229.505V228.5H314.598V236H315.903V231.83C315.903 230.21 316.818 229.55 317.823 229.55C318.798 229.55 319.413 230.195 319.413 231.38V236H320.718V231.83C320.718 230.21 321.513 229.55 322.563 229.55C323.553 229.55 324.213 230.195 324.213 231.38V236H325.518V231.335C325.518 229.46 324.363 228.305 322.698 228.305ZM327.987 227.135C328.467 227.135 328.857 226.745 328.857 226.265C328.857 225.785 328.467 225.38 327.987 225.38C327.492 225.38 327.102 225.785 327.102 226.265C327.102 226.745 327.492 227.135 327.987 227.135ZM327.327 236H328.632V228.5H327.327V236ZM334.358 228.305C333.308 228.305 332.483 228.695 331.928 229.58V228.5H330.623V236H331.928V232.025C331.928 230.255 332.903 229.55 334.103 229.55C335.258 229.55 335.963 230.24 335.963 231.47V236H337.268V231.395C337.268 229.475 336.113 228.305 334.358 228.305ZM340.005 232.85H346.29C346.32 232.655 346.335 232.46 346.335 232.265C346.335 230.165 344.865 228.305 342.6 228.305C340.26 228.305 338.67 230.03 338.67 232.25C338.67 234.5 340.275 236.195 342.69 236.195C344.19 236.195 345.33 235.52 345.99 234.5L344.88 233.87C344.505 234.485 343.755 234.965 342.72 234.965C341.325 234.965 340.26 234.2 340.005 232.85ZM342.6 229.535C343.725 229.535 344.79 230.225 345.015 231.71H340.005C340.215 230.405 341.19 229.535 342.6 229.535ZM351.47 225.305C349.325 225.305 348.185 226.28 348.185 228.275V228.5H346.985V229.76H348.185V236H349.49V229.76H351.05V228.5H349.49V228.275C349.49 226.97 350.165 226.475 351.47 226.475C351.725 226.475 351.995 226.49 352.265 226.505V236H353.57V225.53C352.85 225.395 352.19 225.305 351.47 225.305ZM356.485 232.85H362.77C362.8 232.655 362.815 232.46 362.815 232.265C362.815 230.165 361.345 228.305 359.08 228.305C356.74 228.305 355.15 230.03 355.15 232.25C355.15 234.5 356.755 236.195 359.17 236.195C360.67 236.195 361.81 235.52 362.47 234.5L361.36 233.87C360.985 234.485 360.235 234.965 359.2 234.965C357.805 234.965 356.74 234.2 356.485 232.85ZM359.08 229.535C360.205 229.535 361.27 230.225 361.495 231.71H356.485C356.695 230.405 357.67 229.535 359.08 229.535ZM370.473 236L367.608 232.13L370.308 228.5H368.778L366.843 231.11L364.908 228.5H363.363L366.078 232.145L363.198 236H364.728L366.843 233.165L368.943 236H370.473ZM372.508 236.165C373.063 236.165 373.483 235.73 373.483 235.19C373.483 234.65 373.063 234.215 372.508 234.215C371.968 234.215 371.533 234.65 371.533 235.19C371.533 235.73 371.968 236.165 372.508 236.165ZM375.99 227.135C376.47 227.135 376.86 226.745 376.86 226.265C376.86 225.785 376.47 225.38 375.99 225.38C375.495 225.38 375.105 225.785 375.105 226.265C375.105 226.745 375.495 227.135 375.99 227.135ZM375.33 236H376.635V228.5H375.33V236ZM382.151 236.195C384.341 236.195 386.111 234.47 386.111 232.25C386.111 230.03 384.341 228.305 382.151 228.305C379.961 228.305 378.206 230.03 378.206 232.25C378.206 234.47 379.961 236.195 382.151 236.195ZM382.151 234.92C380.666 234.92 379.511 233.765 379.511 232.25C379.511 230.735 380.666 229.58 382.151 229.58C383.651 229.58 384.806 230.735 384.806 232.25C384.806 233.765 383.651 234.92 382.151 234.92Z" fill="black"/>
<path d="M846.194 230.555C846.884 230.075 847.334 229.31 847.334 228.365C847.334 226.745 846.029 225.5 844.394 225.5H840.194V236H844.724C846.419 236 847.769 234.71 847.769 233.03C847.769 231.89 847.139 231.005 846.194 230.555ZM844.394 226.805C845.264 226.805 845.954 227.525 845.954 228.41C845.954 229.31 845.264 230.015 844.394 230.015H841.589V226.805H844.394ZM844.724 234.695H841.589V231.29H844.724C845.654 231.29 846.389 232.04 846.389 232.985C846.389 233.945 845.654 234.695 844.724 234.695ZM855.918 225.5V229.955H850.818V225.5H849.423V236H850.818V231.275H855.918V236H857.298V225.5H855.918ZM862.774 236.195C864.919 236.195 866.404 235.025 866.404 233.18C866.404 231.155 864.679 230.615 862.849 230.015C861.379 229.55 860.644 229.19 860.644 228.215C860.644 227.255 861.424 226.655 862.549 226.655C863.824 226.655 864.559 227.375 864.934 228.275L866.104 227.6C865.519 226.28 864.274 225.305 862.549 225.305C860.794 225.305 859.249 226.385 859.249 228.275C859.249 230.225 860.869 230.75 862.549 231.29C864.094 231.77 865.024 232.13 865.024 233.21C865.024 234.155 864.289 234.83 862.804 234.83C861.274 234.83 860.374 234.08 859.999 232.925L858.799 233.615C859.354 235.19 860.779 236.195 862.774 236.195Z" fill="black"/>
<path d="M650.16 236H652.395L650.07 232.04C651.27 231.485 652.095 230.3 652.095 228.98C652.095 227.06 650.535 225.5 648.6 225.5H644.4V236H646.47V232.355H648.045L650.16 236ZM646.47 227.435H648.6C649.38 227.435 650.025 228.11 650.025 228.98C650.025 229.85 649.38 230.54 648.6 230.54H646.47V227.435ZM654.778 233.045H660.433C660.478 232.79 660.508 232.535 660.508 232.25C660.508 230.045 658.933 228.29 656.713 228.29C654.358 228.29 652.753 230.015 652.753 232.25C652.753 234.485 654.343 236.21 656.863 236.21C658.303 236.21 659.428 235.625 660.133 234.605L658.573 233.705C658.243 234.14 657.643 234.455 656.893 234.455C655.873 234.455 655.048 234.035 654.778 233.045ZM654.748 231.545C654.973 230.585 655.678 230.03 656.713 230.03C657.523 230.03 658.333 230.465 658.573 231.545H654.748ZM667.5 228.5V229.385C666.96 228.71 666.15 228.29 665.055 228.29C663.06 228.29 661.41 230.015 661.41 232.25C661.41 234.485 663.06 236.21 665.055 236.21C666.15 236.21 666.96 235.79 667.5 235.115V236H669.435V228.5H667.5ZM665.415 234.365C664.23 234.365 663.345 233.51 663.345 232.25C663.345 230.99 664.23 230.135 665.415 230.135C666.615 230.135 667.5 230.99 667.5 232.25C667.5 233.51 666.615 234.365 665.415 234.365ZM676.875 225.5V229.385C676.335 228.695 675.54 228.29 674.445 228.29C672.435 228.29 670.785 230.015 670.785 232.25C670.785 234.485 672.435 236.21 674.445 236.21C675.54 236.21 676.335 235.805 676.875 235.115V236H678.81V225.5H676.875ZM674.805 234.365C673.605 234.365 672.72 233.51 672.72 232.25C672.72 230.99 673.605 230.135 674.805 230.135C675.99 230.135 676.875 230.99 676.875 232.25C676.875 233.51 675.99 234.365 674.805 234.365ZM685.469 228.5L683.804 233.54L681.854 228.5H679.739L682.814 235.76C682.454 236.765 681.914 237.215 680.849 237.2V239C682.754 239.105 684.029 238.16 684.809 236L687.539 228.5H685.469Z" fill="#00874E"/>
<path d="M1067.99 236H1069.56L1073.33 225.5H1071.81L1068.78 234.26L1065.74 225.5H1064.24L1067.99 236ZM1079.74 228.5V229.79C1079.14 228.875 1078.18 228.305 1076.91 228.305C1074.82 228.305 1073.11 230.03 1073.11 232.25C1073.11 234.47 1074.82 236.195 1076.91 236.195C1078.18 236.195 1079.14 235.625 1079.74 234.71V236H1081.05V228.5H1079.74ZM1077.07 234.935C1075.57 234.935 1074.42 233.78 1074.42 232.25C1074.42 230.72 1075.57 229.565 1077.07 229.565C1078.59 229.565 1079.74 230.72 1079.74 232.25C1079.74 233.78 1078.59 234.935 1077.07 234.935ZM1086.76 228.305C1085.71 228.305 1084.88 228.695 1084.33 229.58V228.5H1083.02V236H1084.33V232.025C1084.33 230.255 1085.3 229.55 1086.5 229.55C1087.66 229.55 1088.36 230.24 1088.36 231.47V236H1089.67V231.395C1089.67 229.475 1088.51 228.305 1086.76 228.305ZM1092.15 227.135C1092.63 227.135 1093.02 226.745 1093.02 226.265C1093.02 225.785 1092.63 225.38 1092.15 225.38C1091.66 225.38 1091.27 225.785 1091.27 226.265C1091.27 226.745 1091.66 227.135 1092.15 227.135ZM1091.49 236H1092.8V228.5H1091.49V236ZM1094.79 236H1096.09V225.05H1094.79V236ZM1098.08 236H1099.39V225.05H1098.08V236ZM1107.59 228.5V229.79C1106.99 228.875 1106.03 228.305 1104.75 228.305C1102.67 228.305 1100.96 230.03 1100.96 232.25C1100.96 234.47 1102.67 236.195 1104.75 236.195C1106.03 236.195 1106.99 235.625 1107.59 234.71V236H1108.89V228.5H1107.59ZM1104.92 234.935C1103.42 234.935 1102.26 233.78 1102.26 232.25C1102.26 230.72 1103.42 229.565 1104.92 229.565C1106.43 229.565 1107.59 230.72 1107.59 232.25C1107.59 233.78 1106.43 234.935 1104.92 234.935Z" fill="black"/>
<path d="M1235.01 225.5L1232.25 226.46L1232.6 227.66L1234.83 227V236H1236.21V225.5H1235.01ZM1252.39 230.795H1247.14V232.055H1250.99C1250.72 233.63 1249.43 234.83 1247.26 234.83C1244.75 234.83 1243.09 233.03 1243.09 230.75C1243.09 228.455 1244.77 226.655 1247.2 226.655C1248.68 226.655 1249.96 227.42 1250.56 228.545L1251.76 227.84C1250.89 226.34 1249.18 225.305 1247.21 225.305C1244.02 225.305 1241.71 227.735 1241.71 230.75C1241.71 233.75 1244 236.195 1247.24 236.195C1250.41 236.195 1252.39 234.095 1252.39 231.425V230.795Z" fill="black"/>
<rect x="1411.5" y="216.5" width="76" height="29" rx="14.5" fill="white" stroke="#E6E6E6"/>
<path d="M1448.44 234.416V232.532H1451.62V230.972H1448.44V229.184H1451.92V227.6H1446.78V236H1451.98V234.416H1448.44ZM1457.49 227.6V230.708C1457.06 230.156 1456.42 229.832 1455.55 229.832C1453.94 229.832 1452.62 231.212 1452.62 233C1452.62 234.788 1453.94 236.168 1455.55 236.168C1456.42 236.168 1457.06 235.844 1457.49 235.292V236H1459.04V227.6H1457.49ZM1455.83 234.692C1454.87 234.692 1454.17 234.008 1454.17 233C1454.17 231.992 1454.87 231.308 1455.83 231.308C1456.78 231.308 1457.49 231.992 1457.49 233C1457.49 234.008 1456.78 234.692 1455.83 234.692ZM1461.22 229.28C1461.75 229.28 1462.18 228.848 1462.18 228.332C1462.18 227.816 1461.75 227.372 1461.22 227.372C1460.71 227.372 1460.27 227.816 1460.27 228.332C1460.27 228.848 1460.71 229.28 1461.22 229.28ZM1460.45 236H1462V230H1460.45V236ZM1466.85 231.488V230H1465.49V228.32L1463.95 228.788V230H1462.9V231.488H1463.95V233.984C1463.95 235.604 1464.68 236.24 1466.85 236V234.596C1465.96 234.644 1465.49 234.632 1465.49 233.984V231.488H1466.85Z" fill="black"/>
<path d="M1440.95 228.478L1441.71 227.721C1442.08 227.347 1442.1 226.918 1441.75 226.566L1441.44 226.247C1441.09 225.895 1440.65 225.927 1440.28 226.293L1439.51 227.05L1440.95 228.478ZM1433.06 236.374L1440.25 229.165L1438.83 227.737L1431.64 234.946L1431.02 236.554C1430.92 236.819 1431.19 237.069 1431.43 236.983L1433.06 236.374Z" fill="black"/>
<rect x="200.5" y="278.5" width="1311" height="61" rx="13.5" fill="white" stroke="#E6E6E6"/>
<rect x="1411.5" y="294.5" width="76" height="29" rx="14.5" fill="white" stroke="#E6E6E6"/>
<path d="M1448.44 312.416V310.532H1451.62V308.972H1448.44V307.184H1451.92V305.6H1446.78V314H1451.98V312.416H1448.44ZM1457.49 305.6V308.708C1457.06 308.156 1456.42 307.832 1455.55 307.832C1453.94 307.832 1452.62 309.212 1452.62 311C1452.62 312.788 1453.94 314.168 1455.55 314.168C1456.42 314.168 1457.06 313.844 1457.49 313.292V314H1459.04V305.6H1457.49ZM1455.83 312.692C1454.87 312.692 1454.17 312.008 1454.17 311C1454.17 309.992 1454.87 309.308 1455.83 309.308C1456.78 309.308 1457.49 309.992 1457.49 311C1457.49 312.008 1456.78 312.692 1455.83 312.692ZM1461.22 307.28C1461.75 307.28 1462.18 306.848 1462.18 306.332C1462.18 305.816 1461.75 305.372 1461.22 305.372C1460.71 305.372 1460.27 305.816 1460.27 306.332C1460.27 306.848 1460.71 307.28 1461.22 307.28ZM1460.45 314H1462V308H1460.45V314ZM1466.85 309.488V308H1465.49V306.32L1463.95 306.788V308H1462.9V309.488H1463.95V311.984C1463.95 313.604 1464.68 314.24 1466.85 314V312.596C1465.96 312.644 1465.49 312.632 1465.49 311.984V309.488H1466.85Z" fill="black"/>
<path d="M1440.95 306.478L1441.71 305.721C1442.08 305.347 1442.1 304.918 1441.75 304.566L1441.44 304.247C1441.09 303.895 1440.65 303.927 1440.28 304.293L1439.51 305.05L1440.95 306.478ZM1433.06 314.374L1440.25 307.165L1438.83 305.737L1431.64 312.946L1431.02 314.554C1430.92 314.819 1431.19 315.069 1431.43 314.983L1433.06 314.374Z" fill="black"/>
<path d="M226.245 310.85H232.53C232.56 310.655 232.575 310.46 232.575 310.265C232.575 308.165 231.105 306.305 228.84 306.305C226.5 306.305 224.91 308.03 224.91 310.25C224.91 312.5 226.515 314.195 228.93 314.195C230.43 314.195 231.57 313.52 232.23 312.5L231.12 311.87C230.745 312.485 229.995 312.965 228.96 312.965C227.565 312.965 226.5 312.2 226.245 310.85ZM228.84 307.535C229.965 307.535 231.03 308.225 231.255 309.71H226.245C226.455 308.405 227.43 307.535 228.84 307.535ZM240.234 314L237.369 310.13L240.069 306.5H238.539L236.604 309.11L234.669 306.5H233.124L235.839 310.145L232.959 314H234.489L236.604 311.165L238.704 314H240.234ZM247.126 306.5V307.79C246.526 306.875 245.566 306.305 244.291 306.305C242.206 306.305 240.496 308.03 240.496 310.25C240.496 312.47 242.206 314.195 244.291 314.195C245.566 314.195 246.526 313.625 247.126 312.71V314H248.431V306.5H247.126ZM244.456 312.935C242.956 312.935 241.801 311.78 241.801 310.25C241.801 308.72 242.956 307.565 244.456 307.565C245.971 307.565 247.126 308.72 247.126 310.25C247.126 311.78 245.971 312.935 244.456 312.935ZM258.508 306.305C257.533 306.305 256.678 306.725 256.153 307.58C255.718 306.77 254.968 306.305 253.948 306.305C253.033 306.305 252.253 306.665 251.713 307.505V306.5H250.408V314H251.713V309.83C251.713 308.21 252.628 307.55 253.633 307.55C254.608 307.55 255.223 308.195 255.223 309.38V314H256.528V309.83C256.528 308.21 257.323 307.55 258.373 307.55C259.363 307.55 260.023 308.195 260.023 309.38V314H261.328V309.335C261.328 307.46 260.173 306.305 258.508 306.305ZM267.278 306.305C266.003 306.305 265.043 306.875 264.443 307.79V306.5H263.138V317H264.443V312.71C265.043 313.625 266.003 314.195 267.278 314.195C269.363 314.195 271.073 312.47 271.073 310.25C271.073 308.03 269.363 306.305 267.278 306.305ZM267.113 312.935C265.598 312.935 264.443 311.78 264.443 310.25C264.443 308.72 265.598 307.565 267.113 307.565C268.613 307.565 269.768 308.72 269.768 310.25C269.768 311.78 268.613 312.935 267.113 312.935ZM272.63 314H273.935V303.05H272.63V314ZM276.841 310.85H283.126C283.156 310.655 283.171 310.46 283.171 310.265C283.171 308.165 281.701 306.305 279.436 306.305C277.096 306.305 275.506 308.03 275.506 310.25C275.506 312.5 277.111 314.195 279.526 314.195C281.026 314.195 282.166 313.52 282.826 312.5L281.716 311.87C281.341 312.485 280.591 312.965 279.556 312.965C278.161 312.965 277.096 312.2 276.841 310.85ZM279.436 307.535C280.561 307.535 281.626 308.225 281.851 309.71H276.841C277.051 308.405 278.026 307.535 279.436 307.535ZM284.896 314.165C285.451 314.165 285.871 313.73 285.871 313.19C285.871 312.65 285.451 312.215 284.896 312.215C284.356 312.215 283.921 312.65 283.921 313.19C283.921 313.73 284.356 314.165 284.896 314.165ZM292.893 306.5V310.475C292.893 312.245 291.918 312.95 290.718 312.95C289.563 312.95 288.858 312.26 288.858 311.03V306.5H287.553V311.105C287.553 313.025 288.708 314.195 290.463 314.195C291.513 314.195 292.338 313.805 292.893 312.92V314H294.198V306.5H292.893ZM297.295 308.525C297.295 307.85 297.955 307.52 298.63 307.52C299.29 307.52 299.95 307.805 300.235 308.48L301.33 307.865C300.85 306.89 299.86 306.305 298.63 306.305C297.115 306.305 295.975 307.22 295.975 308.54C295.975 311.255 300.175 310.34 300.175 311.945C300.175 312.68 299.485 312.965 298.69 312.965C297.76 312.965 297.07 312.515 296.83 311.795L295.705 312.44C296.14 313.475 297.19 314.195 298.69 314.195C300.295 314.195 301.495 313.34 301.495 311.945C301.495 309.185 297.295 310.13 297.295 308.525ZM302.59 314H309.37V312.65H304.615L307.3 309.98C308.335 308.945 309.175 307.82 309.175 306.515C309.175 304.445 307.54 303.305 305.905 303.305C304.54 303.305 303.265 303.98 302.59 305.375L303.76 306.065C304.21 305.12 304.96 304.655 305.92 304.655C306.895 304.655 307.78 305.3 307.78 306.53C307.78 307.415 307.12 308.255 306.295 309.08L302.59 312.86V314ZM311.775 314.165C312.33 314.165 312.75 313.73 312.75 313.19C312.75 312.65 312.33 312.215 311.775 312.215C311.235 312.215 310.8 312.65 310.8 313.19C310.8 313.73 311.235 314.165 311.775 314.165ZM322.698 306.305C321.723 306.305 320.868 306.725 320.343 307.58C319.908 306.77 319.158 306.305 318.138 306.305C317.223 306.305 316.443 306.665 315.903 307.505V306.5H314.598V314H315.903V309.83C315.903 308.21 316.818 307.55 317.823 307.55C318.798 307.55 319.413 308.195 319.413 309.38V314H320.718V309.83C320.718 308.21 321.513 307.55 322.563 307.55C323.553 307.55 324.213 308.195 324.213 309.38V314H325.518V309.335C325.518 307.46 324.363 306.305 322.698 306.305ZM327.987 305.135C328.467 305.135 328.857 304.745 328.857 304.265C328.857 303.785 328.467 303.38 327.987 303.38C327.492 303.38 327.102 303.785 327.102 304.265C327.102 304.745 327.492 305.135 327.987 305.135ZM327.327 314H328.632V306.5H327.327V314ZM334.358 306.305C333.308 306.305 332.483 306.695 331.928 307.58V306.5H330.623V314H331.928V310.025C331.928 308.255 332.903 307.55 334.103 307.55C335.258 307.55 335.963 308.24 335.963 309.47V314H337.268V309.395C337.268 307.475 336.113 306.305 334.358 306.305ZM340.005 310.85H346.29C346.32 310.655 346.335 310.46 346.335 310.265C346.335 308.165 344.865 306.305 342.6 306.305C340.26 306.305 338.67 308.03 338.67 310.25C338.67 312.5 340.275 314.195 342.69 314.195C344.19 314.195 345.33 313.52 345.99 312.5L344.88 311.87C344.505 312.485 343.755 312.965 342.72 312.965C341.325 312.965 340.26 312.2 340.005 310.85ZM342.6 307.535C343.725 307.535 344.79 308.225 345.015 309.71H340.005C340.215 308.405 341.19 307.535 342.6 307.535ZM351.47 303.305C349.325 303.305 348.185 304.28 348.185 306.275V306.5H346.985V307.76H348.185V314H349.49V307.76H351.05V306.5H349.49V306.275C349.49 304.97 350.165 304.475 351.47 304.475C351.725 304.475 351.995 304.49 352.265 304.505V314H353.57V303.53C352.85 303.395 352.19 303.305 351.47 303.305ZM356.485 310.85H362.77C362.8 310.655 362.815 310.46 362.815 310.265C362.815 308.165 361.345 306.305 359.08 306.305C356.74 306.305 355.15 308.03 355.15 310.25C355.15 312.5 356.755 314.195 359.17 314.195C360.67 314.195 361.81 313.52 362.47 312.5L361.36 311.87C360.985 312.485 360.235 312.965 359.2 312.965C357.805 312.965 356.74 312.2 356.485 310.85ZM359.08 307.535C360.205 307.535 361.27 308.225 361.495 309.71H356.485C356.695 308.405 357.67 307.535 359.08 307.535ZM370.473 314L367.608 310.13L370.308 306.5H368.778L366.843 309.11L364.908 306.5H363.363L366.078 310.145L363.198 314H364.728L366.843 311.165L368.943 314H370.473ZM372.508 314.165C373.063 314.165 373.483 313.73 373.483 313.19C373.483 312.65 373.063 312.215 372.508 312.215C371.968 312.215 371.533 312.65 371.533 313.19C371.533 313.73 371.968 314.165 372.508 314.165ZM375.99 305.135C376.47 305.135 376.86 304.745 376.86 304.265C376.86 303.785 376.47 303.38 375.99 303.38C375.495 303.38 375.105 303.785 375.105 304.265C375.105 304.745 375.495 305.135 375.99 305.135ZM375.33 314H376.635V306.5H375.33V314ZM382.151 314.195C384.341 314.195 386.111 312.47 386.111 310.25C386.111 308.03 384.341 306.305 382.151 306.305C379.961 306.305 378.206 308.03 378.206 310.25C378.206 312.47 379.961 314.195 382.151 314.195ZM382.151 312.92C380.666 312.92 379.511 311.765 379.511 310.25C379.511 308.735 380.666 307.58 382.151 307.58C383.651 307.58 384.806 308.735 384.806 310.25C384.806 311.765 383.651 312.92 382.151 312.92Z" fill="black"/>
<path d="M846.194 308.555C846.884 308.075 847.334 307.31 847.334 306.365C847.334 304.745 846.029 303.5 844.394 303.5H840.194V314H844.724C846.419 314 847.769 312.71 847.769 311.03C847.769 309.89 847.139 309.005 846.194 308.555ZM844.394 304.805C845.264 304.805 845.954 305.525 845.954 306.41C845.954 307.31 845.264 308.015 844.394 308.015H841.589V304.805H844.394ZM844.724 312.695H841.589V309.29H844.724C845.654 309.29 846.389 310.04 846.389 310.985C846.389 311.945 845.654 312.695 844.724 312.695ZM855.918 303.5V307.955H850.818V303.5H849.423V314H850.818V309.275H855.918V314H857.298V303.5H855.918ZM862.774 314.195C864.919 314.195 866.404 313.025 866.404 311.18C866.404 309.155 864.679 308.615 862.849 308.015C861.379 307.55 860.644 307.19 860.644 306.215C860.644 305.255 861.424 304.655 862.549 304.655C863.824 304.655 864.559 305.375 864.934 306.275L866.104 305.6C865.519 304.28 864.274 303.305 862.549 303.305C860.794 303.305 859.249 304.385 859.249 306.275C859.249 308.225 860.869 308.75 862.549 309.29C864.094 309.77 865.024 310.13 865.024 311.21C865.024 312.155 864.289 312.83 862.804 312.83C861.274 312.83 860.374 312.08 859.999 310.925L858.799 311.615C859.354 313.19 860.779 314.195 862.774 314.195Z" fill="black"/>
<rect x="616" y="294" width="100" height="30" rx="15" fill="white"/>
<rect x="616" y="294" width="100" height="30" rx="15" fill="#FF0000" fill-opacity="0.1"/>
<path d="M640.721 314.21C642.956 314.21 644.531 313.01 644.531 311.045C644.531 308.9 642.761 308.345 641.096 307.82C639.506 307.34 639.101 306.995 639.101 306.35C639.101 305.75 639.611 305.3 640.481 305.3C641.546 305.3 642.116 305.855 642.491 306.65L644.231 305.645C643.526 304.175 642.206 303.29 640.481 303.29C638.681 303.29 637.031 304.43 637.031 306.41C637.031 308.405 638.591 309.08 640.196 309.545C641.756 309.995 642.461 310.295 642.461 311.075C642.461 311.66 642.026 312.185 640.781 312.185C639.476 312.185 638.741 311.555 638.366 310.58L636.596 311.615C637.166 313.175 638.576 314.21 640.721 314.21ZM649.862 308.36V306.5H648.167V304.4L646.232 304.985V306.5H644.927V308.36H646.232V311.48C646.232 313.505 647.147 314.3 649.862 314V312.245C648.752 312.305 648.167 312.29 648.167 311.48V308.36H649.862ZM654.561 314.21C656.766 314.21 658.536 312.485 658.536 310.25C658.536 308.015 656.766 306.29 654.561 306.29C652.356 306.29 650.601 308.015 650.601 310.25C650.601 312.485 652.356 314.21 654.561 314.21ZM654.561 312.32C653.421 312.32 652.536 311.465 652.536 310.25C652.536 309.035 653.421 308.18 654.561 308.18C655.716 308.18 656.601 309.035 656.601 310.25C656.601 311.465 655.716 312.32 654.561 312.32ZM664.263 306.29C663.168 306.29 662.373 306.695 661.833 307.385V306.5H659.898V317H661.833V313.115C662.373 313.805 663.168 314.21 664.263 314.21C666.273 314.21 667.923 312.485 667.923 310.25C667.923 308.015 666.273 306.29 664.263 306.29ZM663.903 312.365C662.718 312.365 661.833 311.51 661.833 310.25C661.833 308.99 662.718 308.135 663.903 308.135C665.103 308.135 665.988 308.99 665.988 310.25C665.988 311.51 665.103 312.365 663.903 312.365ZM673.652 306.29C672.557 306.29 671.762 306.695 671.222 307.385V306.5H669.287V317H671.222V313.115C671.762 313.805 672.557 314.21 673.652 314.21C675.662 314.21 677.312 312.485 677.312 310.25C677.312 308.015 675.662 306.29 673.652 306.29ZM673.292 312.365C672.107 312.365 671.222 311.51 671.222 310.25C671.222 308.99 672.107 308.135 673.292 308.135C674.492 308.135 675.377 308.99 675.377 310.25C675.377 311.51 674.492 312.365 673.292 312.365ZM680.312 311.045H685.967C686.012 310.79 686.042 310.535 686.042 310.25C686.042 308.045 684.467 306.29 682.247 306.29C679.892 306.29 678.287 308.015 678.287 310.25C678.287 312.485 679.877 314.21 682.397 314.21C683.837 314.21 684.962 313.625 685.667 312.605L684.107 311.705C683.777 312.14 683.177 312.455 682.427 312.455C681.407 312.455 680.582 312.035 680.312 311.045ZM680.282 309.545C680.507 308.585 681.212 308.03 682.247 308.03C683.057 308.03 683.867 308.465 684.107 309.545H680.282ZM693.019 303.5V307.385C692.479 306.695 691.684 306.29 690.589 306.29C688.579 306.29 686.929 308.015 686.929 310.25C686.929 312.485 688.579 314.21 690.589 314.21C691.684 314.21 692.479 313.805 693.019 313.115V314H694.954V303.5H693.019ZM690.949 312.365C689.749 312.365 688.864 311.51 688.864 310.25C688.864 308.99 689.749 308.135 690.949 308.135C692.134 308.135 693.019 308.99 693.019 310.25C693.019 311.51 692.134 312.365 690.949 312.365Z" fill="#CE0000"/>
<path d="M1067.99 314H1069.56L1073.33 303.5H1071.81L1068.78 312.26L1065.74 303.5H1064.24L1067.99 314ZM1079.74 306.5V307.79C1079.14 306.875 1078.18 306.305 1076.91 306.305C1074.82 306.305 1073.11 308.03 1073.11 310.25C1073.11 312.47 1074.82 314.195 1076.91 314.195C1078.18 314.195 1079.14 313.625 1079.74 312.71V314H1081.05V306.5H1079.74ZM1077.07 312.935C1075.57 312.935 1074.42 311.78 1074.42 310.25C1074.42 308.72 1075.57 307.565 1077.07 307.565C1078.59 307.565 1079.74 308.72 1079.74 310.25C1079.74 311.78 1078.59 312.935 1077.07 312.935ZM1086.76 306.305C1085.71 306.305 1084.88 306.695 1084.33 307.58V306.5H1083.02V314H1084.33V310.025C1084.33 308.255 1085.3 307.55 1086.5 307.55C1087.66 307.55 1088.36 308.24 1088.36 309.47V314H1089.67V309.395C1089.67 307.475 1088.51 306.305 1086.76 306.305ZM1092.15 305.135C1092.63 305.135 1093.02 304.745 1093.02 304.265C1093.02 303.785 1092.63 303.38 1092.15 303.38C1091.66 303.38 1091.27 303.785 1091.27 304.265C1091.27 304.745 1091.66 305.135 1092.15 305.135ZM1091.49 314H1092.8V306.5H1091.49V314ZM1094.79 314H1096.09V303.05H1094.79V314ZM1098.08 314H1099.39V303.05H1098.08V314ZM1107.59 306.5V307.79C1106.99 306.875 1106.03 306.305 1104.75 306.305C1102.67 306.305 1100.96 308.03 1100.96 310.25C1100.96 312.47 1102.67 314.195 1104.75 314.195C1106.03 314.195 1106.99 313.625 1107.59 312.71V314H1108.89V306.5H1107.59ZM1104.92 312.935C1103.42 312.935 1102.26 311.78 1102.26 310.25C1102.26 308.72 1103.42 307.565 1104.92 307.565C1106.43 307.565 1107.59 308.72 1107.59 310.25C1107.59 311.78 1106.43 312.935 1104.92 312.935Z" fill="black"/>
<path d="M1235.01 303.5L1232.25 304.46L1232.6 305.66L1234.83 305V314H1236.21V303.5H1235.01ZM1252.39 308.795H1247.14V310.055H1250.99C1250.72 311.63 1249.43 312.83 1247.26 312.83C1244.75 312.83 1243.09 311.03 1243.09 308.75C1243.09 306.455 1244.77 304.655 1247.2 304.655C1248.68 304.655 1249.96 305.42 1250.56 306.545L1251.76 305.84C1250.89 304.34 1249.18 303.305 1247.21 303.305C1244.02 303.305 1241.71 305.735 1241.71 308.75C1241.71 311.75 1244 314.195 1247.24 314.195C1250.41 314.195 1252.39 312.095 1252.39 309.425V308.795Z" fill="black"/>
<rect x="200.5" y="356.5" width="1311" height="61" rx="13.5" fill="white" stroke="#E6E6E6"/>
<rect x="1411.5" y="372.5" width="76" height="29" rx="14.5" fill="white" stroke="#E6E6E6"/>
<path d="M1448.44 390.416V388.532H1451.62V386.972H1448.44V385.184H1451.92V383.6H1446.78V392H1451.98V390.416H1448.44ZM1457.49 383.6V386.708C1457.06 386.156 1456.42 385.832 1455.55 385.832C1453.94 385.832 1452.62 387.212 1452.62 389C1452.62 390.788 1453.94 392.168 1455.55 392.168C1456.42 392.168 1457.06 391.844 1457.49 391.292V392H1459.04V383.6H1457.49ZM1455.83 390.692C1454.87 390.692 1454.17 390.008 1454.17 389C1454.17 387.992 1454.87 387.308 1455.83 387.308C1456.78 387.308 1457.49 387.992 1457.49 389C1457.49 390.008 1456.78 390.692 1455.83 390.692ZM1461.22 385.28C1461.75 385.28 1462.18 384.848 1462.18 384.332C1462.18 383.816 1461.75 383.372 1461.22 383.372C1460.71 383.372 1460.27 383.816 1460.27 384.332C1460.27 384.848 1460.71 385.28 1461.22 385.28ZM1460.45 392H1462V386H1460.45V392ZM1466.85 387.488V386H1465.49V384.32L1463.95 384.788V386H1462.9V387.488H1463.95V389.984C1463.95 391.604 1464.68 392.24 1466.85 392V390.596C1465.96 390.644 1465.49 390.632 1465.49 389.984V387.488H1466.85Z" fill="black"/>
<path d="M1440.95 384.478L1441.71 383.721C1442.08 383.347 1442.1 382.918 1441.75 382.566L1441.44 382.247C1441.09 381.895 1440.65 381.927 1440.28 382.293L1439.51 383.05L1440.95 384.478ZM1433.06 392.374L1440.25 385.165L1438.83 383.737L1431.64 390.946L1431.02 392.554C1430.92 392.819 1431.19 393.069 1431.43 392.983L1433.06 392.374Z" fill="black"/>
<rect x="616" y="372" width="100" height="30" rx="15" fill="white"/>
<rect x="616" y="372" width="100" height="30" rx="15" fill="#FF7B00" fill-opacity="0.1"/>
<path d="M226.245 388.85H232.53C232.56 388.655 232.575 388.46 232.575 388.265C232.575 386.165 231.105 384.305 228.84 384.305C226.5 384.305 224.91 386.03 224.91 388.25C224.91 390.5 226.515 392.195 228.93 392.195C230.43 392.195 231.57 391.52 232.23 390.5L231.12 389.87C230.745 390.485 229.995 390.965 228.96 390.965C227.565 390.965 226.5 390.2 226.245 388.85ZM228.84 385.535C229.965 385.535 231.03 386.225 231.255 387.71H226.245C226.455 386.405 227.43 385.535 228.84 385.535ZM240.234 392L237.369 388.13L240.069 384.5H238.539L236.604 387.11L234.669 384.5H233.124L235.839 388.145L232.959 392H234.489L236.604 389.165L238.704 392H240.234ZM247.126 384.5V385.79C246.526 384.875 245.566 384.305 244.291 384.305C242.206 384.305 240.496 386.03 240.496 388.25C240.496 390.47 242.206 392.195 244.291 392.195C245.566 392.195 246.526 391.625 247.126 390.71V392H248.431V384.5H247.126ZM244.456 390.935C242.956 390.935 241.801 389.78 241.801 388.25C241.801 386.72 242.956 385.565 244.456 385.565C245.971 385.565 247.126 386.72 247.126 388.25C247.126 389.78 245.971 390.935 244.456 390.935ZM258.508 384.305C257.533 384.305 256.678 384.725 256.153 385.58C255.718 384.77 254.968 384.305 253.948 384.305C253.033 384.305 252.253 384.665 251.713 385.505V384.5H250.408V392H251.713V387.83C251.713 386.21 252.628 385.55 253.633 385.55C254.608 385.55 255.223 386.195 255.223 387.38V392H256.528V387.83C256.528 386.21 257.323 385.55 258.373 385.55C259.363 385.55 260.023 386.195 260.023 387.38V392H261.328V387.335C261.328 385.46 260.173 384.305 258.508 384.305ZM267.278 384.305C266.003 384.305 265.043 384.875 264.443 385.79V384.5H263.138V395H264.443V390.71C265.043 391.625 266.003 392.195 267.278 392.195C269.363 392.195 271.073 390.47 271.073 388.25C271.073 386.03 269.363 384.305 267.278 384.305ZM267.113 390.935C265.598 390.935 264.443 389.78 264.443 388.25C264.443 386.72 265.598 385.565 267.113 385.565C268.613 385.565 269.768 386.72 269.768 388.25C269.768 389.78 268.613 390.935 267.113 390.935ZM272.63 392H273.935V381.05H272.63V392ZM276.841 388.85H283.126C283.156 388.655 283.171 388.46 283.171 388.265C283.171 386.165 281.701 384.305 279.436 384.305C277.096 384.305 275.506 386.03 275.506 388.25C275.506 390.5 277.111 392.195 279.526 392.195C281.026 392.195 282.166 391.52 282.826 390.5L281.716 389.87C281.341 390.485 280.591 390.965 279.556 390.965C278.161 390.965 277.096 390.2 276.841 388.85ZM279.436 385.535C280.561 385.535 281.626 386.225 281.851 387.71H276.841C277.051 386.405 278.026 385.535 279.436 385.535ZM284.896 392.165C285.451 392.165 285.871 391.73 285.871 391.19C285.871 390.65 285.451 390.215 284.896 390.215C284.356 390.215 283.921 390.65 283.921 391.19C283.921 391.73 284.356 392.165 284.896 392.165ZM292.893 384.5V388.475C292.893 390.245 291.918 390.95 290.718 390.95C289.563 390.95 288.858 390.26 288.858 389.03V384.5H287.553V389.105C287.553 391.025 288.708 392.195 290.463 392.195C291.513 392.195 292.338 391.805 292.893 390.92V392H294.198V384.5H292.893ZM297.295 386.525C297.295 385.85 297.955 385.52 298.63 385.52C299.29 385.52 299.95 385.805 300.235 386.48L301.33 385.865C300.85 384.89 299.86 384.305 298.63 384.305C297.115 384.305 295.975 385.22 295.975 386.54C295.975 389.255 300.175 388.34 300.175 389.945C300.175 390.68 299.485 390.965 298.69 390.965C297.76 390.965 297.07 390.515 296.83 389.795L295.705 390.44C296.14 391.475 297.19 392.195 298.69 392.195C300.295 392.195 301.495 391.34 301.495 389.945C301.495 387.185 297.295 388.13 297.295 386.525ZM302.59 392H309.37V390.65H304.615L307.3 387.98C308.335 386.945 309.175 385.82 309.175 384.515C309.175 382.445 307.54 381.305 305.905 381.305C304.54 381.305 303.265 381.98 302.59 383.375L303.76 384.065C304.21 383.12 304.96 382.655 305.92 382.655C306.895 382.655 307.78 383.3 307.78 384.53C307.78 385.415 307.12 386.255 306.295 387.08L302.59 390.86V392ZM311.775 392.165C312.33 392.165 312.75 391.73 312.75 391.19C312.75 390.65 312.33 390.215 311.775 390.215C311.235 390.215 310.8 390.65 310.8 391.19C310.8 391.73 311.235 392.165 311.775 392.165ZM322.698 384.305C321.723 384.305 320.868 384.725 320.343 385.58C319.908 384.77 319.158 384.305 318.138 384.305C317.223 384.305 316.443 384.665 315.903 385.505V384.5H314.598V392H315.903V387.83C315.903 386.21 316.818 385.55 317.823 385.55C318.798 385.55 319.413 386.195 319.413 387.38V392H320.718V387.83C320.718 386.21 321.513 385.55 322.563 385.55C323.553 385.55 324.213 386.195 324.213 387.38V392H325.518V387.335C325.518 385.46 324.363 384.305 322.698 384.305ZM327.987 383.135C328.467 383.135 328.857 382.745 328.857 382.265C328.857 381.785 328.467 381.38 327.987 381.38C327.492 381.38 327.102 381.785 327.102 382.265C327.102 382.745 327.492 383.135 327.987 383.135ZM327.327 392H328.632V384.5H327.327V392ZM334.358 384.305C333.308 384.305 332.483 384.695 331.928 385.58V384.5H330.623V392H331.928V388.025C331.928 386.255 332.903 385.55 334.103 385.55C335.258 385.55 335.963 386.24 335.963 387.47V392H337.268V387.395C337.268 385.475 336.113 384.305 334.358 384.305ZM340.005 388.85H346.29C346.32 388.655 346.335 388.46 346.335 388.265C346.335 386.165 344.865 384.305 342.6 384.305C340.26 384.305 338.67 386.03 338.67 388.25C338.67 390.5 340.275 392.195 342.69 392.195C344.19 392.195 345.33 391.52 345.99 390.5L344.88 389.87C344.505 390.485 343.755 390.965 342.72 390.965C341.325 390.965 340.26 390.2 340.005 388.85ZM342.6 385.535C343.725 385.535 344.79 386.225 345.015 387.71H340.005C340.215 386.405 341.19 385.535 342.6 385.535ZM351.47 381.305C349.325 381.305 348.185 382.28 348.185 384.275V384.5H346.985V385.76H348.185V392H349.49V385.76H351.05V384.5H349.49V384.275C349.49 382.97 350.165 382.475 351.47 382.475C351.725 382.475 351.995 382.49 352.265 382.505V392H353.57V381.53C352.85 381.395 352.19 381.305 351.47 381.305ZM356.485 388.85H362.77C362.8 388.655 362.815 388.46 362.815 388.265C362.815 386.165 361.345 384.305 359.08 384.305C356.74 384.305 355.15 386.03 355.15 388.25C355.15 390.5 356.755 392.195 359.17 392.195C360.67 392.195 361.81 391.52 362.47 390.5L361.36 389.87C360.985 390.485 360.235 390.965 359.2 390.965C357.805 390.965 356.74 390.2 356.485 388.85ZM359.08 385.535C360.205 385.535 361.27 386.225 361.495 387.71H356.485C356.695 386.405 357.67 385.535 359.08 385.535ZM370.473 392L367.608 388.13L370.308 384.5H368.778L366.843 387.11L364.908 384.5H363.363L366.078 388.145L363.198 392H364.728L366.843 389.165L368.943 392H370.473ZM372.508 392.165C373.063 392.165 373.483 391.73 373.483 391.19C373.483 390.65 373.063 390.215 372.508 390.215C371.968 390.215 371.533 390.65 371.533 391.19C371.533 391.73 371.968 392.165 372.508 392.165ZM375.99 383.135C376.47 383.135 376.86 382.745 376.86 382.265C376.86 381.785 376.47 381.38 375.99 381.38C375.495 381.38 375.105 381.785 375.105 382.265C375.105 382.745 375.495 383.135 375.99 383.135ZM375.33 392H376.635V384.5H375.33V392ZM382.151 392.195C384.341 392.195 386.111 390.47 386.111 388.25C386.111 386.03 384.341 384.305 382.151 384.305C379.961 384.305 378.206 386.03 378.206 388.25C378.206 390.47 379.961 392.195 382.151 392.195ZM382.151 390.92C380.666 390.92 379.511 389.765 379.511 388.25C379.511 386.735 380.666 385.58 382.151 385.58C383.651 385.58 384.806 386.735 384.806 388.25C384.806 389.765 383.651 390.92 382.151 390.92Z" fill="black"/>
<path d="M846.194 386.555C846.884 386.075 847.334 385.31 847.334 384.365C847.334 382.745 846.029 381.5 844.394 381.5H840.194V392H844.724C846.419 392 847.769 390.71 847.769 389.03C847.769 387.89 847.139 387.005 846.194 386.555ZM844.394 382.805C845.264 382.805 845.954 383.525 845.954 384.41C845.954 385.31 845.264 386.015 844.394 386.015H841.589V382.805H844.394ZM844.724 390.695H841.589V387.29H844.724C845.654 387.29 846.389 388.04 846.389 388.985C846.389 389.945 845.654 390.695 844.724 390.695ZM855.918 381.5V385.955H850.818V381.5H849.423V392H850.818V387.275H855.918V392H857.298V381.5H855.918ZM862.774 392.195C864.919 392.195 866.404 391.025 866.404 389.18C866.404 387.155 864.679 386.615 862.849 386.015C861.379 385.55 860.644 385.19 860.644 384.215C860.644 383.255 861.424 382.655 862.549 382.655C863.824 382.655 864.559 383.375 864.934 384.275L866.104 383.6C865.519 382.28 864.274 381.305 862.549 381.305C860.794 381.305 859.249 382.385 859.249 384.275C859.249 386.225 860.869 386.75 862.549 387.29C864.094 387.77 865.024 388.13 865.024 389.21C865.024 390.155 864.289 390.83 862.804 390.83C861.274 390.83 860.374 390.08 859.999 388.925L858.799 389.615C859.354 391.19 860.779 392.195 862.774 392.195Z" fill="black"/>
<path d="M636.883 392H639.118L636.793 388.04C637.993 387.485 638.818 386.3 638.818 384.98C638.818 383.06 637.258 381.5 635.323 381.5H631.123V392H633.193V388.355H634.768L636.883 392ZM633.193 383.435H635.323C636.103 383.435 636.748 384.11 636.748 384.98C636.748 385.85 636.103 386.54 635.323 386.54H633.193V383.435ZM641.501 389.045H647.156C647.201 388.79 647.231 388.535 647.231 388.25C647.231 386.045 645.656 384.29 643.436 384.29C641.081 384.29 639.476 386.015 639.476 388.25C639.476 390.485 641.066 392.21 643.586 392.21C645.026 392.21 646.151 391.625 646.856 390.605L645.296 389.705C644.966 390.14 644.366 390.455 643.616 390.455C642.596 390.455 641.771 390.035 641.501 389.045ZM641.471 387.545C641.696 386.585 642.401 386.03 643.436 386.03C644.246 386.03 645.056 386.465 645.296 387.545H641.471ZM650.074 386.63C650.074 386.225 650.464 386.015 650.944 386.015C651.499 386.015 651.919 386.3 652.144 386.78L653.794 385.88C653.209 384.845 652.159 384.29 650.944 384.29C649.399 384.29 648.094 385.145 648.094 386.675C648.094 389.315 651.964 388.715 651.964 389.81C651.964 390.245 651.544 390.455 650.929 390.455C650.179 390.455 649.669 390.095 649.459 389.48L647.779 390.425C648.319 391.58 649.429 392.21 650.929 392.21C652.534 392.21 653.944 391.43 653.944 389.81C653.944 387.05 650.074 387.74 650.074 386.63ZM659.258 386.36V384.5H657.563V382.4L655.628 382.985V384.5H654.323V386.36H655.628V389.48C655.628 391.505 656.543 392.3 659.258 392V390.245C658.148 390.305 657.563 390.29 657.563 389.48V386.36H659.258ZM666.088 384.5V385.385C665.548 384.71 664.738 384.29 663.643 384.29C661.648 384.29 659.998 386.015 659.998 388.25C659.998 390.485 661.648 392.21 663.643 392.21C664.738 392.21 665.548 391.79 666.088 391.115V392H668.023V384.5H666.088ZM664.003 390.365C662.818 390.365 661.933 389.51 661.933 388.25C661.933 386.99 662.818 386.135 664.003 386.135C665.203 386.135 666.088 386.99 666.088 388.25C666.088 389.51 665.203 390.365 664.003 390.365ZM671.713 385.79V384.5H669.778V392H671.713V388.415C671.713 386.84 672.988 386.39 673.993 386.51V384.35C673.048 384.35 672.103 384.77 671.713 385.79ZM679.62 386.36V384.5H677.925V382.4L675.99 382.985V384.5H674.685V386.36H675.99V389.48C675.99 391.505 676.905 392.3 679.62 392V390.245C678.51 390.305 677.925 390.29 677.925 389.48V386.36H679.62ZM681.944 383.6C682.604 383.6 683.144 383.06 683.144 382.415C683.144 381.77 682.604 381.215 681.944 381.215C681.299 381.215 680.759 381.77 680.759 382.415C680.759 383.06 681.299 383.6 681.944 383.6ZM680.984 392H682.919V384.5H680.984V392ZM688.86 384.29C687.855 384.29 687.075 384.665 686.625 385.34V384.5H684.69V392H686.625V387.95C686.625 386.645 687.33 386.09 688.275 386.09C689.145 386.09 689.76 386.615 689.76 387.635V392H691.695V387.395C691.695 385.4 690.45 384.29 688.86 384.29ZM699.092 384.5V385.43C698.567 384.725 697.757 384.29 696.692 384.29C694.562 384.29 692.957 386.03 692.957 388.13C692.957 390.245 694.562 391.97 696.692 391.97C697.757 391.97 698.567 391.535 699.092 390.83V391.64C699.092 392.825 698.342 393.485 697.127 393.485C695.972 393.485 695.477 393.02 695.162 392.435L693.512 393.38C694.172 394.595 695.462 395.21 697.067 395.21C699.047 395.21 700.982 394.1 700.982 391.64V384.5H699.092ZM696.992 390.185C695.777 390.185 694.892 389.33 694.892 388.13C694.892 386.945 695.777 386.09 696.992 386.09C698.207 386.09 699.092 386.945 699.092 388.13C699.092 389.33 698.207 390.185 696.992 390.185Z" fill="#D06400"/>
<path d="M1067.99 392H1069.56L1073.33 381.5H1071.81L1068.78 390.26L1065.74 381.5H1064.24L1067.99 392ZM1079.74 384.5V385.79C1079.14 384.875 1078.18 384.305 1076.91 384.305C1074.82 384.305 1073.11 386.03 1073.11 388.25C1073.11 390.47 1074.82 392.195 1076.91 392.195C1078.18 392.195 1079.14 391.625 1079.74 390.71V392H1081.05V384.5H1079.74ZM1077.07 390.935C1075.57 390.935 1074.42 389.78 1074.42 388.25C1074.42 386.72 1075.57 385.565 1077.07 385.565C1078.59 385.565 1079.74 386.72 1079.74 388.25C1079.74 389.78 1078.59 390.935 1077.07 390.935ZM1086.76 384.305C1085.71 384.305 1084.88 384.695 1084.33 385.58V384.5H1083.02V392H1084.33V388.025C1084.33 386.255 1085.3 385.55 1086.5 385.55C1087.66 385.55 1088.36 386.24 1088.36 387.47V392H1089.67V387.395C1089.67 385.475 1088.51 384.305 1086.76 384.305ZM1092.15 383.135C1092.63 383.135 1093.02 382.745 1093.02 382.265C1093.02 381.785 1092.63 381.38 1092.15 381.38C1091.66 381.38 1091.27 381.785 1091.27 382.265C1091.27 382.745 1091.66 383.135 1092.15 383.135ZM1091.49 392H1092.8V384.5H1091.49V392ZM1094.79 392H1096.09V381.05H1094.79V392ZM1098.08 392H1099.39V381.05H1098.08V392ZM1107.59 384.5V385.79C1106.99 384.875 1106.03 384.305 1104.75 384.305C1102.67 384.305 1100.96 386.03 1100.96 388.25C1100.96 390.47 1102.67 392.195 1104.75 392.195C1106.03 392.195 1106.99 391.625 1107.59 390.71V392H1108.89V384.5H1107.59ZM1104.92 390.935C1103.42 390.935 1102.26 389.78 1102.26 388.25C1102.26 386.72 1103.42 385.565 1104.92 385.565C1106.43 385.565 1107.59 386.72 1107.59 388.25C1107.59 389.78 1106.43 390.935 1104.92 390.935Z" fill="black"/>
<path d="M1235.01 381.5L1232.25 382.46L1232.6 383.66L1234.83 383V392H1236.21V381.5H1235.01ZM1252.39 386.795H1247.14V388.055H1250.99C1250.72 389.63 1249.43 390.83 1247.26 390.83C1244.75 390.83 1243.09 389.03 1243.09 386.75C1243.09 384.455 1244.77 382.655 1247.2 382.655C1248.68 382.655 1249.96 383.42 1250.56 384.545L1251.76 383.84C1250.89 382.34 1249.18 381.305 1247.21 381.305C1244.02 381.305 1241.71 383.735 1241.71 386.75C1241.71 389.75 1244 392.195 1247.24 392.195C1250.41 392.195 1252.39 390.095 1252.39 387.425V386.795Z" fill="black"/>
<rect x="1410.75" y="103.75" width="100.5" height="26.5" rx="6.25" stroke="#0047FF" stroke-width="1.5"/>
<path d="M1436.33 122H1438.13L1435.18 113.6H1433.13L1430.19 122H1431.97L1432.48 120.488H1435.83L1436.33 122ZM1433.01 118.94L1434.16 115.508L1435.31 118.94H1433.01ZM1443.26 113.6V116.708C1442.83 116.156 1442.19 115.832 1441.31 115.832C1439.71 115.832 1438.39 117.212 1438.39 119C1438.39 120.788 1439.71 122.168 1441.31 122.168C1442.19 122.168 1442.83 121.844 1443.26 121.292V122H1444.81V113.6H1443.26ZM1441.6 120.692C1440.64 120.692 1439.93 120.008 1439.93 119C1439.93 117.992 1440.64 117.308 1441.6 117.308C1442.55 117.308 1443.26 117.992 1443.26 119C1443.26 120.008 1442.55 120.692 1441.6 120.692ZM1450.77 113.6V116.708C1450.34 116.156 1449.7 115.832 1448.83 115.832C1447.22 115.832 1445.9 117.212 1445.9 119C1445.9 120.788 1447.22 122.168 1448.83 122.168C1449.7 122.168 1450.34 121.844 1450.77 121.292V122H1452.32V113.6H1450.77ZM1449.11 120.692C1448.15 120.692 1447.45 120.008 1447.45 119C1447.45 117.992 1448.15 117.308 1449.11 117.308C1450.06 117.308 1450.77 117.992 1450.77 119C1450.77 120.008 1450.06 120.692 1449.11 120.692ZM1459.67 122.168C1461.46 122.168 1462.72 121.208 1462.72 119.636C1462.72 117.92 1461.31 117.476 1459.97 117.056C1458.7 116.672 1458.38 116.396 1458.38 115.88C1458.38 115.4 1458.79 115.04 1459.48 115.04C1460.33 115.04 1460.79 115.484 1461.09 116.12L1462.48 115.316C1461.92 114.14 1460.86 113.432 1459.48 113.432C1458.04 113.432 1456.72 114.344 1456.72 115.928C1456.72 117.524 1457.97 118.064 1459.25 118.436C1460.5 118.796 1461.07 119.036 1461.07 119.66C1461.07 120.128 1460.72 120.548 1459.72 120.548C1458.68 120.548 1458.09 120.044 1457.79 119.264L1456.37 120.092C1456.83 121.34 1457.96 122.168 1459.67 122.168ZM1465.2 119.636H1469.73C1469.76 119.432 1469.79 119.228 1469.79 119C1469.79 117.236 1468.53 115.832 1466.75 115.832C1464.87 115.832 1463.58 117.212 1463.58 119C1463.58 120.788 1464.85 122.168 1466.87 122.168C1468.02 122.168 1468.92 121.7 1469.49 120.884L1468.24 120.164C1467.97 120.512 1467.49 120.764 1466.89 120.764C1466.08 120.764 1465.42 120.428 1465.2 119.636ZM1465.18 118.436C1465.36 117.668 1465.92 117.224 1466.75 117.224C1467.4 117.224 1468.05 117.572 1468.24 118.436H1465.18ZM1472.41 117.032V116H1470.87V122H1472.41V119.132C1472.41 117.872 1473.43 117.512 1474.24 117.608V115.88C1473.48 115.88 1472.73 116.216 1472.41 117.032ZM1479.09 116L1477.63 120.2L1476.18 116H1474.47L1476.75 122H1478.52L1480.8 116H1479.09ZM1482.62 119.636H1487.14C1487.18 119.432 1487.2 119.228 1487.2 119C1487.2 117.236 1485.94 115.832 1484.16 115.832C1482.28 115.832 1481 117.212 1481 119C1481 120.788 1482.27 122.168 1484.28 122.168C1485.44 122.168 1486.34 121.7 1486.9 120.884L1485.65 120.164C1485.39 120.512 1484.91 120.764 1484.31 120.764C1483.49 120.764 1482.83 120.428 1482.62 119.636ZM1482.59 118.436C1482.77 117.668 1483.34 117.224 1484.16 117.224C1484.81 117.224 1485.46 117.572 1485.65 118.436H1482.59ZM1489.83 117.032V116H1488.28V122H1489.83V119.132C1489.83 117.872 1490.85 117.512 1491.65 117.608V115.88C1490.9 115.88 1490.14 116.216 1489.83 117.032Z" fill="#0047FF"/>
</svg>
