<svg width="1535" height="207" viewBox="0 0 1535 207" fill="none" xmlns="http://www.w3.org/2000/svg">
<path d="M-484.175 164.75C-500.975 164.75 -514.1 160.667 -523.55 152.5C-533 144.217 -538.017 132.492 -538.6 117.325C-538.717 113.942 -538.775 108.575 -538.775 101.225C-538.775 93.875 -538.717 88.5083 -538.6 85.125C-538.017 70.3083 -532.942 58.875 -523.375 50.825C-513.692 42.775 -500.625 38.75 -484.175 38.75C-473.092 38.75 -463.467 40.5583 -455.3 44.175C-447.017 47.7917 -440.717 52.4 -436.4 58C-431.967 63.6 -429.633 69.375 -429.4 75.325C-429.4 76.375 -429.808 77.25 -430.625 77.95C-431.325 78.65 -432.2 79 -433.25 79H-458.8C-459.967 79 -460.9 78.825 -461.6 78.475C-462.3 78.125 -462.883 77.4833 -463.35 76.55C-464.867 73.1667 -467.258 70.25 -470.525 67.8C-473.792 65.2333 -478.342 63.95 -484.175 63.95C-498.058 63.95 -505.35 71.3 -506.05 86C-506.167 89.2667 -506.225 94.3417 -506.225 101.225C-506.225 107.992 -506.167 113.067 -506.05 116.45C-505.35 131.85 -497.883 139.55 -483.65 139.55C-476.767 139.55 -471.283 137.8 -467.2 134.3C-463 130.683 -460.9 125.2 -460.9 117.85V114.525H-477.35C-478.633 114.525 -479.683 114.117 -480.5 113.3C-481.317 112.367 -481.725 111.258 -481.725 109.975V97.025C-481.725 95.7417 -481.317 94.6917 -480.5 93.875C-479.683 92.9417 -478.633 92.475 -477.35 92.475H-433.25C-431.967 92.475 -430.917 92.9417 -430.1 93.875C-429.283 94.6917 -428.875 95.7417 -428.875 97.025V116.975C-428.875 126.892 -431.15 135.467 -435.7 142.7C-440.25 149.817 -446.725 155.3 -455.125 159.15C-463.408 162.883 -473.092 164.75 -484.175 164.75ZM-404.423 163C-405.59 163 -406.64 162.592 -407.573 161.775C-408.39 160.842 -408.798 159.792 -408.798 158.625V44.875C-408.798 43.5917 -408.39 42.5417 -407.573 41.725C-406.64 40.9083 -405.59 40.5 -404.423 40.5H-322.698C-321.415 40.5 -320.365 40.9083 -319.548 41.725C-318.731 42.5417 -318.323 43.5917 -318.323 44.875V61.325C-318.323 62.4917 -318.731 63.5417 -319.548 64.475C-320.365 65.2917 -321.415 65.7 -322.698 65.7H-378.523V89.325H-326.548C-325.265 89.325 -324.215 89.7917 -323.398 90.725C-322.581 91.5417 -322.173 92.5917 -322.173 93.875V109.1C-322.173 110.267 -322.581 111.317 -323.398 112.25C-324.215 113.067 -325.265 113.475 -326.548 113.475H-378.523V137.8H-321.298C-320.015 137.8 -318.965 138.208 -318.148 139.025C-317.331 139.842 -316.923 140.892 -316.923 142.175V158.625C-316.923 159.792 -317.331 160.842 -318.148 161.775C-318.965 162.592 -320.015 163 -321.298 163H-404.423ZM-248.006 164.75C-264.456 164.75 -277.406 160.725 -286.856 152.675C-296.306 144.625 -301.322 132.783 -301.906 117.15C-302.022 113.767 -302.081 108.75 -302.081 102.1C-302.081 95.3333 -302.022 90.2583 -301.906 86.875C-301.322 71.475 -296.247 59.6333 -286.681 51.35C-276.997 42.95 -264.106 38.75 -248.006 38.75C-231.906 38.75 -219.014 42.95 -209.331 51.35C-199.647 59.6333 -194.572 71.475 -194.106 86.875C-193.872 93.6417 -193.756 98.7167 -193.756 102.1C-193.756 105.367 -193.872 110.383 -194.106 117.15C-194.689 132.783 -199.706 144.625 -209.156 152.675C-218.606 160.725 -231.556 164.75 -248.006 164.75ZM-248.006 139.55C-241.589 139.55 -236.514 137.625 -232.781 133.775C-228.931 129.925 -226.889 124.033 -226.656 116.1C-226.422 109.333 -226.306 104.55 -226.306 101.75C-226.306 98.7167 -226.422 93.9333 -226.656 87.4C-226.889 79.4667 -228.931 73.575 -232.781 69.725C-236.631 65.875 -241.706 63.95 -248.006 63.95C-254.306 63.95 -259.381 65.875 -263.231 69.725C-266.964 73.575 -269.006 79.4667 -269.356 87.4C-269.472 90.6667 -269.531 95.45 -269.531 101.75C-269.531 107.933 -269.472 112.717 -269.356 116.1C-269.006 124.033 -266.964 129.925 -263.231 133.775C-259.497 137.625 -254.422 139.55 -248.006 139.55ZM-169.096 163C-170.262 163 -171.312 162.592 -172.246 161.775C-173.062 160.842 -173.471 159.792 -173.471 158.625V44.875C-173.471 43.5917 -173.062 42.5417 -172.246 41.725C-171.312 40.9083 -170.262 40.5 -169.096 40.5H-121.496C-106.212 40.5 -94.3124 44 -85.7957 51C-77.1624 57.8833 -72.8457 67.6833 -72.8457 80.4C-72.8457 88.5667 -74.7707 95.5083 -78.6207 101.225C-82.4707 106.942 -87.779 111.317 -94.5457 114.35L-70.5707 157.4C-70.2207 158.1 -70.0457 158.742 -70.0457 159.325C-70.0457 160.258 -70.454 161.133 -71.2707 161.95C-71.9707 162.65 -72.7874 163 -73.7207 163H-96.9957C-100.379 163 -102.771 161.425 -104.171 158.275L-124.121 119.775H-141.971V158.625C-141.971 159.908 -142.437 160.958 -143.371 161.775C-144.187 162.592 -145.237 163 -146.521 163H-169.096ZM-121.846 94.925C-116.479 94.925 -112.396 93.6417 -109.596 91.075C-106.796 88.3917 -105.396 84.7167 -105.396 80.05C-105.396 75.3833 -106.796 71.7083 -109.596 69.025C-112.279 66.225 -116.362 64.825 -121.846 64.825H-141.971V94.925H-121.846ZM-2.4123 164.75C-19.2123 164.75 -32.3373 160.667 -41.7873 152.5C-51.2373 144.217 -56.254 132.492 -56.8373 117.325C-56.954 113.942 -57.0123 108.575 -57.0123 101.225C-57.0123 93.875 -56.954 88.5083 -56.8373 85.125C-56.254 70.3083 -51.179 58.875 -41.6123 50.825C-31.929 42.775 -18.8623 38.75 -2.4123 38.75C8.67103 38.75 18.296 40.5583 26.4627 44.175C34.746 47.7917 41.046 52.4 45.3627 58C49.796 63.6 52.1294 69.375 52.3627 75.325C52.3627 76.375 51.9544 77.25 51.1377 77.95C50.4377 78.65 49.5627 79 48.5127 79H22.9627C21.796 79 20.8627 78.825 20.1627 78.475C19.4627 78.125 18.8794 77.4833 18.4127 76.55C16.896 73.1667 14.5044 70.25 11.2377 67.8C7.97103 65.2333 3.42103 63.95 -2.4123 63.95C-16.2956 63.95 -23.5873 71.3 -24.2873 86C-24.404 89.2667 -24.4623 94.3417 -24.4623 101.225C-24.4623 107.992 -24.404 113.067 -24.2873 116.45C-23.5873 131.85 -16.1206 139.55 -1.8873 139.55C4.99603 139.55 10.4794 137.8 14.5627 134.3C18.7627 130.683 20.8627 125.2 20.8627 117.85V114.525H4.4127C3.12937 114.525 2.07937 114.117 1.2627 113.3C0.446033 112.367 0.0376998 111.258 0.0376998 109.975V97.025C0.0376998 95.7417 0.446033 94.6917 1.2627 93.875C2.07937 92.9417 3.12937 92.475 4.4127 92.475H48.5127C49.796 92.475 50.846 92.9417 51.6627 93.875C52.4794 94.6917 52.8877 95.7417 52.8877 97.025V116.975C52.8877 126.892 50.6127 135.467 46.0627 142.7C41.5127 149.817 35.0377 155.3 26.6377 159.15C18.3544 162.883 8.67103 164.75 -2.4123 164.75ZM77.3398 163C76.1732 163 75.1232 162.592 74.1898 161.775C73.3732 160.842 72.9648 159.792 72.9648 158.625V44.875C72.9648 43.5917 73.3732 42.5417 74.1898 41.725C75.1232 40.9083 76.1732 40.5 77.3398 40.5H100.79C102.073 40.5 103.123 40.9083 103.94 41.725C104.873 42.5417 105.34 43.5917 105.34 44.875V158.625C105.34 159.908 104.873 160.958 103.94 161.775C103.123 162.592 102.073 163 100.79 163H77.3398ZM122.703 163C121.77 163 120.895 162.65 120.078 161.95C119.378 161.133 119.028 160.258 119.028 159.325C119.028 158.625 119.086 158.1 119.203 157.75L160.328 45.4C160.678 44 161.436 42.8333 162.603 41.9C163.77 40.9667 165.286 40.5 167.153 40.5H193.053C194.92 40.5 196.436 40.9667 197.603 41.9C198.77 42.8333 199.528 44 199.878 45.4L240.828 157.75L241.178 159.325C241.178 160.258 240.77 161.133 239.953 161.95C239.253 162.65 238.378 163 237.328 163H215.803C213.003 163 211.136 161.775 210.203 159.325L203.378 141.475H156.653L150.003 159.325C149.07 161.775 147.145 163 144.228 163H122.703ZM196.378 116.275L180.103 70.075L163.828 116.275H196.378Z" fill="#D8D8D8"/>
<path d="M305.825 164.75C289.025 164.75 275.9 160.667 266.45 152.5C257 144.217 251.983 132.492 251.4 117.325C251.283 113.942 251.225 108.575 251.225 101.225C251.225 93.875 251.283 88.5083 251.4 85.125C251.983 70.3083 257.058 58.875 266.625 50.825C276.308 42.775 289.375 38.75 305.825 38.75C316.908 38.75 326.533 40.5583 334.7 44.175C342.983 47.7917 349.283 52.4 353.6 58C358.033 63.6 360.367 69.375 360.6 75.325C360.6 76.375 360.192 77.25 359.375 77.95C358.675 78.65 357.8 79 356.75 79H331.2C330.033 79 329.1 78.825 328.4 78.475C327.7 78.125 327.117 77.4833 326.65 76.55C325.133 73.1667 322.742 70.25 319.475 67.8C316.208 65.2333 311.658 63.95 305.825 63.95C291.942 63.95 284.65 71.3 283.95 86C283.833 89.2667 283.775 94.3417 283.775 101.225C283.775 107.992 283.833 113.067 283.95 116.45C284.65 131.85 292.117 139.55 306.35 139.55C313.233 139.55 318.717 137.8 322.8 134.3C327 130.683 329.1 125.2 329.1 117.85V114.525H312.65C311.367 114.525 310.317 114.117 309.5 113.3C308.683 112.367 308.275 111.258 308.275 109.975V97.025C308.275 95.7417 308.683 94.6917 309.5 93.875C310.317 92.9417 311.367 92.475 312.65 92.475H356.75C358.033 92.475 359.083 92.9417 359.9 93.875C360.717 94.6917 361.125 95.7417 361.125 97.025V116.975C361.125 126.892 358.85 135.467 354.3 142.7C349.75 149.817 343.275 155.3 334.875 159.15C326.592 162.883 316.908 164.75 305.825 164.75ZM385.577 163C384.41 163 383.36 162.592 382.427 161.775C381.61 160.842 381.202 159.792 381.202 158.625V44.875C381.202 43.5917 381.61 42.5417 382.427 41.725C383.36 40.9083 384.41 40.5 385.577 40.5H467.302C468.585 40.5 469.635 40.9083 470.452 41.725C471.269 42.5417 471.677 43.5917 471.677 44.875V61.325C471.677 62.4917 471.269 63.5417 470.452 64.475C469.635 65.2917 468.585 65.7 467.302 65.7H411.477V89.325H463.452C464.735 89.325 465.785 89.7917 466.602 90.725C467.419 91.5417 467.827 92.5917 467.827 93.875V109.1C467.827 110.267 467.419 111.317 466.602 112.25C465.785 113.067 464.735 113.475 463.452 113.475H411.477V137.8H468.702C469.985 137.8 471.035 138.208 471.852 139.025C472.669 139.842 473.077 140.892 473.077 142.175V158.625C473.077 159.792 472.669 160.842 471.852 161.775C471.035 162.592 469.985 163 468.702 163H385.577ZM541.994 164.75C525.544 164.75 512.594 160.725 503.144 152.675C493.694 144.625 488.678 132.783 488.094 117.15C487.978 113.767 487.919 108.75 487.919 102.1C487.919 95.3333 487.978 90.2583 488.094 86.875C488.678 71.475 493.753 59.6333 503.319 51.35C513.003 42.95 525.894 38.75 541.994 38.75C558.094 38.75 570.986 42.95 580.669 51.35C590.353 59.6333 595.428 71.475 595.894 86.875C596.128 93.6417 596.244 98.7167 596.244 102.1C596.244 105.367 596.128 110.383 595.894 117.15C595.311 132.783 590.294 144.625 580.844 152.675C571.394 160.725 558.444 164.75 541.994 164.75ZM541.994 139.55C548.411 139.55 553.486 137.625 557.219 133.775C561.069 129.925 563.111 124.033 563.344 116.1C563.578 109.333 563.694 104.55 563.694 101.75C563.694 98.7167 563.578 93.9333 563.344 87.4C563.111 79.4667 561.069 73.575 557.219 69.725C553.369 65.875 548.294 63.95 541.994 63.95C535.694 63.95 530.619 65.875 526.769 69.725C523.036 73.575 520.994 79.4667 520.644 87.4C520.528 90.6667 520.469 95.45 520.469 101.75C520.469 107.933 520.528 112.717 520.644 116.1C520.994 124.033 523.036 129.925 526.769 133.775C530.503 137.625 535.578 139.55 541.994 139.55ZM620.904 163C619.738 163 618.688 162.592 617.754 161.775C616.938 160.842 616.529 159.792 616.529 158.625V44.875C616.529 43.5917 616.938 42.5417 617.754 41.725C618.688 40.9083 619.738 40.5 620.904 40.5H668.504C683.788 40.5 695.688 44 704.204 51C712.838 57.8833 717.154 67.6833 717.154 80.4C717.154 88.5667 715.229 95.5083 711.379 101.225C707.529 106.942 702.221 111.317 695.454 114.35L719.429 157.4C719.779 158.1 719.954 158.742 719.954 159.325C719.954 160.258 719.546 161.133 718.729 161.95C718.029 162.65 717.213 163 716.279 163H693.004C689.621 163 687.229 161.425 685.829 158.275L665.879 119.775H648.029V158.625C648.029 159.908 647.563 160.958 646.629 161.775C645.813 162.592 644.763 163 643.479 163H620.904ZM668.154 94.925C673.521 94.925 677.604 93.6417 680.404 91.075C683.204 88.3917 684.604 84.7167 684.604 80.05C684.604 75.3833 683.204 71.7083 680.404 69.025C677.721 66.225 673.638 64.825 668.154 64.825H648.029V94.925H668.154ZM787.588 164.75C770.788 164.75 757.663 160.667 748.213 152.5C738.763 144.217 733.746 132.492 733.163 117.325C733.046 113.942 732.988 108.575 732.988 101.225C732.988 93.875 733.046 88.5083 733.163 85.125C733.746 70.3083 738.821 58.875 748.388 50.825C758.071 42.775 771.138 38.75 787.588 38.75C798.671 38.75 808.296 40.5583 816.463 44.175C824.746 47.7917 831.046 52.4 835.363 58C839.796 63.6 842.129 69.375 842.363 75.325C842.363 76.375 841.954 77.25 841.138 77.95C840.438 78.65 839.563 79 838.513 79H812.963C811.796 79 810.863 78.825 810.163 78.475C809.463 78.125 808.879 77.4833 808.413 76.55C806.896 73.1667 804.504 70.25 801.238 67.8C797.971 65.2333 793.421 63.95 787.588 63.95C773.704 63.95 766.413 71.3 765.713 86C765.596 89.2667 765.538 94.3417 765.538 101.225C765.538 107.992 765.596 113.067 765.713 116.45C766.413 131.85 773.879 139.55 788.113 139.55C794.996 139.55 800.479 137.8 804.563 134.3C808.763 130.683 810.863 125.2 810.863 117.85V114.525H794.413C793.129 114.525 792.079 114.117 791.263 113.3C790.446 112.367 790.038 111.258 790.038 109.975V97.025C790.038 95.7417 790.446 94.6917 791.263 93.875C792.079 92.9417 793.129 92.475 794.413 92.475H838.513C839.796 92.475 840.846 92.9417 841.663 93.875C842.479 94.6917 842.888 95.7417 842.888 97.025V116.975C842.888 126.892 840.613 135.467 836.063 142.7C831.513 149.817 825.038 155.3 816.638 159.15C808.354 162.883 798.671 164.75 787.588 164.75ZM867.34 163C866.173 163 865.123 162.592 864.19 161.775C863.373 160.842 862.965 159.792 862.965 158.625V44.875C862.965 43.5917 863.373 42.5417 864.19 41.725C865.123 40.9083 866.173 40.5 867.34 40.5H890.79C892.073 40.5 893.123 40.9083 893.94 41.725C894.873 42.5417 895.34 43.5917 895.34 44.875V158.625C895.34 159.908 894.873 160.958 893.94 161.775C893.123 162.592 892.073 163 890.79 163H867.34ZM912.703 163C911.77 163 910.895 162.65 910.078 161.95C909.378 161.133 909.028 160.258 909.028 159.325C909.028 158.625 909.086 158.1 909.203 157.75L950.328 45.4C950.678 44 951.436 42.8333 952.603 41.9C953.77 40.9667 955.286 40.5 957.153 40.5H983.053C984.92 40.5 986.436 40.9667 987.603 41.9C988.77 42.8333 989.528 44 989.878 45.4L1030.83 157.75L1031.18 159.325C1031.18 160.258 1030.77 161.133 1029.95 161.95C1029.25 162.65 1028.38 163 1027.33 163H1005.8C1003 163 1001.14 161.775 1000.2 159.325L993.378 141.475H946.653L940.003 159.325C939.07 161.775 937.145 163 934.228 163H912.703ZM986.378 116.275L970.103 70.075L953.828 116.275H986.378Z" fill="black"/>
<path d="M1095.83 164.75C1079.03 164.75 1065.9 160.667 1056.45 152.5C1047 144.217 1041.98 132.492 1041.4 117.325C1041.28 113.942 1041.23 108.575 1041.23 101.225C1041.23 93.875 1041.28 88.5083 1041.4 85.125C1041.98 70.3083 1047.06 58.875 1056.63 50.825C1066.31 42.775 1079.38 38.75 1095.83 38.75C1106.91 38.75 1116.53 40.5583 1124.7 44.175C1132.98 47.7917 1139.28 52.4 1143.6 58C1148.03 63.6 1150.37 69.375 1150.6 75.325C1150.6 76.375 1150.19 77.25 1149.38 77.95C1148.68 78.65 1147.8 79 1146.75 79H1121.2C1120.03 79 1119.1 78.825 1118.4 78.475C1117.7 78.125 1117.12 77.4833 1116.65 76.55C1115.13 73.1667 1112.74 70.25 1109.48 67.8C1106.21 65.2333 1101.66 63.95 1095.83 63.95C1081.94 63.95 1074.65 71.3 1073.95 86C1073.83 89.2667 1073.78 94.3417 1073.78 101.225C1073.78 107.992 1073.83 113.067 1073.95 116.45C1074.65 131.85 1082.12 139.55 1096.35 139.55C1103.23 139.55 1108.72 137.8 1112.8 134.3C1117 130.683 1119.1 125.2 1119.1 117.85V114.525H1102.65C1101.37 114.525 1100.32 114.117 1099.5 113.3C1098.68 112.367 1098.28 111.258 1098.28 109.975V97.025C1098.28 95.7417 1098.68 94.6917 1099.5 93.875C1100.32 92.9417 1101.37 92.475 1102.65 92.475H1146.75C1148.03 92.475 1149.08 92.9417 1149.9 93.875C1150.72 94.6917 1151.13 95.7417 1151.13 97.025V116.975C1151.13 126.892 1148.85 135.467 1144.3 142.7C1139.75 149.817 1133.28 155.3 1124.88 159.15C1116.59 162.883 1106.91 164.75 1095.83 164.75ZM1175.58 163C1174.41 163 1173.36 162.592 1172.43 161.775C1171.61 160.842 1171.2 159.792 1171.2 158.625V44.875C1171.2 43.5917 1171.61 42.5417 1172.43 41.725C1173.36 40.9083 1174.41 40.5 1175.58 40.5H1257.3C1258.59 40.5 1259.64 40.9083 1260.45 41.725C1261.27 42.5417 1261.68 43.5917 1261.68 44.875V61.325C1261.68 62.4917 1261.27 63.5417 1260.45 64.475C1259.64 65.2917 1258.59 65.7 1257.3 65.7H1201.48V89.325H1253.45C1254.74 89.325 1255.79 89.7917 1256.6 90.725C1257.42 91.5417 1257.83 92.5917 1257.83 93.875V109.1C1257.83 110.267 1257.42 111.317 1256.6 112.25C1255.79 113.067 1254.74 113.475 1253.45 113.475H1201.48V137.8H1258.7C1259.99 137.8 1261.04 138.208 1261.85 139.025C1262.67 139.842 1263.08 140.892 1263.08 142.175V158.625C1263.08 159.792 1262.67 160.842 1261.85 161.775C1261.04 162.592 1259.99 163 1258.7 163H1175.58ZM1331.99 164.75C1315.54 164.75 1302.59 160.725 1293.14 152.675C1283.69 144.625 1278.68 132.783 1278.09 117.15C1277.98 113.767 1277.92 108.75 1277.92 102.1C1277.92 95.3333 1277.98 90.2583 1278.09 86.875C1278.68 71.475 1283.75 59.6333 1293.32 51.35C1303 42.95 1315.89 38.75 1331.99 38.75C1348.09 38.75 1360.99 42.95 1370.67 51.35C1380.35 59.6333 1385.43 71.475 1385.89 86.875C1386.13 93.6417 1386.24 98.7167 1386.24 102.1C1386.24 105.367 1386.13 110.383 1385.89 117.15C1385.31 132.783 1380.29 144.625 1370.84 152.675C1361.39 160.725 1348.44 164.75 1331.99 164.75ZM1331.99 139.55C1338.41 139.55 1343.49 137.625 1347.22 133.775C1351.07 129.925 1353.11 124.033 1353.34 116.1C1353.58 109.333 1353.69 104.55 1353.69 101.75C1353.69 98.7167 1353.58 93.9333 1353.34 87.4C1353.11 79.4667 1351.07 73.575 1347.22 69.725C1343.37 65.875 1338.29 63.95 1331.99 63.95C1325.69 63.95 1320.62 65.875 1316.77 69.725C1313.04 73.575 1310.99 79.4667 1310.64 87.4C1310.53 90.6667 1310.47 95.45 1310.47 101.75C1310.47 107.933 1310.53 112.717 1310.64 116.1C1310.99 124.033 1313.04 129.925 1316.77 133.775C1320.5 137.625 1325.58 139.55 1331.99 139.55ZM1410.9 163C1409.74 163 1408.69 162.592 1407.75 161.775C1406.94 160.842 1406.53 159.792 1406.53 158.625V44.875C1406.53 43.5917 1406.94 42.5417 1407.75 41.725C1408.69 40.9083 1409.74 40.5 1410.9 40.5H1458.5C1473.79 40.5 1485.69 44 1494.2 51C1502.84 57.8833 1507.15 67.6833 1507.15 80.4C1507.15 88.5667 1505.23 95.5083 1501.38 101.225C1497.53 106.942 1492.22 111.317 1485.45 114.35L1509.43 157.4C1509.78 158.1 1509.95 158.742 1509.95 159.325C1509.95 160.258 1509.55 161.133 1508.73 161.95C1508.03 162.65 1507.21 163 1506.28 163H1483C1479.62 163 1477.23 161.425 1475.83 158.275L1455.88 119.775H1438.03V158.625C1438.03 159.908 1437.56 160.958 1436.63 161.775C1435.81 162.592 1434.76 163 1433.48 163H1410.9ZM1458.15 94.925C1463.52 94.925 1467.6 93.6417 1470.4 91.075C1473.2 88.3917 1474.6 84.7167 1474.6 80.05C1474.6 75.3833 1473.2 71.7083 1470.4 69.025C1467.72 66.225 1463.64 64.825 1458.15 64.825H1438.03V94.925H1458.15ZM1577.59 164.75C1560.79 164.75 1547.66 160.667 1538.21 152.5C1528.76 144.217 1523.75 132.492 1523.16 117.325C1523.05 113.942 1522.99 108.575 1522.99 101.225C1522.99 93.875 1523.05 88.5083 1523.16 85.125C1523.75 70.3083 1528.82 58.875 1538.39 50.825C1548.07 42.775 1561.14 38.75 1577.59 38.75C1588.67 38.75 1598.3 40.5583 1606.46 44.175C1614.75 47.7917 1621.05 52.4 1625.36 58C1629.8 63.6 1632.13 69.375 1632.36 75.325C1632.36 76.375 1631.95 77.25 1631.14 77.95C1630.44 78.65 1629.56 79 1628.51 79H1602.96C1601.8 79 1600.86 78.825 1600.16 78.475C1599.46 78.125 1598.88 77.4833 1598.41 76.55C1596.9 73.1667 1594.5 70.25 1591.24 67.8C1587.97 65.2333 1583.42 63.95 1577.59 63.95C1563.7 63.95 1556.41 71.3 1555.71 86C1555.6 89.2667 1555.54 94.3417 1555.54 101.225C1555.54 107.992 1555.6 113.067 1555.71 116.45C1556.41 131.85 1563.88 139.55 1578.11 139.55C1585 139.55 1590.48 137.8 1594.56 134.3C1598.76 130.683 1600.86 125.2 1600.86 117.85V114.525H1584.41C1583.13 114.525 1582.08 114.117 1581.26 113.3C1580.45 112.367 1580.04 111.258 1580.04 109.975V97.025C1580.04 95.7417 1580.45 94.6917 1581.26 93.875C1582.08 92.9417 1583.13 92.475 1584.41 92.475H1628.51C1629.8 92.475 1630.85 92.9417 1631.66 93.875C1632.48 94.6917 1632.89 95.7417 1632.89 97.025V116.975C1632.89 126.892 1630.61 135.467 1626.06 142.7C1621.51 149.817 1615.04 155.3 1606.64 159.15C1598.35 162.883 1588.67 164.75 1577.59 164.75ZM1657.34 163C1656.17 163 1655.12 162.592 1654.19 161.775C1653.37 160.842 1652.96 159.792 1652.96 158.625V44.875C1652.96 43.5917 1653.37 42.5417 1654.19 41.725C1655.12 40.9083 1656.17 40.5 1657.34 40.5H1680.79C1682.07 40.5 1683.12 40.9083 1683.94 41.725C1684.87 42.5417 1685.34 43.5917 1685.34 44.875V158.625C1685.34 159.908 1684.87 160.958 1683.94 161.775C1683.12 162.592 1682.07 163 1680.79 163H1657.34ZM1702.7 163C1701.77 163 1700.89 162.65 1700.08 161.95C1699.38 161.133 1699.03 160.258 1699.03 159.325C1699.03 158.625 1699.09 158.1 1699.2 157.75L1740.33 45.4C1740.68 44 1741.44 42.8333 1742.6 41.9C1743.77 40.9667 1745.29 40.5 1747.15 40.5H1773.05C1774.92 40.5 1776.44 40.9667 1777.6 41.9C1778.77 42.8333 1779.53 44 1779.88 45.4L1820.83 157.75L1821.18 159.325C1821.18 160.258 1820.77 161.133 1819.95 161.95C1819.25 162.65 1818.38 163 1817.33 163H1795.8C1793 163 1791.14 161.775 1790.2 159.325L1783.38 141.475H1736.65L1730 159.325C1729.07 161.775 1727.14 163 1724.23 163H1702.7ZM1776.38 116.275L1760.1 70.075L1743.83 116.275H1776.38Z" fill="#DBDBDB"/>
</svg>
